<?xml version="1.0" encoding="UTF-8" standalone="no"?>
<!-- Created with Inkscape (http://www.inkscape.org/) -->

<svg
   version="1.1"
   id="svg2"
   width="1200"
   height="1200"
   viewBox="0 0 1200 1200"
   xmlns="http://www.w3.org/2000/svg"
   xmlns:svg="http://www.w3.org/2000/svg">
  <defs
     id="defs6" />
  <g
     id="g8">
    <path
       style="fill:#32c671;fill-opacity:1;stroke-width:1.00086"
       d="M 546.85881,1198.589 C 377.41602,1184.4021 219.92368,1096.007 117.08451,957.37126 49.973843,866.90044 9.1503404,757.04406 1.1587522,645.41374 c -1.54470275,-21.5764 -1.54530314,-69.10714 0,-90.47431 C 5.3107478,497.48498 18.219828,439.64438 39.029038,385.25737 77.009294,285.99216 141.2606,198.15447 225.42995,130.42943 319.79791,54.498246 439.35413,8.090369 559.56737,0.72801895 583.82341,-0.75751507 643.10064,0.15782713 662.71382,2.3207881 772.32223,14.408479 873.24365,53.935562 959.40644,118.52396 c 138.80866,104.05226 226.32136,262.43409 239.17826,432.86863 1.8738,24.83965 1.8894,71.79164 0.032,97.14728 -9.8209,134.08729 -67.2607,263.54923 -161.303,363.55673 -101.3604,107.7896 -239.74821,174.8122 -385.09704,186.5064 -23.23086,1.869 -82.96161,1.861 -105.35695,-0.014 z M 500.10706,983.87552 c 4.35523,-0.61283 9.8431,-2.35274 14.50942,-4.60017 7.36971,-3.54945 11.70935,-7.81781 240.9583,-236.99994 145.29178,-145.24943 234.94188,-235.59699 237.39485,-239.24174 10.85067,-16.12249 10.83397,-40.13811 -0.0393,-56.31692 -4.58306,-6.81945 -80.32086,-82.40269 -87.05982,-86.88221 -16.03202,-10.65682 -39.54465,-10.46245 -55.89731,0.46207 -3.98727,2.66373 -65.99509,64.19603 -180.99847,179.61041 -96.21336,96.55723 -175.49926,175.70412 -176.1909,175.88198 -0.69162,0.17786 -38.05197,-36.4324 -83.02298,-81.35613 -79.18341,-79.10008 -81.98723,-81.77844 -88.78815,-84.81258 -17.67367,-7.88493 -37.49514,-5.86804 -52.25882,5.31746 -8.48641,6.4296 -81.57706,80.2479 -85.24535,86.09406 -10.15279,16.18022 -9.77975,39.34879 0.88889,55.20918 2.41806,3.59484 56.80237,58.67511 140.83212,142.63447 133.29833,133.18659 137.08994,136.87364 144.39774,140.41609 6.48102,3.14166 14.15269,5.09127 21.51397,5.46735 1.10071,0.0563 5.15334,-0.34129 9.00584,-0.88338 z"
       id="path293" />
  </g>
</svg>
