<?xml version="1.0" encoding="UTF-8" standalone="no"?>
<!-- Created with Inkscape (http://www.inkscape.org/) -->

<svg
   id="svg5"
   version="1.1"
   viewBox="0 0 3.5450001 3.5449982"
   height="3.5449982mm"
   width="3.5450001mm"
   xml:space="preserve"
   xmlns:xlink="http://www.w3.org/1999/xlink"
   xmlns="http://www.w3.org/2000/svg"
   xmlns:svg="http://www.w3.org/2000/svg"><defs
     id="defs2"><rect
       x="-449.16147"
       y="1600.3644"
       width="154.88353"
       height="50.243092"
       id="rect4511" /><rect
       x="-1046.1163"
       y="443.22809"
       width="673.00604"
       height="504.65302"
       id="rect4475" /><rect
       x="105.24138"
       y="449.22141"
       width="587.013"
       height="284.21234"
       id="rect1856" /><mask
       maskUnits="userSpaceOnUse"
       id="mask-powermask-path-effect3273"><path
         id="mask-powermask-path-effect3273_box"
         style="fill:#ffffff;fill-opacity:1"
         d="M -47350.493,-20984.125 H 5522.0724 V 32008.207 H -47350.493 Z" /><path
         id="path3269"
         style="display:inline;fill:url(#radialGradient3271);fill-opacity:1;fill-rule:evenodd;stroke:#ffffff;stroke-width:0.203014;paint-order:markers fill stroke;stop-color:#000000"
         d="m -22849.188,3538.9666 h 3754.414 v 3754.4131 h -3754.414 z" /></mask><radialGradient
       xlink:href="#linearGradient2926"
       id="radialGradient3271"
       gradientUnits="userSpaceOnUse"
       gradientTransform="matrix(0.75092322,0,0,0.75092322,-20312.94,8031.9731)"
       cx="-877.64062"
       cy="-3483.4453"
       fx="-877.64062"
       fy="-3483.4453"
       r="2500" /><linearGradient
       id="linearGradient2926"><stop
         style="stop-color:#000000;stop-opacity:1;"
         offset="0"
         id="stop2922" /><stop
         style="stop-color:#000000;stop-opacity:0;"
         offset="1"
         id="stop2924" /></linearGradient><mask
       maskUnits="userSpaceOnUse"
       id="mask-powermask-path-effect2409"><path
         id="path2407"
         mask="url(#mask-powermask-path-effect3273-8)"
         style="display:inline;fill:#aa0000;fill-opacity:1;fill-rule:evenodd;stroke:none;stroke-width:0.439805;paint-order:markers fill stroke;stop-color:#000000"
         class="UnoptimicedTransforms"
         d="m -23547.429,4312.5611 v 192.6893 l 2573.663,1008.9234 -2511.364,-1201.6127 z m 982.239,0 1590.4,1200.9906 -1370.832,-1200.9906 z m 675.683,0 913.9,1200.1223 -783.121,-1200.1223 z m 437.711,0 475.645,1199.0596 -377.46,-1199.0596 z m 349.803,0 125.596,1197.8932 -38.103,-1197.8932 z m 329.521,0 -203.848,1196.7009 294.62,-1196.7009 z m 362.194,0 -565.64,1195.5733 675.942,-1195.5733 z m 472.444,0 -1037.397,1194.6013 1200.239,-1194.6013 z m 775.721,0 -1812.185,1193.8497 2135.018,-1193.8497 z m 881.215,332.8777 -2692.311,860.4924 2692.311,-649.3869 z m -5266.531,418.8673 v 190.7454 l 2574.803,259.4463 z m 5266.531,344.1011 -2691.132,97.3685 2691.132,98.2757 z m -2689.952,97.524 2689.952,860.7257 V 6155.707 Z m 1.101,0.4796 1654.967,1091.0768 h 294.71 z m 0.92,0.7516 946.21,1090.3252 h 148.522 z m 0.687,0.972 514.927,1089.3532 h 100.479 z m 0.402,1.1276 184.991,1088.2256 h 82.529 z m 0.08,1.1923 -114.333,1087.0333 h 79.393 z m -0.234,1.1664 -431.166,1085.8669 h 88.945 z m -0.557,1.0627 -826.667,1084.8042 h 118.273 z m -0.816,0.8683 -1436.396,1083.9359 h 198.34 z m -1.011,0.6221 -2577.149,1009.2862 v 74.0276 h 311.066 z m -1.154,0.324 -2575.995,258.6946 v 190.8102 z"
         transform="matrix(0.10684334,0,0,0.10684334,-1963.4303,-1435.358)"
         clip-path="none" /></mask><mask
       maskUnits="userSpaceOnUse"
       id="mask-powermask-path-effect3273-8"><path
         id="mask-powermask-path-effect3273_box-4"
         style="fill:#ffffff;fill-opacity:1"
         d="M -47350.493,-20984.125 H 5522.0724 V 32008.207 H -47350.493 Z" /><path
         id="path3269-8"
         style="display:inline;fill:url(#radialGradient3271-1);fill-opacity:1;fill-rule:evenodd;stroke:#ffffff;stroke-width:0.203014;paint-order:markers fill stroke;stop-color:#000000"
         d="m -22849.188,3538.9666 h 3754.414 v 3754.4131 h -3754.414 z" /></mask><radialGradient
       xlink:href="#linearGradient2926"
       id="radialGradient3271-1"
       gradientUnits="userSpaceOnUse"
       gradientTransform="matrix(0.75092322,0,0,0.75092322,-20312.94,8031.9731)"
       cx="-877.64062"
       cy="-3483.4453"
       fx="-877.64062"
       fy="-3483.4453"
       r="2500" /><mask
       maskUnits="userSpaceOnUse"
       id="mask-powermask-path-effect2409-8"><path
         id="mask-powermask-path-effect2409_box-9"
         style="fill:#ffffff;fill-opacity:1"
         d="m -4311.9901,-958.85541 h 215.6867 v 215.6867 h -215.6867 z" /><path
         id="path2407-6"
         mask="url(#mask-powermask-path-effect3273-8-4)"
         style="display:inline;fill:#aa0000;fill-opacity:1;fill-rule:evenodd;stroke:none;stroke-width:0.439805;paint-order:markers fill stroke;stop-color:#000000"
         class="UnoptimicedTransforms"
         d="m -23547.429,4312.5611 v 192.6893 l 2573.663,1008.9234 -2511.364,-1201.6127 z m 982.239,0 1590.4,1200.9906 -1370.832,-1200.9906 z m 675.683,0 913.9,1200.1223 -783.121,-1200.1223 z m 437.711,0 475.645,1199.0596 -377.46,-1199.0596 z m 349.803,0 125.596,1197.8932 -38.103,-1197.8932 z m 329.521,0 -203.848,1196.7009 294.62,-1196.7009 z m 362.194,0 -565.64,1195.5733 675.942,-1195.5733 z m 472.444,0 -1037.397,1194.6013 1200.239,-1194.6013 z m 775.721,0 -1812.185,1193.8497 2135.018,-1193.8497 z m 881.215,332.8777 -2692.311,860.4924 2692.311,-649.3869 z m -5266.531,418.8673 v 190.7454 l 2574.803,259.4463 z m 5266.531,344.1011 -2691.132,97.3685 2691.132,98.2757 z m -2689.952,97.524 2689.952,860.7257 V 6155.707 Z m 1.101,0.4796 1654.967,1091.0768 h 294.71 z m 0.92,0.7516 946.21,1090.3252 h 148.522 z m 0.687,0.972 514.927,1089.3532 h 100.479 z m 0.402,1.1276 184.991,1088.2256 h 82.529 z m 0.08,1.1923 -114.333,1087.0333 h 79.393 z m -0.234,1.1664 -431.166,1085.8669 h 88.945 z m -0.557,1.0627 -826.667,1084.8042 h 118.273 z m -0.816,0.8683 -1436.396,1083.9359 h 198.34 z m -1.011,0.6221 -2577.149,1009.2862 v 74.0276 h 311.066 z m -1.154,0.324 -2575.995,258.6946 v 190.8102 z"
         transform="matrix(0.10684334,0,0,0.10684334,-1963.4303,-1435.358)"
         clip-path="none" /></mask><mask
       maskUnits="userSpaceOnUse"
       id="mask-powermask-path-effect3273-8-4"><path
         id="mask-powermask-path-effect3273_box-4-3"
         style="fill:#ffffff;fill-opacity:1"
         d="M -47350.493,-20984.125 H 5522.0724 V 32008.207 H -47350.493 Z" /><path
         id="path3269-8-3"
         style="display:inline;fill:url(#radialGradient3271-1-3);fill-opacity:1;fill-rule:evenodd;stroke:#ffffff;stroke-width:0.203014;paint-order:markers fill stroke;stop-color:#000000"
         d="m -22849.188,3538.9666 h 3754.414 v 3754.4131 h -3754.414 z" /></mask><radialGradient
       xlink:href="#linearGradient2926"
       id="radialGradient3271-1-3"
       gradientUnits="userSpaceOnUse"
       gradientTransform="matrix(0.75092322,0,0,0.75092322,-20312.94,8031.9731)"
       cx="-877.64062"
       cy="-3483.4453"
       fx="-877.64062"
       fy="-3483.4453"
       r="2500" /><filter
       id="mask-powermask-path-effect2409_inverse-4"
       style="color-interpolation-filters:sRGB"
       height="100"
       width="100"
       x="-50"
       y="-50"><feColorMatrix
         id="mask-powermask-path-effect2409_primitive1-8"
         values="1"
         type="saturate"
         result="fbSourceGraphic" /><feColorMatrix
         id="mask-powermask-path-effect2409_primitive2-8"
         values="-1 0 0 0 1 0 -1 0 0 1 0 0 -1 0 1 0 0 0 1 0 "
         in="fbSourceGraphic" /></filter><mask
       maskUnits="userSpaceOnUse"
       id="mask-powermask-path-effect2409-0"><path
         id="path3850"
         style="fill:#ffffff;fill-opacity:1"
         d="m -4311.9901,-958.85541 h 215.6867 v 215.6867 h -215.6867 z" /><path
         id="path3852"
         mask="url(#mask-powermask-path-effect3273-8-4)"
         style="display:inline;fill:#aa0000;fill-opacity:1;fill-rule:evenodd;stroke:none;stroke-width:0.439805;paint-order:markers fill stroke;stop-color:#000000"
         class="UnoptimicedTransforms"
         d="m -23547.429,4312.5611 v 192.6893 l 2573.663,1008.9234 -2511.364,-1201.6127 z m 982.239,0 1590.4,1200.9906 -1370.832,-1200.9906 z m 675.683,0 913.9,1200.1223 -783.121,-1200.1223 z m 437.711,0 475.645,1199.0596 -377.46,-1199.0596 z m 349.803,0 125.596,1197.8932 -38.103,-1197.8932 z m 329.521,0 -203.848,1196.7009 294.62,-1196.7009 z m 362.194,0 -565.64,1195.5733 675.942,-1195.5733 z m 472.444,0 -1037.397,1194.6013 1200.239,-1194.6013 z m 775.721,0 -1812.185,1193.8497 2135.018,-1193.8497 z m 881.215,332.8777 -2692.311,860.4924 2692.311,-649.3869 z m -5266.531,418.8673 v 190.7454 l 2574.803,259.4463 z m 5266.531,344.1011 -2691.132,97.3685 2691.132,98.2757 z m -2689.952,97.524 2689.952,860.7257 V 6155.707 Z m 1.101,0.4796 1654.967,1091.0768 h 294.71 z m 0.92,0.7516 946.21,1090.3252 h 148.522 z m 0.687,0.972 514.927,1089.3532 h 100.479 z m 0.402,1.1276 184.991,1088.2256 h 82.529 z m 0.08,1.1923 -114.333,1087.0333 h 79.393 z m -0.234,1.1664 -431.166,1085.8669 h 88.945 z m -0.557,1.0627 -826.667,1084.8042 h 118.273 z m -0.816,0.8683 -1436.396,1083.9359 h 198.34 z m -1.011,0.6221 -2577.149,1009.2862 v 74.0276 h 311.066 z m -1.154,0.324 -2575.995,258.6946 v 190.8102 z"
         transform="matrix(0.10684334,0,0,0.10684334,-1963.4303,-1435.358)"
         clip-path="none" /></mask></defs><g
     id="layer3"
     style="display:inline"
     transform="matrix(0.03738957,0,0,0.03738957,-452.37069,3.9178336)"><text
       xml:space="preserve"
       transform="matrix(7.0763941,0,0,7.0763941,-1809.4771,-718.37047)"
       id="text1854"
       style="font-weight:bold;font-size:26.6667px;line-height:1.25;font-family:sans-serif;-inkscape-font-specification:'sans-serif Bold';letter-spacing:-0.5px;white-space:pre;shape-inside:url(#rect1856);display:inline" /><text
       xml:space="preserve"
       style="font-size:188.704px;line-height:1.25;font-family:Arial;-inkscape-font-specification:Arial;letter-spacing:-3.5382px;stroke-width:7.07639"
       x="628.71295"
       y="7856.3379"
       id="text2673"><tspan
         id="tspan2671"
         style="stroke-width:7.07639"
         x="628.71295"
         y="7856.3379" /></text><path
       style="display:inline;fill:#ffffff;stroke-width:0.222786"
       d="m 12145.696,-9.9733257 c -9.435,-0.014 -18.341,-0.1066003 -19.792,-0.2047003 -1.451,-0.098 -3.914,-0.4306 -5.473,-0.7389 -1.559,-0.3084 -3.776,-0.9203 -4.928,-1.3598 -1.152,-0.4396 -2.649,-1.1109 -3.328,-1.492 -0.678,-0.381 -1.897,-1.1783 -2.709,-1.7717 -0.812,-0.5935 -2.178,-1.818 -3.036,-2.7213 -0.858,-0.9032 -1.96,-2.2315 -2.448,-2.9516 -0.489,-0.7201 -1.268,-2.0612 -1.731,-2.9802 -0.463,-0.919 -1.127,-2.5148 -1.476,-3.5463 -0.35,-1.0314 -0.789,-2.6856 -0.977,-3.6759 -0.188,-0.9904 -0.488,-3.8558 -0.667,-6.3677 -0.236,-3.3175 -0.325,-8.6514 -0.325,-19.4938 0,-10.8424 0.09,-16.1764 0.325,-19.4938 0.179,-2.5119 0.486,-5.4155 0.683,-6.4524 0.197,-1.0369 0.688,-2.8463 1.093,-4.021 0.404,-1.1746 0.96,-2.582 1.237,-3.1274 0.276,-0.5454 0.924,-1.6477 1.441,-2.4495 0.516,-0.8018 1.421,-2.0048 2.011,-2.6734 0.589,-0.6686 1.683,-1.7541 2.429,-2.4123 0.747,-0.6581 2.009,-1.6187 2.805,-2.134704 0.797,-0.516 2.251,-1.2986 3.231,-1.7393 0.98,-0.4406 2.735,-1.0703 3.899,-1.3994 1.164,-0.329 3.018,-0.7357 4.121,-0.9038 1.267,-0.193 6.125,-0.3987 13.192,-0.5584 8.352,-0.1888 13.97,-0.1887 22.168,5e-4 6.867,0.1584 11.731,0.3676 12.985,0.5584 1.102,0.1678 2.957,0.5743 4.121,0.9033 1.164,0.3291 2.919,0.9588 3.899,1.3994 0.98,0.4407 2.434,1.2212 3.23,1.7347 0.797,0.513404 2.075,1.495504 2.841,2.182604 0.765,0.687 1.858,1.7746 2.429,2.4169 0.57,0.6422 1.459,1.8237 1.976,2.6255 0.516,0.8018 1.165,1.9041 1.441,2.4495 0.276,0.5454 0.833,1.9528 1.237,3.1274 0.404,1.1747 0.896,2.9841 1.093,4.021 0.197,1.0369 0.504,3.9405 0.683,6.4524 0.236,3.3175 0.324,8.6514 0.324,19.4938 0,10.8424 -0.09,16.1763 -0.324,19.4938 -0.179,2.5119 -0.479,5.3773 -0.667,6.3677 -0.188,0.9903 -0.637,2.6723 -0.997,3.7377 -0.36,1.0653 -1.023,2.6611 -1.473,3.5462 -0.45,0.8851 -1.182,2.1606 -1.627,2.8345 -0.444,0.674 -1.55,2.0036 -2.456,2.9548 -0.906,0.9512 -2.31,2.2171 -3.119,2.8132 -0.81,0.5961 -2.023,1.3916 -2.697,1.7679 -0.674,0.3762 -2.16,1.0444 -3.303,1.485 -1.142,0.4404 -3.298,1.0508 -4.79,1.3564 -1.492,0.3056 -4.216,0.6495 -6.054,0.7644 -1.838,0.1148 -11.062,0.1969003 -20.497,0.1823003 z m 2.562,-8.9786003 c 15.621,-0.049 18.96,-0.1146 20.831,-0.4089 1.226,-0.1928 3.113,-0.6626 4.194,-1.0441 1.081,-0.3814 2.484,-1.0094 3.118,-1.3954 0.635,-0.3861 1.636,-1.1076 2.226,-1.6033 0.589,-0.4957 1.531,-1.5028 2.093,-2.238 0.561,-0.7352 1.357,-2.0399 1.768,-2.8994 0.411,-0.8595 1,-2.6641 1.308,-4.0102 0.422,-1.8459 0.612,-3.5425 0.775,-6.9032 0.118,-2.4506 0.215,-10.4709 0.215,-17.8228 0,-7.352 -0.1,-15.4224 -0.218,-17.9343 -0.181,-3.8074 -0.325,-4.9988 -0.863,-7.1625 -0.404,-1.6233 -0.99,-3.2563 -1.564,-4.3601 -0.505,-0.9706 -1.433,-2.3421 -2.062,-3.0479 -0.629,-0.7058 -1.689,-1.686 -2.355,-2.1782 -0.666,-0.4922 -1.98,-1.2471 -2.918,-1.6775 -0.939,-0.4304 -2.609,-0.971 -3.712,-1.2013 -1.103,-0.2303 -4.11,-0.5692 -6.684,-0.7532 -3.387,-0.2422 -8.396,-0.3346 -18.157,-0.3346 -9.573,0 -14.801,0.094 -18.045,0.3248 -2.512,0.1787 -5.408,0.485 -6.435,0.6806 -1.026,0.1956 -2.731,0.7285 -3.787,1.1841 -1.056,0.4555 -2.481,1.2431 -3.167,1.7502 -0.686,0.507 -1.762,1.4993 -2.391,2.2051 -0.629,0.7058 -1.557,2.0773 -2.062,3.0479 -0.574,1.1038 -1.16,2.7368 -1.564,4.3601 -0.539,2.1637 -0.682,3.3551 -0.863,7.1625 -0.12,2.5119 -0.218,10.5823 -0.218,17.9343 0,7.3519 0.1,15.4223 0.218,17.9343 0.181,3.8157 0.324,4.9967 0.867,7.1785 0.43,1.7288 0.976,3.2273 1.616,4.4332 0.646,1.2189 1.489,2.3516 2.547,3.423 0.87,0.8807 2.195,1.9738 2.945,2.4291 0.749,0.4553 2.23,1.1212 3.291,1.4798 1.061,0.3586 2.543,0.7642 3.294,0.9015 0.75,0.1372 2.668,0.3294 4.261,0.4269 1.593,0.098 11.267,0.1511 21.498,0.119 z m -1.448,-14.0213 c -1.672,0.057 -3.359,0.012 -5.012,-0.2445 -1.021,-0.1585 -2.017,-0.4655 -2.997,-0.7947 -1.141,-0.3835 -2.261,-0.84 -3.342,-1.3704 -1.072,-0.526 -2.122,-1.1079 -3.102,-1.7898 -1.05,-0.7301 -2.031,-1.5622 -2.952,-2.4487 -0.979,-0.9424 -1.894,-1.9578 -2.721,-3.0358 -0.663,-0.8633 -1.252,-1.7848 -1.786,-2.7335 -0.521,-0.9277 -0.994,-1.8877 -1.376,-2.8809 -0.483,-1.2549 -0.897,-2.5458 -1.15,-3.8663 -0.332,-1.7259 -0.476,-3.4933 -0.476,-5.2508 0,-1.7264 0.117,-3.467 0.463,-5.1585 0.296,-1.4532 0.792,-2.8675 1.371,-4.233 0.569,-1.3432 1.249,-2.6478 2.055,-3.8643 0.863,-1.3033 1.873,-2.5123 2.952,-3.6437 0.97,-1.0176 2.023,-1.964 3.147,-2.8086 0.877,-0.6596 1.821,-1.2348 2.79,-1.7501 1.076,-0.5718 2.195,-1.0691 3.342,-1.4799 1.185,-0.4246 2.399,-0.7961 3.639,-1.0113 1.516,-0.2629 3.065,-0.3336 4.603,-0.3343 1.526,0 3.061,0.073 4.565,0.3277 1.164,0.1973 2.299,0.5469 3.417,0.9245 0.961,0.3246 1.908,0.7015 2.819,1.1492 0.925,0.455 1.827,0.9656 2.673,1.5556 1.253,0.8744 2.446,1.8472 3.531,2.9231 1.2,1.1894 2.312,2.4815 3.265,3.8762 0.875,1.281 1.613,2.6624 2.228,4.0871 0.594,1.3785 1.095,2.8111 1.397,4.2818 0.347,1.6911 0.464,3.4321 0.462,5.1585 0,1.7576 -0.148,3.5249 -0.481,5.2508 -0.254,1.3203 -0.667,2.6115 -1.149,3.8663 -0.383,0.9932 -0.855,1.9532 -1.376,2.8809 -0.534,0.9487 -1.123,1.8702 -1.786,2.7335 -0.828,1.078 -1.741,2.0943 -2.721,3.0358 -0.94,0.9031 -1.939,1.755 -3.014,2.4915 -1.08,0.7394 -2.239,1.3653 -3.426,1.9171 -1.347,0.6265 -2.727,1.2208 -4.171,1.572 -1.852,0.4509 -3.775,0.6024 -5.681,0.6675 z m 2.682,-9.1633 c 1.095,-0.1704 2.157,-0.5586 3.165,-1.0177 1.065,-0.4843 2.067,-1.1133 3.004,-1.8129 0.805,-0.6015 1.555,-1.285 2.227,-2.0328 0.59,-0.6558 1.116,-1.3737 1.565,-2.1327 0.627,-1.0614 1.206,-2.173 1.557,-3.3547 0.47,-1.5823 0.707,-3.2507 0.705,-4.9013 0,-1.5933 -0.25,-3.1989 -0.691,-4.7297 -0.327,-1.1303 -0.811,-2.226 -1.429,-3.227 -0.671,-1.0866 -1.523,-2.0648 -2.437,-2.9564 -0.974,-0.9497 -2.043,-1.8223 -3.214,-2.5153 -0.939,-0.5559 -1.968,-0.9617 -3.009,-1.2899 -0.946,-0.2983 -1.926,-0.506 -2.913,-0.6087 -1.066,-0.111 -2.149,-0.1037 -3.217,-0.01 -1.1,0.102 -2.2,0.2908 -3.256,0.614 -1.04,0.3183 -2.061,0.7381 -2.996,1.2936 -1.166,0.693 -2.232,1.563 -3.204,2.5101 -0.91,0.8873 -1.76,1.8595 -2.428,2.9411 -0.618,1.0007 -1.103,2.0962 -1.427,3.227 -0.449,1.5719 -0.698,3.2215 -0.687,4.8563 0.01,1.7002 0.285,3.415 0.784,5.0401 0.351,1.1389 0.915,2.2102 1.531,3.2305 0.432,0.7175 0.944,1.3913 1.507,2.0119 0.68,0.7489 1.43,1.4409 2.241,2.0457 0.932,0.6951 1.932,1.3128 2.988,1.7989 0.96,0.4417 1.965,0.8295 3.008,0.9995 2.18,0.3552 4.444,0.3547 6.626,0.015 z m 20.895,-34.6444 c -0.542,-0.075 -1.079,-0.2512 -1.559,-0.5142 -0.548,-0.3001 -1.03,-0.7247 -1.453,-1.1841 -0.509,-0.5522 -0.983,-1.1652 -1.277,-1.8564 -0.296,-0.6976 -0.452,-1.47 -0.452,-2.2278 0,-0.7578 0.162,-1.528 0.453,-2.2279 0.269,-0.6481 0.675,-1.2515 1.165,-1.7538 0.518,-0.5319 1.147,-0.975 1.825,-1.2789 0.701,-0.3144 1.476,-0.5011 2.244,-0.5297 0.718,-0.027 1.45,0.1026 2.129,0.3382 0.66,0.2293 1.3,0.5689 1.829,1.0251 0.586,0.5042 1.09,1.1333 1.42,1.8318 0.379,0.8021 0.589,1.7081 0.589,2.5952 0,0.8879 -0.204,1.7978 -0.59,2.5975 -0.36,0.7469 -0.911,1.4207 -1.556,1.941 -0.662,0.5327 -1.459,0.9218 -2.282,1.1342 -0.802,0.2074 -1.663,0.2232 -2.485,0.1098 z"
       id="path7589-8" /></g><g
     id="layer1"
     transform="matrix(0.03738957,0,0,0.03738957,-408.63331,-1.6116204)"
     style="display:inline"><g
       id="layer6"
       transform="matrix(1.2574382,0,0,1.2574382,-1465.0389,125.57297)"
       style="display:inline"><g
         id="layer8"
         transform="matrix(1.1025017,0,0,1.1025017,-112.86563,-59.092176)" /><g
         id="layer7"
         transform="matrix(1.0658866,0,0,1.0658866,-67.868602,-50.49066)" /></g><text
       xml:space="preserve"
       transform="matrix(7.0763941,0,0,7.0763941,-2979.252,-570.48286)"
       id="text4509"
       style="font-size:26.6667px;line-height:1.25;font-family:Arial;-inkscape-font-specification:Arial;letter-spacing:-0.5px;white-space:pre;shape-inside:url(#rect4511);display:inline" /></g></svg>
