<?xml version="1.0" encoding="UTF-8" standalone="no"?>
<svg
   width="149.735mm"
   height="149.735mm"
   version="1.1"
   viewBox="0 0 149.735 149.735"
   id="svg43564"
   sodipodi:docname="OUTPUT_BoxFit_Ganz_Icon.svg"
   inkscape:export-filename="OUTPUT_BoxFit_Ganz_Icon.png"
   inkscape:export-xdpi="152.60001"
   inkscape:export-ydpi="152.60001"
   inkscape:version="1.2 (dc2aedaf03, 2022-05-15)"
   xmlns:inkscape="http://www.inkscape.org/namespaces/inkscape"
   xmlns:sodipodi="http://sodipodi.sourceforge.net/DTD/sodipodi-0.dtd"
   xmlns:xlink="http://www.w3.org/1999/xlink"
   xmlns="http://www.w3.org/2000/svg"
   xmlns:svg="http://www.w3.org/2000/svg">
  <sodipodi:namedview
     id="namedview43566"
     pagecolor="#505050"
     bordercolor="#eeeeee"
     borderopacity="1"
     inkscape:showpageshadow="0"
     inkscape:pageopacity="0"
     inkscape:pagecheckerboard="0"
     inkscape:deskcolor="#505050"
     inkscape:document-units="mm"
     showgrid="false"
     inkscape:zoom="0.60324047"
     inkscape:cx="52.217982"
     inkscape:cy="489.8544"
     inkscape:window-width="1920"
     inkscape:window-height="1010"
     inkscape:window-x="0"
     inkscape:window-y="0"
     inkscape:window-maximized="1"
     inkscape:current-layer="g43562"
     showguides="true" />
  <defs
     id="defs43498">
    <radialGradient
       id="radialGradient2317"
       cx="-877.64001"
       cy="-3483.3999"
       r="2500"
       gradientTransform="matrix(0.042737,0,0,0.042737,-4166.6,-702.14)"
       gradientUnits="userSpaceOnUse">
      <stop
         stop-color="#fff"
         stop-opacity=".73012"
         offset="0"
         id="stop43479" />
      <stop
         stop-color="#f8f8f8"
         stop-opacity="0"
         offset="1"
         id="stop43481" />
    </radialGradient>
    <mask
       id="mask-powermask-path-effect2409"
       maskUnits="userSpaceOnUse">
      <path
         id="mask-powermask-path-effect2409_box"
         d="m -4312,-958.86 h 215.69 v 215.69 H -4312 Z"
         fill="#ffffff" />
      <path
         class="UnoptimicedTransforms"
         transform="matrix(0.10684,0,0,0.10684,-1963.4,-1435.4)"
         d="m -23547,4312.6 v 192.69 l 2573.7,1008.9 -2511.4,-1201.6 z m 982.24,0 1590.4,1201 -1370.8,-1201 z m 675.68,0 913.9,1200.1 -783.12,-1200.1 z m 437.71,0 475.64,1199.1 -377.46,-1199.1 z m 349.8,0 125.6,1197.9 -38.103,-1197.9 z m 329.52,0 -203.85,1196.7 294.62,-1196.7 z m 362.19,0 -565.64,1195.6 675.94,-1195.6 z m 472.44,0 -1037.4,1194.6 1200.2,-1194.6 z m 775.72,0 -1812.2,1193.8 2135,-1193.8 z m 881.22,332.88 -2692.3,860.49 2692.3,-649.39 z m -5266.5,418.87 v 190.75 l 2574.8,259.45 z m 5266.5,344.1 -2691.1,97.368 2691.1,98.276 z m -2690,97.524 2690,860.73 v -210.95 z m 1.101,0.4796 1655,1091.1 h 294.71 z m 0.92,0.7516 946.21,1090.3 h 148.52 z m 0.687,0.972 514.93,1089.4 h 100.48 z m 0.402,1.1276 184.99,1088.2 h 82.529 z m 0.08,1.1923 -114.33,1087 h 79.393 z m -0.234,1.1664 -431.17,1085.9 h 88.945 z m -0.557,1.0627 -826.67,1084.8 h 118.27 z m -0.816,0.8683 -1436.4,1083.9 h 198.34 z m -1.011,0.6221 -2577.1,1009.3 v 74.028 h 311.07 z m -1.154,0.324 -2576,258.69 v 190.81 z"
         fill="#aa0000"
         fill-rule="evenodd"
         mask="url(#mask-powermask-path-effect3273-8)"
         stop-color="#000000"
         style="paint-order:markers fill stroke"
         id="path43485" />
    </mask>
    <mask
       id="mask-powermask-path-effect3273-8"
       maskUnits="userSpaceOnUse">
      <path
         d="M -47350,-20984 H 5523 v 52992 h -52873 z"
         fill="#ffffff"
         id="path43488" />
      <path
         d="m -22849,3539 h 3754.4 V 7293.4 H -22849 Z"
         fill="url(#radialGradient3271-1)"
         fill-rule="evenodd"
         stop-color="#000000"
         stroke="#ffffff"
         stroke-width="0.20301"
         style="paint-order:markers fill stroke"
         id="path43490" />
    </mask>
    <radialGradient
       id="radialGradient3271-1"
       cx="-877.64001"
       cy="-3483.3999"
       r="2500"
       gradientTransform="matrix(0.75092,0,0,0.75092,-20313,8032)"
       gradientUnits="userSpaceOnUse">
      <stop
         offset="0"
         id="stop43493" />
      <stop
         stop-opacity="0"
         offset="1"
         id="stop43495" />
    </radialGradient>
    <radialGradient
       xlink:href="#linearGradient86080"
       id="radialGradient86082"
       cx="-20966.637"
       cy="5470.2817"
       fx="-20966.637"
       fy="5470.2817"
       r="991.33051"
       gradientTransform="matrix(1,0,0,0.99907801,0,5.0435626)"
       gradientUnits="userSpaceOnUse" />
    <linearGradient
       id="linearGradient86080">
      <stop
         style="stop-color:#aa0000;stop-opacity:0;"
         offset="0"
         id="stop86076" />
      <stop
         style="stop-color:#aa0000;stop-opacity:0.3130821;"
         offset="0.43776903"
         id="stop86078" />
    </linearGradient>
  </defs>
  <g
     transform="translate(-83.552,-83.552)"
     id="g43562"
     style="display:inline">
    <circle
       style="display:inline;opacity:0.894592;fill:#aa0000;fill-rule:evenodd;stroke-width:0.190319;stroke-linecap:round;stroke-linejoin:round;stroke-miterlimit:0;paint-order:markers fill stroke;stop-color:#000000"
       id="path447"
       cx="158.4194"
       cy="158.41949"
       r="74.867592"
       sodipodi:insensitive="true" />
    <path
       id="path43500"
       mask="url(#mask-powermask-path-effect2409)"
       style="display:inline;fill:url(#radialGradient2317);paint-order:markers fill stroke"
       d="m -4204.1601,-879.21221 a 48.056738,48.056738 0 0 0 -48.0565,48.05653 48.056738,48.056738 0 0 0 48.0565,48.05686 48.056738,48.056738 0 0 0 48.0568,-48.05686 48.056738,48.056738 0 0 0 -48.0568,-48.05653 z"
       transform="matrix(1.5579,0,0,1.5579,6708.0803,1453.2767)"
       sodipodi:insensitive="true" />
    <path
       id="path85976"
       mask="none"
       style="display:inline;fill:url(#radialGradient86082);fill-opacity:1;fill-rule:evenodd;stroke:none;stroke-width:0.439805;paint-order:markers fill stroke;stop-color:#000000"
       class="UnoptimicedTransforms"
       d="m -21009.178,4479.8652 a 996.71881,996.71881 0 0 0 -73.742,14.6708 l 106.518,1015.9217 z m 206.674,8.9684 -173.82,1020.4318 247.614,-1005.7611 a 996.71881,996.71881 0 0 0 -73.794,-14.6707 z m -481.257,45.6451 a 996.71881,996.71881 0 0 0 -73.496,16.4203 l 381.101,960.7251 z m 748.933,41.3424 -441.094,932.3168 507.915,-898.3745 a 996.71881,996.71881 0 0 0 -66.821,-33.9423 z m -993.696,89.5277 a 996.71881,996.71881 0 0 0 -61.197,40.8888 l 614.11,806.4492 z m 1225.55,67.6772 -672.261,774.1399 725.851,-722.4425 a 996.71881,996.71881 0 0 0 -53.59,-51.6974 z m -1430.331,115.992 a 996.71881,996.71881 0 0 0 -40.746,60.9768 l 799.256,603.5604 z m 1608.453,97.7962 -849.45,559.6 885.453,-495.124 a 996.71881,996.71881 0 0 0 -36.003,-64.476 z m -1761.238,130.8442 a 996.71881,996.71881 0 0 0 -18.948,71.4485 l 931.267,365.0703 z m 1872.772,121.4871 -959.896,306.7892 975.798,-235.3667 a 996.71881,996.71881 0 0 0 -15.902,-71.4225 z m -1930.613,145.5278 a 996.71881,996.71881 0 0 0 -14.036,70.5413 l 985.337,99.2866 z m 1968.625,125.0382 -996.728,36.0677 991.997,36.2232 a 996.71881,996.71881 0 0 0 4.731,-72.2909 z m -995.549,36.2232 935.155,299.2335 a 996.71881,996.71881 0 0 0 23.004,-67.7808 z m 1.102,0.4795 811.568,535.0408 a 996.71881,996.71881 0 0 0 39.321,-58.8643 z m 0.92,0.7517 631.813,728.0412 a 996.71881,996.71881 0 0 0 52.734,-46.2543 z m 0.687,0.972 409.445,866.1948 a 996.71881,996.71881 0 0 0 62.48,-30.8189 z m 0.402,1.1275 160.017,941.324 a 996.71881,996.71881 0 0 0 68.066,-13.5432 z m 0.09,1.1923 -98.522,936.7102 a 996.71881,996.71881 0 0 0 67.976,13.5303 z m -0.246,1.1664 -351.475,885.1813 a 996.71881,996.71881 0 0 0 68.234,13.582 z m -0.557,1.0627 -572.884,751.771 a 996.71881,996.71881 0 0 0 57.063,38.1413 z m -0.804,0.8684 -763.707,576.3054 a 996.71881,996.71881 0 0 0 38.919,58.2552 z m -1.011,0.622 -909.39,356.141 a 996.71881,996.71881 0 0 0 39.8,59.5641 z m -1.166,0.324 -968.89,97.3038 a 996.71881,996.71881 0 0 0 13.789,69.3619 z"
       transform="matrix(0.11863804,0,0,0.11863804,2646.5647,-519.59873)" />
    <path
       d="m 138.61169,114.39752 c -0.43044,0 -0.85655,0.0806 -1.2772,0.23978 -0.48251,0.18218 -1.8872,0.49574 -1.934,0.44902 -0.0452,-0.0469 2.9294,0.57612 3.3026,1.1826 -1.3725,-0.49327 -3.1914,-0.94785 -4.213,-1.1258 -4.041,-0.70376 -8.4121,2.0749 -10.052,6.3903 -0.61703,1.6238 -0.81984,5.1724 -0.35575,6.2296 0.0246,0.0608 0.0432,0.0901 0.0625,0.12625 l -0.15136,0.75534 c -0.16203,0.21715 -0.0605,0.8656 0.17931,1.0644 0.14025,0.11721 0.35617,0.65561 0.47687,1.1965 0.0864,0.38043 0.14477,0.60152 0.19659,0.69999 v 0.0637 c -0.19659,1.796 -0.65202,1.8582 1.6695,6.2433 v -0.0124 c 0.15998,0.31791 0.54271,0.8614 1.0934,1.5384 0.32161,0.39605 0.53001,0.62627 0.63023,0.70117 v 0.0165 c -0.81443,-0.6202 -2.3167,-1.2474 -3.2584,-1.2413 -5.1434,0.0329 -10.91,5.725 -12.263,12.105 -0.17726,0.83232 -0.48616,1.9336 -0.6881,2.4474 -0.20522,0.5226 -0.36726,1.3441 -0.36726,1.8646 -2.6e-4,0.66371 -0.15341,1.2514 -0.5298,2.0501 -0.59758,1.263 -1.0682,1.863 -1.0682,1.3613 0,-0.34053 -2.3426,2.5285 -2.837,3.4744 -1.3572,2.5968 -2.4247,6.6275 -1.9658,7.4221 0.0288,0.0485 0.0498,0.0732 0.0691,0.0786 l 0.23607,0.4533 c 0.0246,0.1131 0.0843,0.29735 0.19453,0.57401 0.15546,0.39647 0.52416,0.92356 0.819,1.1716 1.4163,1.1915 6.1701,-1.3725 8.1171,-4.3784 0.34835,-0.53716 1.0962,-1.6722 1.663,-2.5223 0.36068,-0.54143 0.59284,-0.89644 0.7386,-1.1697 0.81962,4.5961 1.0494,4.5756 2.229,6.1181 -0.0246,0.06 -0.0246,0.19412 -0.037,0.41522 -0.18794,3.5568 0.0757,5.1981 1.5168,9.5006 1.336,3.9872 1.7129,8.4167 0.85783,10.084 -0.44207,0.86264 -0.47859,1.1096 -0.53087,3.5901 -0.0329,1.4651 -0.1316,3.1031 -0.22126,3.6404 -0.0909,0.53719 -0.17067,1.3164 -0.17931,1.7315 l -0.0246,0.75477 h 0.21181 v 0.0288 c 7.9722,0.0724 15.651,0.0246 23.361,0.008 0.0519,-1.542 0.74017,-2.9828 1.9572,-3.7887 l 0.0288,-0.037 c 0.0288,-0.0555 0.0246,-0.086 0.0473,-0.14641 0.39153,-0.63353 0.28871,-0.99947 0.93927,-1.6346 -0.16204,-0.56986 0.5719,-0.3722 0.38206,-0.82645 -0.56002,-1.2883 -0.82265,-2.1459 -0.82265,-2.6868 0,-0.24305 -0.11886,-0.59683 -0.26076,-0.78643 -0.14477,-0.1896 -0.26279,-0.48546 -0.26649,-0.65746 0,-0.17232 -0.15752,-0.65149 -0.34507,-1.0655 -0.18794,-0.41403 -0.39235,-1.0637 -0.45675,-1.4436 -0.15135,-0.89776 -1.6848,-3.8359 -3.1048,-5.9526 -1.3933,-2.0773 -2.3891,-4.1761 -2.229,-4.6986 0.34958,-1.1404 0.42114,-1.7202 0.32531,-2.6412 l -0.10363,-1.0028 0.67468,-1.5188 c 0.0288,0.0761 0.20523,0.62164 0.42393,1.3218 0.48292,1.5525 1.0618,2.7585 1.6714,3.4833 0.63217,0.75127 0.98442,1.7119 1.2926,3.5236 0.72869,4.2836 2.326,7.1095 5.0552,8.9419 1.3796,0.92643 2.6834,0.80025 3.8575,-0.34382 -0.0711,-0.32655 -0.18343,-0.8005 -0.3759,-1.37 -0.14477,-0.42554 -0.29242,-0.81143 -0.42242,-1.0948 -0.0246,-0.0288 -0.0246,-0.0527 -0.037,-0.0769 -0.0246,-0.0205 -0.0246,-0.0419 -0.0287,-0.0608 v -0.0205 c -0.92437,-0.33396 -1.6943,-1.0034 -2.1014,-1.9057 -0.58701,-1.3008 -0.74338,-1.6711 -0.87556,-2.1868 -0.12297,-0.48554 -0.0863,-1.0994 0.18589,-1.5788 -0.17067,-0.42074 -0.30351,-0.86956 -0.30351,-1.1796 0,0 -0.056,-0.30681 -0.14682,-0.62155 -0.10817,-0.38619 -0.22127,-0.81506 -0.20523,-1.1819 0,-0.0246 0.0691,-0.22784 0.0864,-0.35821 -0.24965,-0.82077 -0.27762,-2.5847 -0.18138,-3.5853 0.15999,-1.7039 1.279,-3.4804 2.8262,-4.7969 l -0.095,-0.9293 c 0.14684,-1.0576 -0.10569,-6.827 -0.41615,-8.517 -0.82781,-4.5066 -1.5915,-6.5056 -3.0504,-7.9835 -0.43171,-0.43748 -0.86367,-0.99602 -1.2507,-1.5914 l -0.037,-2.2588 c 0.0473,-0.0329 0,-0.59272 -0.1168,-1.7987 -0.19659,-1.9468 -0.13819,-2.5308 0.17273,-1.8098 0.22373,0.51693 0.12545,-0.90113 -0.15998,-2.3086 0,-1.0791 0.30845,-1.6016 0.53992,-3.003 l 0.35245,0.96081 -0.11022,-0.79913 c -0.0605,-0.43953 -0.26033,-1.1835 -0.44487,-1.6534 -0.48184,-1.2288 -0.69805,-2.2903 -0.85762,-4.2068 -0.0778,-0.92782 -0.26281,-2.3264 -0.4123,-3.1076 -0.14888,-0.78137 -0.44618,-2.4996 -0.65939,-3.8181 -0.48657,-3.0127 -0.73795,-4.0694 -1.2954,-5.4468 -0.41618,-1.0284 -0.42267,-1.0922 -0.10571,-1.0312 0.51681,0.0995 0.13613,-0.49143 -1.2464,-1.9373 -1.3449,-1.4058 -2.6761,-2.1117 -3.9672,-2.1086 z m 4.7291,8.1184 c -0.0822,0.28912 -0.50319,2.149 -0.75566,3.0774 -0.13613,1.5508 -0.21922,1.7701 -0.41663,3.5238 -0.36685,1.4548 -1.3388,2.9016 -2.2932,4.2899 -0.744,1.1975 -0.69218,1.5523 -0.68872,3.0147 -0.74597,0.15587 -0.0757,-2.2944 0.50364,-3.3897 3.121,-2.9094 1.6941,-5.3532 3.6506,-10.516 z m 7.0949,56.311 v 0.004 l -0.037,0.0165 -0.0583,0.0329 v 0.0165 c 0.0411,-0.0165 0.0625,-0.0527 0.10816,-0.067 z m -0.43263,1.2386 v 0.0124 l 0.0288,0.0498 0.0246,0.037 c -0.0246,-0.0246 -0.0329,-0.0724 -0.0519,-0.0975 z"
       stroke-width="0.17758"
       id="path43502"
       style="display:inline" />
    <path
       d="m 124.69169,138.76752 c -2.2277,0.0124 -4.7628,1.2327 -6.9666,3.1894 -2.4515,2.1762 -4.4987,5.2916 -5.1583,8.8206 -0.13407,0.71733 -0.40634,1.6156 -0.50581,1.8077 -0.11639,0.22332 -0.19659,0.51471 -0.27639,0.86782 -0.0798,0.35328 -0.14887,0.75402 -0.18794,1.131 -0.0711,0.68551 -0.33848,1.6114 -0.66499,2.3954 -0.1641,0.39194 -0.34095,0.7506 -0.50944,1.0259 -0.16615,0.27555 -0.34341,0.46569 -0.41127,0.51072 l -0.38618,0.25663 c -0.15752,0.10487 -0.21387,0.31134 -0.12955,0.48172 l 0.42327,0.85524 c 0.30147,0.60736 0.75679,1.0693 1.3894,1.3454 0.63303,0.27596 1.4244,0.38536 2.4625,0.39893 v 0 c 0.90187,-0.0124 1.471,-0.17068 1.8431,-0.53531 0.3722,-0.36438 0.47017,-0.82529 0.62003,-1.3107 0.29942,-0.96706 0.74622,-2.2378 3.2886,-3.9235 0.24757,-0.0991 0.41834,-0.16902 0.57556,-0.32325 0.0711,-0.0691 0.12297,-0.19947 0.13819,-0.33601 0.0246,0.0124 0.0432,0.0432 0.0583,0.0498 0.0711,0.0246 0.12543,0.0329 0.17726,0.0411 0.10363,0.008 0.20522,0.008 0.33765,0.008 0.23277,0 0.66325,0.074 0.80214,0.12543 0.45935,0.17069 0.9064,0.27679 1.2721,0.31052 0.18343,0.0164 0.343,0.0205 0.50558,-0.0165 0.0822,-0.0205 0.16861,-0.0465 0.26074,-0.12173 0.0646,-0.0527 0.12297,-0.14271 0.1534,-0.23977 v -0.008 -0.008 -0.0124 c 0,-0.0288 0.0246,-0.0605 0.0246,-0.0909 v 0.0839 c 0.0329,-0.037 0.093,-0.0958 0.17274,-0.16409 0.16409,-0.14025 0.40469,-0.31627 0.65634,-0.48263 0.25129,-0.16615 0.5168,-0.32449 0.73539,-0.43644 0.15999,-0.0814 0.22127,-0.095 0.26856,-0.11392 0.0246,0.0773 0.0288,0.1678 0.0288,0.42579 0,0.46251 0,0.81218 0.037,1.139 0.0452,0.32695 0.15998,0.63537 0.37713,0.90895 0.43476,0.54723 1.1835,0.99157 2.7025,1.973 0.2118,0.13654 0.45245,0.19946 0.7481,0.2591 0.2957,0.0596 0.63715,0.102 0.99219,0.12708 0.71076,0.0498 1.4634,0.037 2.0131,-0.0917 0.25911,-0.0604 0.39565,-0.037 0.62156,0.13243 0.22579,0.17026 0.51294,0.53016 0.85891,1.1182 0.17725,0.3027 0.29282,0.49776 0.48097,0.65203 0.0625,0.0514 0.16616,0.0695 0.25951,0.0954 0,0.0452 -0.0246,0.0983 -0.0246,0.1349 0.0288,0.29777 0.15752,0.45943 0.36604,0.84849 1.1622,2.1637 2.6912,4.0588 3.0949,5.1184 0.57857,1.3127 0.85351,1.887 1.9908,3.4859 0.0288,-0.0124 0.0473,-0.0165 0.0757,-0.0288 0,0.0246 0.0246,0.037 0.0246,0.0662 0.0778,0.24388 0.18138,0.57417 0.29365,0.93198 0.48185,1.5492 1.055,2.7656 1.709,3.5431 0,0.008 0.0246,0.0123 0.0246,0.0205 0.89176,0.91175 1.3634,1.3872 1.6572,1.6668 0.29405,0.27966 0.42587,0.3759 0.5736,0.48258 0.0246,0.0124 0.0329,0.0246 0.0539,0.0329 0.45661,0.22619 0.70065,0.36562 1.009,0.39523 0.30804,0.0288 0.55073,-0.10076 0.83821,-0.2554 0.38002,-0.20481 0.79585,-0.54226 1.1116,-0.84886 0.15752,-0.1534 0.28584,-0.28995 0.38002,-0.43418 0.0473,-0.0719 0.1057,-0.12873 0.11227,-0.30804 0,-0.0329 -0.037,-0.0777 -0.0519,-0.12174 0.037,-0.0514 0.0736,-0.10364 0.10363,-0.15299 0.0206,-0.0246 0.0288,-0.037 0.0329,-0.0419 0.0473,-0.008 0.11681,0.0246 0.14888,0.0123 0.0798,-0.0288 0.12955,-0.0629 0.17931,-0.0991 0.0971,-0.0716 0.1859,-0.15752 0.28214,-0.26034 0.0585,-0.0641 0.12543,-0.14436 0.19,-0.22044 v -2.1e-4 c 0,-2.4e-4 2e-4,-2.4e-4 0,0 -0.037,-0.41086 -0.0539,-0.85523 -0.0539,-1.2865 v -0.004 -0.0863 -0.004 -0.49372 -0.12956 -0.001 c 0,-0.18177 0.0246,-0.35533 0.0329,-0.50738 0,-0.0888 0.0246,-0.17767 0.0329,-0.26691 0,-0.0288 0,-0.0542 0.0246,-0.0819 0.0246,-0.0637 0.0246,-0.12791 0.037,-0.19165 h 2e-4 c 0,-0.0246 0.0205,-0.0485 0.0205,-0.0724 v -0.0124 c 0.0246,-0.0736 0.0329,-0.14724 0.0539,-0.22044 v -0.008 -0.0246 -0.0124 c 0.0246,-0.0946 0.0539,-0.18836 0.0863,-0.28296 v -0.0165 c 0.0246,-0.0765 0.0539,-0.15258 0.0843,-0.22866 0.0452,-0.12133 0.095,-0.24183 0.15134,-0.36193 0.0205,-0.0473 0.0452,-0.0942 0.0691,-0.14147 v -0.001 c 0.037,-0.0798 0.0778,-0.15958 0.12091,-0.23854 v -0.001 c 0.0288,-0.0547 0.0539,-0.10899 0.0863,-0.16245 0.0564,-0.10447 0.12091,-0.20852 0.1859,-0.31133 v -0.001 c 0.0411,-0.0657 0.0843,-0.13079 0.12544,-0.19576 0.0329,-0.0502 0.0691,-0.10035 0.0991,-0.15012 v -0.001 c 0.0971,-0.14271 0.20317,-0.28336 0.31051,-0.4218 v -0.001 c 0.0246,-0.0124 0.0246,-0.0288 0.0329,-0.0411 v 0 c 0.067,-0.0819 0.1316,-0.16203 0.19864,-0.24182 0.0206,-0.0164 0.0288,-0.037 0.0452,-0.0527 0.13613,-0.15874 0.27966,-0.3138 0.4287,-0.46477 v -0.008 c 0.0798,-0.0814 0.16205,-0.16122 0.24595,-0.24018 0.0995,-0.46602 0.0477,-0.87585 -0.2776,-1.1749 0.0909,-0.0165 0.19864,-0.0835 0.25704,-0.16286 0.11885,-0.15998 0.0929,-0.27967 0.0822,-0.36604 -0.0246,-0.0863 -0.0329,-0.16081 -0.0605,-0.24018 -0.11227,-0.31791 -0.33395,-0.73177 -0.60971,-1.2041 -0.5233,-0.89612 -1.19,-1.8793 -1.6163,-2.3915 0,-2.2334 -0.25746,-4.986 -0.74576,-7.5281 -0.49587,-2.5833 -1.2112,-4.9293 -2.2377,-6.3034 l -2.9975,-4.0135 c -0.20933,-0.56159 -0.6721,-0.98745 -1.2248,-1.3141 -0.57644,-0.34052 -1.2643,-0.5842 -1.9602,-0.75475 -0.69567,-0.17069 -1.3984,-0.2661 -2.0019,-0.29406 -0.6032,-0.0288 -1.0846,-0.008 -1.4543,0.13736 -0.44967,0.17849 -0.92329,0.5101 -1.3952,0.85998 -0.47188,0.34998 -0.93494,0.72037 -1.2865,0.96536 -0.841,0.58635 -1.6634,0.90468 -2.5368,1.9798 -0.54383,0.66988 -1.1466,1.2504 -1.7405,1.8512 0.0329,-0.19536 0.0246,-0.35617 0.0691,-0.58187 0.12544,-0.63015 0.2591,-1.3992 0.21674,-2.4378 -0.0711,-1.68 -0.55185,-2.9274 -0.74749,-3.3956 -0.73407,-1.7567 -2.1062,-2.7013 -3.7009,-2.896 -0.22331,-0.0288 -0.45288,-0.0411 -0.68443,-0.0411 -0.0246,-4e-5 -0.0329,-4e-5 -0.0519,0 z m -0.86367,16.78 v 0.008 z"
       fill="#aa0000"
       opacity="0.7"
       stroke-width="0.17391"
       id="path43504"
       style="display:inline" />
    <path
       d="m 185.19169,104.66752 c -1.5211,1.4292 -1.7483,-0.29817 -2.4388,1.1267 -1.2731,-0.0452 -2.9998,1.679 -3.6654,2.8511 -1.674,1.8813 -0.37057,5.715 -2.0986,7.7431 -2.7081,2.4969 -0.0329,6.1795 0.57405,8.946 -1.1764,1.5565 -0.24511,1.6258 -1.1622,3.3625 -1.6513,1.7764 -2.3081,2.1933 -4.4181,3.5178 -1.3702,1.2859 -4.1871,1.8037 -4.2773,2.7176 -1.6863,1.054 -2.5843,2.3142 -3.5612,3.736 -1.5144,1.5274 -1.807,2.5915 -2.534,3.8322 -1.8193,2.7246 -1.3429,6.2326 -1.2844,9.3898 0,3.5636 -0.28913,7.2659 -0.27473,10.739 0.0736,1.141 -0.095,1.8782 -0.32161,2.5186 0.4315,-0.0246 0.86692,0.19453 1.0576,0.29077 0.23031,0.11639 0.53864,0.21469 0.68226,0.23319 0.32943,0.0432 0.8494,0.19453 1.1425,0.33806 0.18589,0.0917 0.36973,0.23772 0.53712,0.39647 0.25252,0.0502 0.48423,0.13818 0.65979,0.25869 0.12956,0.0893 0.42008,0.27884 0.64036,0.41987 0.50495,0.32243 1.2704,0.92169 1.7632,1.3761 0.16616,0.153 0.45031,0.40427 0.63217,0.55883 1.1775,0.99877 2.6139,4.4474 2.5876,6.0803 -0.0246,0.72746 -0.10569,1.6449 -0.28048,2.2813 0.64639,1.3352 0.63084,2.7669 -0.065,4.1028 -0.12296,1.4336 -0.59888,2.7727 -1.1444,4.0943 -0.1859,0.79383 -0.49912,1.4884 -0.89414,2.1329 -0.55958,1.3737 -1.0358,2.7713 -1.1062,4.2802 0.13407,3.3933 1.9625,1.537 12.328,2.2827 11.037,-0.50998 18.678,5.986 17.935,-5.5482 -0.45873,-3.3671 -1.8658,-6.4102 -1.8658,-9.8594 -0.1316,-3.3088 -1.6088,-4.9103 -2.0621,-7.8057 -0.14889,-1.7072 -0.15135,-3.4224 -0.21386,-5.134 0.94789,2.0393 2.5949,4.1339 4.9414,4.1296 3.1322,-0.30063 3.3095,-3.8952 4.7462,-6.3002 1.6446,-2.2225 3.9298,-4.8929 3.4581,-7.6201 0.43695,-2.8405 1.112,-3.1702 1.7226,-6.111 0.70709,-3.1727 0.67834,-6.7284 -0.37056,-9.7004 -1.123,-2.45 -1.1146,-3.4799 -3.7158,-4.8814 -1.6397,-1.27 -2.5847,-1.3603 -4.6442,-0.92243 -1.83,0.58676 -4.233,2.4914 -5.5559,1.1358 -2.2154,-0.89471 -1.7303,-0.83462 -4.1456,-1.4978 -0.69003,1.0003 -0.28665,-1.2902 1.6904,-1.033 2.2148,-0.73921 1.9384,-3.6855 3.0733,-5.2689 0.42804,-3.5372 1.5824,-7.0732 1.3839,-10.68 1.0777,-2.2514 -0.0885,-4.7889 0.24759,-6.5832 -0.96257,-1.3831 -2.7361,-2.7135 -3.3219,-3.9947 -2.2988,-0.44824 -4.3062,-2.1627 -6.6763,-1.489 -0.0736,-0.38249 0.9643,-0.0436 0.29447,-0.44249 z m -22.539,61.708 -0.0246,0.008 h -0.0246 c 0.0519,-0.008 0.0909,0.0124 0.14271,0.008 v -0.004 l -0.0329,-0.004 -0.0288,-0.004 h -0.0246 z"
       stroke-width="0.16754"
       id="path43506"
       style="display:inline" />
    <path
       d="m 169.36169,133.34752 -1.2358,0.7247 -2.5545,2.1414 c 0,0 -1.7993,2.3494 -2.3668,3.2952 -0.56735,0.94572 -2.5528,3.4565 -2.6353,4.4427 -0.0843,0.98619 -0.55245,3.6379 -0.63668,5.2578 -0.0844,1.6199 -0.11886,8.1806 -0.11886,8.1806 l 7.1746,0.18096 c 0.92762,0.0852 8.77,4.5513 8.3698,7.3187 l -2.8279,4.37 -4.833,0.82884 c 0.0519,0.0843 0.10571,0.17273 0.15752,0.26238 0,0.0124 0.0246,0.0246 0.0246,0.037 0.0539,0.0925 0.1057,0.18672 0.15752,0.28337 2.1e-4,2e-4 0,2e-4 0,0 v 0.001 c 0.1641,0.30639 0.32203,0.63175 0.46864,0.96715 v 0.008 0.004 c 0.0452,0.10651 0.0909,0.21344 0.13613,0.32161 0,0.0165 0.0246,0.0329 0.0246,0.0469 0.12296,0.30516 0.23606,0.61182 0.33477,0.9145 0.0246,0.037 0.0246,0.0757 0.037,0.11352 0.0246,0.0822 0.0519,0.16327 0.0732,0.2447 0.0246,0.046 0.0246,0.0917 0.0411,0.13695 0.0246,0.0798 0.0432,0.15875 0.0646,0.23689 0.0246,0.0411 0.0246,0.0814 0.0288,0.12174 0.0329,0.13038 0.0585,0.25745 0.0822,0.38084 0.0246,0.0535 0.0246,0.10692 0.0288,0.15957 0.0246,0.0613 0.0246,0.12009 0.0246,0.1789 0,0.0519 0.0246,0.10159 0.0246,0.15176 0,0.0555 0.0246,0.11022 0.0246,0.16246 v 0.15628 0.11721 c -0.0246,0.90056 -0.15339,2.1001 -0.41641,2.6856 -0.0518,0.1168 -0.15546,0.38578 -0.22578,0.59346 -0.0246,0.0486 -0.0736,0.15835 -0.1057,0.24472 l -0.0246,0.0633 c 0,0.15217 -0.0757,0.29817 -0.15135,0.46243 -0.0473,0.10159 -0.0432,0.20646 -0.13612,0.30064 0,0.5963 -0.0736,1.337 -0.29653,1.77 l -0.0563,1.5461 c 0.0246,0.13365 0.0452,0.29158 0.067,0.47218 0.40057,0.336 3.3182,2.6799 7.037,2.7523 4.0028,0.0778 12.2,-1.2145 13.498,-1.3356 1.2982,-0.12133 5.4462,-2.9814 5.6721,-4.1169 0.22579,-1.1356 0.30846,-1.9119 0.30846,-1.9119 l -0.86216,-4.8282 c 0,0 -0.48656,-3.9313 -0.51293,-5.7395 -0.0246,-1.8081 -1.3533,-4.3624 -1.3533,-4.3624 l -0.0605,-3.828 0.13614,-1.5418 3.8383,-0.75535 0.8522,-7.8918 -5.2805,-3.5713 1.2401,-6.8382 0.8209,-1.9366 0.38617,-1.0766 -0.0583,-0.0625 c 0,0 -3.5599,-1.9297 -4.1305,-2.0134 -0.5706,-0.0835 -2.4243,0.11432 -2.4243,0.11432 l -0.45182,1.442 -0.32901,1.0865 c 0,0 0.77425,2.203 0.32243,3.3008 -0.45203,1.0979 -11.245,13.339 -12.759,12.502 -1.0645,-0.5891 -2.1258,-5.8342 -2.0038,-9.2982 0.0498,-1.4611 1.6548,-2.5938 1.3902,-2.9454 -0.24183,-0.3212 3.4603,-2.1284 3.294,-2.4476 -0.44643,-0.85848 -0.70211,-1.6226 -1.211,-1.8238 -0.69801,-0.27596 -6.0813,-2.7593 -6.0813,-2.7593 z m -0.76887,44.893 v 0.0246 0.0411 0.008 z"
       fill="#808080"
       id="path43508"
       style="display:inline" />
    <path
       d="m 199.61169,133.98752 c -1.0982,0.1279 -2.1858,0.31174 -3.0962,0.61041 -1.9926,0.65358 -3.897,1.9172 -5.115,3.6616 -0.79133,1.4312 -1.7086,3.5319 -1.8185,5.3408 -0.94271,-1.6789 -1.5386,-2.2609 -2.5502,-3.6484 -3.8288,-3.2667 -6.3682,-4.0552 -8.0418,-4.0666 -0.55784,-0.008 -1.0196,0.079 -1.4006,0.18467 -5.0643,1.8599 -6.9921,7.9533 -10.271,12 -0.56995,1.8933 -1.7079,2.4232 -2.3513,5.2407 -1.7913,3.1345 -3.3605,6.9634 -4.5632,10.998 0.37671,0.4283 0.73275,0.8909 1.0867,1.3598 0.32943,0.0469 0.83258,0.19289 1.1196,0.33395 0.18589,0.0917 0.36973,0.23771 0.53711,0.39648 0.25253,0.0502 0.48423,0.13818 0.65981,0.25869 0.12954,0.0893 0.42007,0.27924 0.64034,0.41985 0.50497,0.32245 1.2704,0.92171 1.7632,1.3761 0.16614,0.15299 0.4503,0.40428 0.63216,0.55888 0.42587,0.3615 0.88547,1.0455 1.2978,1.8464 2.3023,0.40634 4.5609,-0.76751 5.7369,-2.9119 -1.0917,0.89201 -0.0711,-0.40634 0.18795,-0.73526 1.2308,-1.9111 2.5714,-5.2388 4.4372,-5.5715 1.655,-0.98853 1.2818,-4.8756 3.5408,-3.4801 0.0246,-0.77718 0.11886,-0.78536 0.80991,-1.1127 -0.34094,-2.5446 1.7869,-1.4406 2.8664,-0.29612 0.98615,0.73675 3.0325,-0.0942 3.5383,-0.46901 0.61682,-0.60626 1.6626,-2.0947 1.5725,-3.524 0.10569,-1.027 0.15752,-2.2483 0.13818,-3.4387 0.80881,0.86768 1.9738,1.3323 3.0942,0.92486 1.5388,0.98886 0.78894,3.089 1.115,4.5477 -0.49435,1.5273 -0.52763,3.2 0.20522,4.6614 0.51919,1.5687 1.9813,2.5734 3.364,3.2859 1.4064,-0.27268 4.0968,0.065 5.0533,-0.96287 0.78203,-1.9218 2.2096,-5.7099 2.4383,-7.3226 1.0818,-4.4615 1.1796,-6.2618 1.4982,-9.5972 0.35575,-4.1577 -2.3398,-8.2901 -4.3313,-9.6249 -1.8673,-1.1957 -2.155,-1.1289 -3.7942,-1.2441 z m -36.961,32.38 -0.0246,0.008 h -0.0246 c 0.0519,-0.008 0.0909,0.0124 0.14271,0.008 v -0.004 l -0.0329,-0.004 -0.0288,-0.004 h -0.0246 z"
       fill="#aa0000"
       opacity="0.7"
       stroke-width="0.17175"
       id="path43510"
       style="display:inline" />
    <path
       id="path43512"
       style="display:inline"
       d="m 147.06182,194.67752 -26.65109,2.72179 c 0,0 -5.07226,13.57169 -7.09,20.72019 a 74.867592,74.867592 0 0 0 11.96774,7.41143 l 4.97024,-13.5723 0.46147,-1.37511 c 0,0 2.4395,-1.06721 0.72295,-0.24081 -0.82308,0.39606 -1.7926,4.81669 -2.3027,9.34568 0,0 -0.51132,3.95403 -0.92811,7.17786 a 74.867592,74.867592 0 0 0 13.41055,4.50722 l 0.40721,-2.60036 3.92845,-20.41426 0.69143,-1.51877 c 0,-0.67374 -3.1e-4,-1.26488 0.0243,-1.66708 -0.0539,-0.0552 -0.0968,-0.0981 -0.16589,-0.16795 -0.96452,-0.9437 -1.72185,-1.91441 -1.72185,-2.81791 0,0 -0.0477,-0.0877 -0.14883,-0.36536 -0.7961,-2.21279 -0.13784,-4.71986 1.62574,-5.88956 l 0.0284,-0.0326 c 0.0288,-0.056 0.0248,-0.0863 0.0475,-0.14676 0.18589,-0.29941 0.26168,-0.65253 0.58498,-0.76946 z m -0.36432,9.94771 -0.0372,0.28939 0.0207,0.0413 c 0,-0.0827 0.0243,-0.22698 0.0243,-0.33021 z" />
    <g
       id="g43520"
       style="display:inline"
       transform="translate(-93.538312,-110.20248)">
      <path
         d="m 213.52,258.09 -3.0532,14.758 c 0,0 -0.25993,1.4756 -0.14888,1.954 0.11228,0.47831 0.26403,1.5003 0.65956,2.6734 0.39523,1.1732 1.2332,2.7105 1.2332,2.7105 0,0 0.59284,0.58392 0.39605,2.3623 -0.19864,1.7785 -0.0884,7.0053 0.25458,7.5993 0.34301,0.594 1.342,5.137 1.2865,7.2207 -0.0539,2.0837 -0.13407,6.1738 -0.33395,7.6314 -0.19864,1.4576 0.0711,2.9948 0.97965,3.2157 0.9073,0.22086 2.8807,1.0138 4.3592,1.0138 1.4781,0 8.7296,0.95603 12.525,-0.056 3.7962,-1.0116 7.5824,-2.4692 8.8302,-4.0221 1.2483,-1.553 1.3533,-1.3571 1.0386,-2.0977 -0.31503,-0.74065 -1.2161,-3.815 -1.3539,-4.2153 -0.13613,-0.40016 -2.7846,-6.146 -2.7846,-6.146 0,0 -1.922,-5.5417 -1.9079,-6.0014 0.0205,-0.45955 -0.14682,-3.5719 -0.14682,-3.5719 l -2.8029,-6.987 -5.1054,-7.0048 -4.013,-0.32819 -3.0236,-2.1993 -1.5664,-3.7323 -4.3194,2.2072 z"
         fill="#808080"
         id="path43514" />
      <path
         d="m 293.15,244.19 c -1.0982,0.1279 -2.1858,0.31174 -3.0962,0.61041 -1.9926,0.65358 -3.897,1.9171 -5.115,3.6616 -0.79133,1.4312 -1.7086,3.5319 -1.8185,5.3408 -0.94271,-1.6789 -1.5386,-2.2609 -2.5502,-3.6484 -3.8288,-3.2667 -6.3682,-4.0552 -8.0418,-4.0666 -0.55784,-0.008 -1.0196,0.079 -1.4006,0.18426 -5.0643,1.8599 -6.9921,7.9534 -10.271,12 -0.56995,1.8932 -1.7079,2.4232 -2.3513,5.2406 -1.7913,3.1346 -3.3605,6.9633 -4.5632,10.998 0.37671,0.42834 0.73275,0.8909 1.0867,1.3598 0.32943,0.0469 0.83258,0.19289 1.1196,0.33395 0.18589,0.0913 0.36973,0.23771 0.53711,0.39647 0.25253,0.0502 0.48423,0.13818 0.65981,0.25869 0.12954,0.0893 0.42007,0.27924 0.64034,0.41982 0.50497,0.32285 1.2704,0.92174 1.7632,1.3762 0.16614,0.15299 0.4503,0.40428 0.63216,0.55888 0.42587,0.3615 0.88547,1.0455 1.2978,1.8464 2.3023,0.40633 4.5609,-0.76748 5.7369,-2.9119 -1.0917,0.89204 -0.0711,-0.40633 0.18795,-0.73527 1.2308,-1.9111 2.5714,-5.2389 4.4372,-5.5716 1.655,-0.98862 1.2818,-4.8754 3.5408,-3.48 0.0246,-0.77717 0.11886,-0.78536 0.80991,-1.1127 -0.34094,-2.5446 1.7869,-1.4405 2.8664,-0.29611 0.98615,0.73678 3.0325,-0.0942 3.5383,-0.46902 0.61682,-0.60621 1.6626,-2.0947 1.5725,-3.524 0.10569,-1.027 0.15752,-2.2482 0.13818,-3.4387 0.80881,0.86773 1.9738,1.3323 3.0942,0.92486 1.5388,0.98881 0.78894,3.089 1.115,4.5478 -0.49435,1.5272 -0.52763,3.2 0.20522,4.6614 0.51919,1.5687 1.9813,2.5733 3.364,3.2859 1.4064,-0.27268 4.0968,0.065 5.0533,-0.96287 0.78203,-1.9218 2.2096,-5.7099 2.4383,-7.3226 1.0818,-4.4615 1.1796,-6.2618 1.4982,-9.5972 0.35575,-4.1577 -2.3398,-8.2901 -4.3313,-9.6249 -1.8673,-1.1957 -2.155,-1.1288 -3.7942,-1.244 z m -4.2922,3.0909 c 0.0288,0 0.0539,-2.3e-4 0.0863,0.008 0,0.76493 0.34054,1.477 0.6017,2.1811 0.32078,0.87345 0.71227,1.7284 0.93127,2.6331 0.0205,0.63895 -0.32038,2.6837 0.79174,2.074 1.0202,0.29734 -1.3124,0.62711 -0.53149,0.6531 1.1801,0.33889 -1.4766,0.80091 -0.48077,0.9323 0,0.38167 -1.7172,0.71624 -2.2923,0.12668 -0.84121,-0.72873 -1.0883,-1.985 -0.96888,-3.0629 0.0498,-0.27514 0.11681,-1.9585 -0.11432,-1.2592 -0.42764,1.1006 -0.0843,-0.19412 -0.48982,-0.52828 0.0246,-0.74625 0.30146,-1.6031 0.41982,-2.4079 0.66239,-0.43146 1.1755,-1.3677 2.0468,-1.3472 z m -20.062,2.185 c 0.14682,0 0,0.28048 -0.14888,0.35534 -0.51878,0.46514 0.69434,0.47547 0.58051,0.96451 -0.21922,0.5423 0.0329,1.1403 0.37344,1.5718 0.37384,0.2011 0.20932,0.51503 0.11021,0.82722 0.19001,0.61999 0.36562,1.2476 0.54275,1.8727 0.0585,0.4721 0.56323,0.7388 0.52285,1.2518 -0.0411,0.48069 0,0.96233 0.0822,1.4369 -0.0863,0.51761 -0.59737,0.76328 -0.98117,1.0431 -0.80082,0.41917 -1.2634,1.2277 -1.9213,1.8148 0.0246,0.3101 -0.34464,0.0288 -0.44406,-0.0514 -0.57618,-0.52363 -0.56993,-1.3642 -0.6127,-2.0825 0.0329,-0.35247 -0.30187,-1.0647 -0.36151,-2.3055 0.0778,-0.54756 -0.26403,-1.021 -0.42377,-1.5193 -0.23031,-0.53383 0.15135,-1.0509 0.17726,-1.5834 -0.0246,-0.46963 -0.13613,-1.2208 0.45721,-1.3813 0.0732,-0.35574 0.12296,-0.72618 0.3068,-1.0461 0.3829,-0.53468 0.98266,-0.88348 1.5876,-1.121 0.0691,-0.0329 0.11885,-0.0481 0.15135,-0.0473 z m 28.664,16.602 c -0.73861,1.5244 -2.455,1.9002 -3.9879,1.8365 -1.9042,0.58088 3.8346,-0.38823 1.4382,0.68374 -0.48099,0.0124 0.16203,-0.66815 -0.47042,-0.23895 0.0246,0.29982 0.88657,1.1288 0.0539,0.622 -0.20317,0.76423 0.22373,2.8408 -0.26486,2.6424 -0.36562,-0.18672 -1.2325,0.7671 -1.5481,-0.0629 0.37302,-0.25128 -1.4692,-0.6962 -1.8889,-0.3138 -1.0464,-0.56266 0.30022,-1.5131 0.0909,-1.4661 -1.4537,-0.8033 -0.64512,-3.6794 1.3542,-2.6896 1.4003,0.85705 3.4823,0.69599 4.677,-0.56961 l 0.26158,-0.2373 z m -34.435,7.2653 c 0.17479,0.60441 1.082,0.56315 1.5667,0.78006 -0.1641,1.0785 4.6525,-1.2654 3.7043,1.0478 -1.334,-0.16574 -1.2179,4.1422 -2.6485,2.8111 -0.0539,1.5196 -0.33271,1.4555 -1.3587,1.6294 -0.87642,-0.56607 -2.8847,0.68283 -2.9314,-0.78537 -0.63369,-0.18507 0.47408,-1.122 0.7453,-0.86281 1.8958,-0.93024 -0.43775,-3.3904 0.9222,-4.6202 z m -6.8361,3.2371 -0.0246,0.008 h -0.0246 c 0.0519,-0.008 0.0909,0.0124 0.14271,0.008 v -0.004 l -0.0329,-0.004 -0.0288,-0.004 h -0.0246 z"
         fill="#aa0000"
         stroke-width="0.17175"
         id="path43516" />
      <path
         d="m 218.23,248.97 c -2.2277,0.0124 -4.7628,1.2327 -6.9666,3.1894 -2.4515,2.1762 -4.4987,5.2916 -5.1583,8.8206 -0.13407,0.71733 -0.40634,1.6156 -0.50581,1.8077 -0.11639,0.22332 -0.19659,0.51471 -0.27639,0.86782 -0.0798,0.35328 -0.14887,0.75402 -0.18794,1.131 -0.0711,0.68551 -0.33848,1.6114 -0.66499,2.3954 -0.1641,0.39194 -0.34095,0.7506 -0.50944,1.0259 -0.16615,0.27555 -0.34341,0.46569 -0.41127,0.51072 l -0.38618,0.25663 c -0.15752,0.10487 -0.21387,0.31134 -0.12955,0.48172 l 0.42327,0.85524 c 0.30147,0.60736 0.75679,1.0693 1.3894,1.3454 0.63323,0.27596 1.4244,0.38536 2.4625,0.39893 v 0 c 0.90187,-0.0124 1.471,-0.17068 1.8431,-0.53531 0.3722,-0.36438 0.47017,-0.82525 0.62003,-1.3107 0.29942,-0.96699 0.74622,-2.2378 3.2886,-3.9235 0.24757,-0.0995 0.41834,-0.16902 0.57556,-0.32325 0.0711,-0.0691 0.12297,-0.19947 0.13819,-0.33601 0.0246,0.0124 0.0432,0.0432 0.0583,0.0498 0.0711,0.0246 0.12543,0.0329 0.17726,0.0411 0.10363,0.008 0.20522,0.008 0.33765,0.008 0.23277,0 0.66325,0.074 0.80214,0.12543 0.45935,0.17069 0.9064,0.27679 1.2721,0.31052 0.18343,0.0164 0.343,0.0205 0.50558,-0.0165 0.0822,-0.0205 0.16861,-0.0465 0.26074,-0.12173 0.0646,-0.0527 0.12297,-0.14271 0.1534,-0.23977 v -0.008 -0.008 -0.0124 c 0,-0.0288 0.0246,-0.0605 0.0246,-0.0909 v 0.0839 c 0.0329,-0.037 0.093,-0.0958 0.17274,-0.16409 0.16409,-0.14025 0.40469,-0.31627 0.65634,-0.48263 0.25129,-0.16615 0.5168,-0.32449 0.73539,-0.43644 0.15999,-0.0814 0.22127,-0.0954 0.26856,-0.11392 0.0246,0.0773 0.0246,0.1678 0.0246,0.42579 0,0.46247 0,0.81213 0.037,1.139 0.0432,0.32695 0.15998,0.63533 0.37714,0.90895 0.43495,0.54723 1.1838,0.99157 2.7027,1.973 0.2118,0.13654 0.45223,0.19946 0.74814,0.2591 0.2957,0.0596 0.6371,0.102 0.9924,0.12708 0.71075,0.0498 1.4632,0.037 2.0128,-0.0917 0.25909,-0.0604 0.39563,-0.037 0.62156,0.13243 0.22578,0.17026 0.51317,0.53016 0.85892,1.1182 0.17726,0.3027 0.29242,0.49776 0.48099,0.65203 0.0626,0.0514 0.16615,0.0695 0.25992,0.0954 0,0.0452 -0.0288,0.0983 -0.0246,0.1349 0.0288,0.29777 0.15752,0.45943 0.36604,0.84849 1.1622,2.1637 2.6912,4.0588 3.0949,5.1184 0.57837,1.3127 0.85331,1.887 1.9908,3.4859 0.0288,-0.0124 0.0473,-0.0165 0.0778,-0.0288 0,0.0246 0.0246,0.037 0.0246,0.0666 0.0777,0.24389 0.18136,0.57409 0.29405,0.93199 0.4816,1.5491 1.0546,2.7655 1.709,3.543 0,0.008 0.0205,0.0124 0.0205,0.0206 0.89176,0.9117 1.3634,1.3873 1.6574,1.6668 0.29365,0.27967 0.42521,0.37591 0.57339,0.48263 0.0246,0.0124 0.0329,0.0246 0.0539,0.0329 0.45655,0.2262 0.70038,0.36562 1.009,0.39523 0.30845,0.0288 0.55094,-0.10077 0.83818,-0.2554 0.38,-0.20481 0.79609,-0.5423 1.112,-0.84887 0.15752,-0.1534 0.28542,-0.28993 0.38001,-0.43417 0.0473,-0.0719 0.1057,-0.12872 0.11228,-0.30805 0,-0.0329 -0.037,-0.0781 -0.0518,-0.12173 0.037,-0.0514 0.0736,-0.10364 0.10363,-0.15299 0.0246,-0.0246 0.0288,-0.037 0.0329,-0.0419 0.0473,-0.008 0.1168,0.0246 0.14888,0.0124 0.0798,-0.0288 0.12954,-0.0629 0.17726,-0.0987 0.097,-0.0716 0.18588,-0.15751 0.28254,-0.26033 0.0585,-0.0654 0.12543,-0.139 0.19001,-0.21592 -0.0246,-0.2373 -0.037,-0.48426 -0.0452,-0.73724 -0.41312,0.52903 -0.74723,0.90385 -0.74723,0.83554 0,-0.0703 0.25457,-0.46655 0.56521,-0.88102 0.0604,-0.079 0.11638,-0.15752 0.17478,-0.23895 v -0.72926 c -0.10815,0.1715 -0.21385,0.34135 -0.34053,0.53546 -1.057,1.6448 -0.89821,1.6565 -2.044,-0.1534 -1.1261,-1.7782 -1.1243,-1.8003 0.32697,-3.7517 1.3798,-1.8555 2.1357,-3.4987 2.3135,-5.0296 0.0691,-0.59158 0.13407,-0.99796 0.15999,-1.0139 0,1.2e-4 0,0.008 0.0205,0.0329 0.19206,1.2071 1.2399,2.11 1.5014,2.7887 0.48423,0.71722 0.31627,0.82395 0.0884,1.785 l -0.0246,0.0811 c 0.15998,-0.1752 0.33025,-0.34341 0.50492,-0.50776 0.0995,-0.46601 0.0477,-0.87584 -0.2772,-1.1749 0.0909,-0.0165 0.19865,-0.0835 0.25663,-0.16287 0.11886,-0.15957 0.093,-0.27967 0.0822,-0.36603 -0.0246,-0.0863 -0.0329,-0.16081 -0.0626,-0.24018 -0.11228,-0.31791 -0.33355,-0.73177 -0.60971,-1.2041 -0.52305,-0.89613 -1.19,-1.8794 -1.6163,-2.3915 0,-2.2334 -0.25704,-4.986 -0.7453,-7.5282 -0.49607,-2.5833 -1.2116,-4.9293 -2.2379,-6.3034 l -2.9975,-4.0136 c -0.20934,-0.56154 -0.67231,-0.98742 -1.2248,-1.3141 -0.57618,-0.34052 -1.2643,-0.58416 -1.9604,-0.75472 -0.69565,-0.17067 -1.398,-0.26608 -2.0016,-0.29405 -0.60297,-0.0288 -1.085,-0.008 -1.4543,0.13736 -0.44965,0.17849 -0.9235,0.51006 -1.3952,0.85996 -0.47189,0.35 -0.93494,0.72039 -1.2865,0.96538 -0.84077,0.58631 -1.6638,0.90463 -2.5368,1.9798 -0.54424,0.66992 -1.1468,1.2504 -1.741,1.8513 0.0329,-0.19535 0.0246,-0.35616 0.0691,-0.58187 0.12545,-0.63015 0.25911,-1.3992 0.21386,-2.4378 -0.0711,-1.68 -0.55158,-2.9274 -0.74723,-3.3955 -0.73411,-1.7567 -2.106,-2.7014 -3.7009,-2.896 -0.22374,-0.0288 -0.45289,-0.0411 -0.68444,-0.0411 -0.0246,-8e-5 -0.0329,-8e-5 -0.0519,0 z m -5.5578,8.2439 h 2.5e-4 v 0 c 0,-1.3e-4 0,0 0.0246,0 0.3759,0 0.16409,0.3138 -0.50644,0.75937 -0.73108,0.48369 -0.87707,0.53897 -0.86799,0.32779 0.0246,-0.36891 0.89584,-1.07 1.3574,-1.0871 z m 1.8462,1.913 v 0 c 0.0473,0 0.0864,0.037 0.0864,0.0868 0,0.0481 -0.037,0.0868 -0.0864,0.0868 -0.0477,0 -0.0884,-0.037 -0.0884,-0.0868 0,-0.0452 0.0329,-0.0835 0.0798,-0.0868 z m 0.61551,0.0288 2e-4,1.6e-4 c 0,-1.6e-4 0.0246,1.2e-4 0.0246,0 0.30517,0.008 0.90862,0.26856 0.973,0.46157 0.10158,0.30475 -0.74643,0.2558 -1.0073,-0.0585 -0.12091,-0.14558 -0.17274,-0.31091 -0.11886,-0.36602 0.0246,-0.0246 0.067,-0.037 0.12092,-0.037 z m 1.9081,1.0147 v 0 c 0.14888,0 0.34917,0.0975 0.41276,0.26281 0.0539,0.1497 0,0.26074 -0.12751,0.26074 -0.25827,0 -0.45827,-0.16451 -0.45827,-0.37672 0,-0.0946 0.0691,-0.14024 0.15751,-0.14601 v 0 z m -2.3962,2.8256 c 0.0205,0 0.0645,0.0637 0.13613,0.17931 0.10816,0.16944 0.16614,0.56064 0.12749,0.86955 -0.0539,0.43677 -0.0778,0.46494 -0.0995,0.12667 -0.0246,-0.23895 -0.0736,-0.63048 -0.12543,-0.86955 -0.0411,-0.18713 -0.0583,-0.28541 -0.0452,-0.30351 z m 7.2236,1.1802 c 0,-2e-5 -2.1e-4,0 0,0 v 0 0 c 0.20728,0 0.38207,0.056 0.38207,0.18138 0,0.10487 0.14888,0.13902 0.33807,0.0786 0.24182,-0.077 0.42072,0.0206 0.62891,0.33601 0.15999,0.24388 0.49114,0.54119 0.73585,0.6607 0.49628,0.24224 0.71659,0.65215 0.3504,0.65215 -0.12955,0 -0.39112,-0.10528 -0.57989,-0.23401 -0.19001,-0.12873 -0.73408,-0.33025 -1.2125,-0.44808 -1.0576,-0.26033 -1.5656,-0.65504 -1.2822,-0.99655 0.1168,-0.13901 0.37097,-0.21838 0.59696,-0.22908 h 0.0288 z m 13.502,0.43045 c 0,-9e-5 0,1.2e-4 0.0246,0 0.48591,-0.008 0.89323,0.16409 0.98355,0.49142 0.35822,1.303 -1.8034,4.6254 -3.0224,4.645 -0.2118,0.008 -0.5803,0.11803 -0.81937,0.25458 -0.89004,0.5087 -1.3922,0.0641 -1.3896,-1.2309 0,-1.3575 0.6317,-2.498 1.6703,-3.0291 0.46733,-0.23895 1.0675,-0.57875 1.3334,-0.7551 0.36274,-0.24018 0.80256,-0.36315 1.1965,-0.37508 0.0246,-2.1e-4 0.0246,0 0.037,0 z m -18.005,1.1451 v 0.008 z m 8.3583,0.89463 v 10e-4 h 2.1e-4 c 0,-1.3e-4 0,0 0.0246,0 0.17479,0 0.35492,0.13818 0.35492,0.31421 0,0.2114 -0.47082,0.21304 -0.60127,0 -0.0539,-0.0888 -0.0246,-0.21181 0.0777,-0.27144 0.0477,-0.0288 0.10364,-0.0436 0.15998,-0.0449 z m -3.4406,0.16575 c 0.12954,-0.008 0.34917,0.0678 0.67468,0.20193 0.38372,0.15835 1.0101,0.41752 1.3928,0.57545 0.38249,0.15793 0.69563,0.35369 0.69563,0.43467 0,0.19906 -0.0246,0.19494 -0.60881,-0.20029 -0.55245,-0.36562 -1.4784,-0.47091 -1.4784,-0.16779 0,0.27021 -0.63126,-0.1094 -0.76624,-0.46084 -0.0971,-0.25374 -0.0822,-0.37796 0.0844,-0.38288 v 0 z m 4.6274,0.83812 v 0 c 0.20933,0 0.45548,0.32985 0.33519,0.45055 -0.0432,0.044 -0.17932,-0.0411 -0.29941,-0.18548 -0.13161,-0.15875 -0.15135,-0.25787 -0.0473,-0.26527 z m -2.9558,0.54148 v 0 c 0,-1.6e-4 0.0246,0 0.0246,0 0.0583,0 0.11227,0.0165 0.14024,0.0473 0.0563,0.058 -0.0432,0.0991 -0.22826,0.0913 -0.20317,-0.008 -0.24429,-0.0502 -0.1057,-0.10569 0.0519,-0.0206 0.10817,-0.0329 0.15998,-0.0329 z m 1.3043,0 h 4.1e-4 v 0 c 0.0909,0 0.12544,0.0506 0.12544,0.15299 0,0.0958 -0.21386,0.16822 -0.47839,0.16163 -0.42374,-0.008 -0.43842,-0.0288 -0.12955,-0.16163 0.2299,-0.0987 0.38042,-0.14969 0.47362,-0.15299 z m -21.075,0.96566 v 0 c 0.12091,0 0.26938,0.0691 0.41682,0.23196 0.26404,0.29201 0.27268,0.34013 0.0452,0.25293 -0.20071,-0.0769 -0.29777,0.008 -0.34136,0.29694 l -0.0585,0.4047 -0.23072,-0.41136 c -0.23978,-0.42847 -0.0995,-0.76636 0.16204,-0.77512 z m 38.102,6.0416 c 0.0246,0 0.0288,0.008 0.0432,0.0288 0.0647,0.0641 0.0647,0.16821 0,0.23196 -0.0645,0.0637 -0.11679,0.0124 -0.11679,-0.11598 0,-0.0329 0.0246,-0.0678 0.0246,-0.10241 0.0205,-0.0288 0.0288,-0.0428 0.0539,-0.037 z m -0.16409,0.83826 v 0 c 0.0473,0 0.0863,0.0411 0.0863,0.0872 0,0.0481 -0.037,0.0872 -0.0863,0.0872 -0.0477,0 -0.0863,-0.037 -0.0863,-0.0872 0,-0.0452 0.037,-0.0835 0.0798,-0.0872 z m -0.34095,0.86967 v 2e-4 c 0.0473,0 0.0863,0.0411 0.0863,0.0868 0,0.0473 -0.037,0.0872 -0.0863,0.0872 -0.0473,0 -0.0885,-0.037 -0.0885,-0.0872 v -0.0246 -0.0165 c 0.0246,-0.0246 0.0411,-0.0436 0.0736,-0.044 z m -0.18137,0.34465 v 0 c 0.0473,0 0.0863,0.037 0.0863,0.0868 0,0.0473 -0.037,0.0872 -0.0863,0.0872 -0.0473,0 -0.0863,-0.037 -0.0863,-0.0872 v -0.008 c 0,-0.0205 0.0205,-0.0411 0.0288,-0.0592 0.0246,-0.0124 0.0329,-0.0206 0.0519,-0.0246 z m -0.16862,0.35081 c 0.0473,0 0.0863,0.037 0.0863,0.0868 0,0.0482 -0.037,0.0872 -0.0863,0.0872 -0.0473,0 -0.0885,-0.037 -0.0885,-0.0872 0,-0.008 2e-4,-0.008 0,-0.0165 0,-0.0164 0.0246,-0.0329 0.0246,-0.0469 0.0246,-0.0165 0.037,-0.0246 0.0585,-0.0246 z m -0.1534,0.34793 c 0.0477,0 0.037,0.0786 -0.0205,0.17397 -0.0585,0.0958 -0.14683,0.17397 -0.19454,0.17397 -0.0246,0 -0.0329,-0.0246 -0.0288,-0.0572 0.037,-0.0695 0.0798,-0.13777 0.12091,-0.20769 0.0452,-0.0494 0.093,-0.0822 0.12297,-0.0827 z m -0.36809,0.5217 c 0.0473,0 0.0885,0.037 0.0885,0.0868 0,0.0473 -0.0411,0.0872 -0.0885,0.0872 -0.037,0 -0.067,-0.0206 -0.0798,-0.0527 0.0206,-0.0411 0.0473,-0.0794 0.0711,-0.12009 z m -0.32696,0.52207 c 0.0452,0 0.037,0.0786 -0.0205,0.17355 -0.0605,0.0958 -0.14683,0.17397 -0.19454,0.17397 h -0.0246 c 0.0757,-0.11022 0.15134,-0.22332 0.22866,-0.34464 z m -0.47189,0.68492 c -0.0329,0.12339 -0.11433,0.24718 -0.20933,0.30599 -0.0246,0.008 -0.0329,0.0246 -0.0539,0.0485 0.0563,-0.077 0.11228,-0.1534 0.17274,-0.23236 0.0288,-0.037 0.0604,-0.0827 0.0884,-0.12216 z m -0.39236,5.7927 c 0.11887,0 0.21387,0.008 0.28131,0.0246 -0.0246,0.69994 -0.75134,1.2401 -1.2924,0.94008 -0.3759,-0.20852 -0.66194,-0.49122 -0.75719,-0.71269 0.0246,-0.008 0.0411,-0.0124 0.0645,-0.0165 0.78464,-0.15381 1.3552,-0.23235 1.7038,-0.23524 z m 0.65981,1.1481 c 0.0539,0.0485 0.095,0.0962 0.095,0.12338 0,0.11515 -0.0971,0.0938 -0.19864,-0.0206 0.0246,-0.0123 0.0246,-0.0205 0.0329,-0.0329 0.0246,-0.0246 0.0432,-0.0452 0.0691,-0.0686 z m -0.66931,0.6331 c 0.0864,0.0481 0.0539,0.0634 -0.0929,0.0711 0.0288,-0.0205 0.0604,-0.0469 0.0929,-0.0711 z"
         fill="#aa0000"
         stroke-width="0.17391"
         id="path43518" />
    </g>
    <path
       id="path43522"
       style="display:inline"
       d="m 195.33329,184.69621 -0.002,0.002 v 0.008 l -22.76295,3.04787 -5.83685,0.85731 c -0.7071,2.0772 -1.19963,2.17651 -1.79163,3.19361 l 0.91468,2.36161 c 1.0267,0.92726 2.00042,2.67909 2.14302,3.82819 l 0.0584,0.14935 v 0.008 c 0.26157,0.70253 0.27227,1.02949 0.63562,2.11099 0.40799,1.20679 0.88846,3.79814 1.24075,6.41304 l 0.43874,0.94568 0.0992,0.38654 c 0.0757,0.0246 0.17096,0.0604 0.25734,0.078 0,-0.001 -3.1e-4,-0.008 0.0243,-0.008 l -0.0884,-0.0284 h 0.11885 c 0.20521,-0.10569 0.41253,-0.16261 0.55656,-0.16795 0.0452,-0.001 0.12091,0.037 0.17725,0.0419 0.20522,-0.33436 0.41596,-0.62903 0.78289,-0.90692 v -0.004 l 0.0413,-0.045 c 0.0329,-0.26773 0.0818,-0.53849 0.23719,-0.81494 v -0.004 -0.004 -5.2e-4 c -0.57491,-0.64437 -0.5723,-1.16801 -0.44855,-2.17661 0.0519,-0.42587 0.091,-0.92058 0.091,-1.05627 4.5e-4,-0.25786 0.0733,-0.49523 0.15968,-0.72295 -0.16204,-0.31216 -0.26432,-0.66049 -0.29352,-0.89142 -0.0246,-0.16287 -0.0563,-0.33021 -0.0563,-0.33021 -0.31915,-1.019 0.78104,-2.92514 1.61127,-3.54604 1.5842,-1.1847 4.0262,-0.21898 5.0183,1.56683 0.3722,0.10858 0.82157,0.28503 1.40922,0.56482 0.27349,-0.0124 0.59847,0.0167 1.02629,0.16795 0.98397,0.343 2.4411,2.24623 2.8422,3.31763 0.57318,1.5315 0.87404,4.98496 0.46561,6.28385 -1.1863,3.7743 -3.69872,5.99387 -7.05642,5.73867 -0.13614,-0.008 -0.25002,-0.0331 -0.37259,-0.0512 l -0.8387,0.1695 -1.07642,0.65164 c -0.38042,0.7581 -1.37401,0.9991 -2.32751,0.91829 l 2.74402,10.66963 v 5.2e-4 l 0.97151,3.6251 a 74.867592,74.867592 0 0 0 12.15482,-4.16667 c -0.13495,-6.56343 -4.1336,-28.08511 -4.1336,-28.08511 0,0 0.60386,0.86807 1.11983,3.71037 0.39811,2.1927 4.05015,13.3969 4.24005,18.64589 l 0.21652,5.09943 a 74.867592,74.867592 0 0 0 11.59981,-6.74532 c 0.0516,-3.06469 -0.0512,-4.59197 -0.0512,-4.59197 -1.49319,-10.25399 -5.83608,-29.92314 -6.23527,-30.21314 0,-0.001 -2.1e-4,-0.004 -0.0248,-0.001 z m -16.83153,14.24616 0.0879,0.0331 0.0243,0.008 c -0.0301,-0.008 -0.0751,-0.0289 -0.11214,-0.0413 z m -7.44037,9.23872 v 10e-4 c 0.0246,0.008 0.0327,0.008 0.0475,0.0124 z" />
    <path
       d="m 158.46169,166.05752 c -1.0323,-0.0165 -2.0463,0.17644 -2.8186,0.55423 -0.34835,0.17068 -0.93906,0.44919 -1.3127,0.61895 -2.3729,1.0786 -4.2445,3.3586 -4.4363,5.4049 -0.10364,1.1105 -0.0246,3.0638 0.14683,3.3271 0.0691,0.11022 0.11886,0.35451 0.11433,0.54329 -0.0246,0.33971 -0.0246,0.34012 -0.0798,0.0711 -0.067,-0.25416 -0.0711,-0.25663 -0.0798,-0.0436 0,0.12543 0.0736,0.5221 0.16862,0.88159 0.0995,0.35945 0.18137,0.75444 0.18137,0.87782 0,0.29941 0.25745,1.0534 0.42353,1.2411 0.11885,0.13366 0.11432,0.1567 -0.0452,0.20646 -0.30721,0.0975 -0.42653,0.53935 -0.28995,1.0728 0.1057,0.41369 0.23689,0.73778 0.82003,2.0302 0.33684,0.74587 1.0045,1.2999 1.8103,1.5014 0.34382,0.086 1.4139,3.2599 1.3226,3.924 -0.0604,0.45599 -0.63171,1.7726 -0.84188,1.947 -0.067,0.0552 -0.12091,0.14395 -0.12091,0.19741 0,0.0411 0.037,0.0329 0.095,-0.008 l -1.6448,1.8466 c -0.0329,0.008 -0.0604,0.0246 -0.0884,0.037 -0.42008,0.21427 -0.45701,0.29158 -0.11022,0.22784 0.13613,-0.0246 0.0863,0.008 -0.11434,0.079 -0.68509,0.23525 -1.6839,0.90895 -1.8738,1.2639 -0.0498,0.0929 -0.0605,0.15711 -0.037,0.19412 -0.12298,0.12872 -0.28255,0.32572 -0.31709,0.52609 -0.0205,0.0727 -0.037,0.16122 -0.067,0.255 0,0.008 -0.0246,0.0206 -0.0246,0.0329 v 0.008 c -0.0329,0.10611 -0.0736,0.21715 -0.11434,0.31955 0,-0.008 -0.0205,-0.008 -0.0205,-0.008 -0.0246,0 -0.0452,0.0205 -0.0452,0.0452 0,0.0246 0.0246,0.0411 0.037,0.0428 -0.0288,0.0699 -0.0519,0.13079 -0.0736,0.18342 v -0.008 c 0,-0.0124 -0.0519,0.0572 -0.12091,0.1863 -0.15751,0.30146 -0.17932,0.31215 -0.62698,0.2883 -0.45721,-0.0246 -1.0401,0.14517 -1.1587,0.33724 -0.0246,0.0246 0,0.0329 0.0452,0.0329 l -0.25006,0.32572 c -1.4682,0.83365 -2.1092,2.9382 -1.4094,4.8838 0.11227,0.31134 0.20317,0.62213 0.20317,0.6904 0,0.47 0.5106,1.2293 1.4336,2.1329 0.17726,0.17396 0.29077,0.2883 0.41682,0.41402 0,0.0498 0.0246,0.10199 0.0246,0.15011 -0.1316,0.31298 0.10816,5.9918 0.31544,7.3182 0.0498,0.32326 0.14683,1.4234 0.20934,2.4447 0.10816,1.699 0.0452,2.2178 0.31791,3.0048 0.16409,0.47312 0,1.0736 0,1.1234 -0.30928,4.288 -0.80535,5.3487 -1.0803,6.0555 v 2.1e-4 c 0,0.0123 0.15341,0.0205 0.37302,0.0288 v 0.088 h 21.218 v -0.0852 c 0.39441,0.27925 -2.407,-0.32489 0.15751,-0.0752 l 0.0432,-0.92758 c -0.24882,-1.852 0.0329,-2.0381 0.33394,-3.0536 0.44253,-0.48991 0.48662,-0.74593 0.55353,-3.2161 0.0757,-2.842 -0.13407,-2.6432 2.0394,-1.9375 1.0738,0.34876 2.1172,0.11968 2.1679,-0.46013 l 1.5176,-0.91837 1.1513,-0.2336 c 0.11886,0.0288 0.27679,0.049 0.48723,0.065 2.7899,0.21181 4.9851,-1.622 6.069,-5.071 0.32942,-1.0478 0.0736,-4.2626 -0.44858,-5.6606 -0.34176,-0.91376 -1.6854,-2.548 -2.2597,-2.7482 -0.3537,-0.12338 -0.33725,-0.0711 0.0498,0.15711 0.47686,0.28131 0.38083,0.40757 -0.11434,0.14888 -1.1114,-0.58293 -2.3262,-1.1325 -2.5027,-1.1325 -0.12955,0 -0.25211,-0.10569 -0.36686,-0.31873 -0.76003,-1.4126 -2.5964,-2.0657 -3.6316,-1.2917 -0.65507,0.48982 -1.4252,1.9996 -1.271,2.4914 0.0288,0.088 0.0711,0.31215 0.0909,0.49747 0.056,0.46292 0.1859,0.69241 0.29406,0.63821 l 0.22826,0.28459 c -0.24142,0.20029 -0.38002,0.48793 -0.38043,0.81206 -4.1e-4,0.20482 -0.0432,0.73264 -0.0991,1.1727 -0.11433,0.92149 -0.0822,1.1131 0.23279,1.4526 0.23319,0.2517 0.32613,0.89069 0.14682,1.0024 -0.10364,0.0625 -0.21674,0.57879 -0.22579,0.87593 v 1.6e-4 l -0.24142,0.25499 v -0.0165 -0.0205 c -0.0884,-0.0329 -0.81876,0.8631 -0.9235,1.152 -0.0246,0.037 -0.0246,0.0703 -0.0246,0.0975 l -0.38124,0.10488 c -0.0246,-0.0962 -0.15999,-0.1534 -0.29654,-0.14929 -0.095,0.004 -0.18794,0.037 -0.2299,0.10528 -0.0205,0.0246 -0.0205,0.0494 0,0.0662 l -0.48097,-0.004 c -0.0539,-0.037 -0.17069,-0.058 -0.28872,-0.0616 -0.13613,-0.004 -0.26939,0.0165 -0.26939,0.0662 2.1e-4,0.008 0,0.0124 0.0246,0.0205 l -0.14888,0.008 c -0.0288,-0.0893 -0.12955,-0.0658 -0.2846,0.11269 -0.29118,0.33642 -0.36521,0.26732 -0.43755,-0.41045 -0.33724,-3.157 -0.98117,-6.7723 -1.455,-8.1737 -0.37137,-1.1055 -0.38042,-1.423 -0.62566,-2.0821 l -0.10158,-0.2628 c -0.037,-0.89357 -1.0306,-2.7346 -2.026,-3.4994 -0.31668,-0.24347 -0.49134,-0.36357 -0.52913,-0.36603 l -0.20729,-0.12174 v -0.008 c 0,-0.0246 -0.0246,-0.0452 -0.0452,-0.0452 -0.0246,0 -0.0288,0.0123 -0.037,0.0246 -0.0498,-0.0165 -0.24923,-0.0872 -0.45183,-0.15423 -0.0863,-0.0691 -0.15093,-0.10405 -0.19,-0.10487 -0.0246,0 -0.037,0.0124 -0.0411,0.0288 0,0 -0.0246,-0.004 -0.0246,-0.004 -0.12543,-0.0678 -0.34916,-0.18631 -0.41616,-0.21427 -0.0246,-0.0522 -0.0885,-0.15423 -0.20934,-0.30105 -0.20933,-0.25704 -0.32079,-0.79515 -0.32777,-1.5745 0,-0.38124 -0.0432,-0.683 -0.0844,-0.80745 0.43303,-0.16204 0.36973,-0.20275 0.74749,-0.41332 -0.0519,0.0757 -0.0246,0.0777 0.0909,0.008 0.14887,-0.0863 0.41683,-0.34054 0.59889,-0.56468 1.8513,-2.1702 3.432,-3.635 3.2389,-6.612 0.0246,-0.004 0.037,-0.0205 0.037,-0.0428 0,-0.0246 -0.0246,-0.0452 -0.0452,-0.0452 -0.13407,-1.2621 -0.68271,-1.4219 -0.0246,-2.5556 0.0246,0.008 0.0563,-0.0246 0.11886,-0.086 0.14024,-0.14147 0.30351,-1.4634 0.22332,-1.6733 l 0.18588,-0.37508 c 0,0.0473 0.0246,0.0691 0.0432,0.0481 0.0288,-0.0288 0.0329,-0.10857 0,-0.17355 v -0.004 l 0.0539,-0.23937 c 0.0246,-0.004 0.0539,-0.0913 0.12091,-0.28254 0.0757,-0.22414 0.19207,-0.52967 0.25911,-0.6791 0.15999,-0.35821 0.31915,-1.4614 0.33314,-2.3089 0.0246,-1.3985 -1.2962,-4.5261 -2.2495,-5.3348 -0.19002,-0.1608 -0.48789,-0.42405 -0.66219,-0.58482 -0.46585,-0.42978 -1.166,-0.97636 -1.6295,-1.2727 -0.22373,-0.14312 -0.52355,-0.33971 -0.66499,-0.43636 -0.14887,-0.10076 -0.34875,-0.15834 -0.47102,-0.1349 -0.11885,0.0246 -0.20934,0.0164 -0.20728,-0.0124 0.0246,-0.18425 -0.0539,-0.26897 -0.39975,-0.43735 -0.21181,-0.10405 -0.5922,-0.2155 -0.84509,-0.24881 -0.25334,-0.0329 -0.69845,-0.18055 -0.98959,-0.32737 -0.29118,-0.14683 -0.55246,-0.23155 -0.58096,-0.18878 -0.0288,0.0432 -0.15341,0.0621 -0.27802,0.0424 -0.33972,-0.0535 -0.68617,-0.0831 -1.03,-0.0888 z"
       stroke-width="0.090545"
       id="path43524"
       style="display:inline" />
    <path
       d="m 156.30169,193.16752 c -0.39318,0.008 -0.71163,0.0519 -0.90188,0.14888 -1.1598,0.55522 -1.3094,0.73992 -2.1228,1.4007 -0.39935,0.30434 -0.95719,0.86174 -0.90986,0.90904 0.0246,0.0205 -0.13818,0.21756 -0.35286,0.4401 -0.72138,0.75266 -1.1246,1.9057 -0.72225,2.063 0.19866,0.0773 -0.27719,0.51512 -0.55911,0.51512 -0.11434,0 -0.16615,0.0773 -0.16863,0.25663 -0.0246,0.80671 -0.17478,0.71072 -0.5015,-0.31175 -0.34711,-1.1161 -0.74336,-2.5564 -1.8079,-2.8645 l -0.50343,-0.0415 c -0.38947,-0.0329 -0.59259,0.004 -0.89302,0.15669 -0.43456,0.22249 -0.49263,0.29406 -0.18138,0.22249 0.1168,-0.0246 -0.0564,0.11393 -0.38331,0.31175 -1.3334,0.80831 -1.9716,2.7792 -1.4596,4.5079 0.0844,0.28212 0.20729,0.72243 0.27638,0.97882 0.26157,0.97755 0.43709,1.2217 2.056,2.8557 4.1944,3.6534 3.9856,3.6693 4.1603,3.8451 -0.35904,0.63632 -2.0578,2.0466 -1.5764,3.1096 0.22579,0.43686 1.3777,1.0409 2.9936,1.5696 0.87576,0.28667 0.99194,0.34753 0.99194,0.5215 0,0.088 0,0.0929 0.0863,0.0711 0.89822,-0.22004 0.49673,0.24511 3.2076,0.23565 1.8923,-0.037 1.9161,-0.0481 1.9837,-1.05 0.0246,-0.27514 0.0605,-0.58438 0.11433,-0.79968 0.0995,-0.42028 0.095,-0.49439 -0.0246,-0.50853 -0.11227,-0.0124 -0.11886,-0.15094 -0.0246,-0.54254 0.11886,-0.48983 0.23607,-0.64406 0.79326,-1.0285 0.9479,-0.52487 3.9907,-4.2747 3.2282,-5.9106 -0.0411,-0.0654 -2.1e-4,-0.1641 0.095,-0.23443 0.21181,-0.15463 0.54876,-1.7167 0.59584,-1.9607 0.3681,-0.76661 0.39071,-0.67909 0.4246,-1.6369 0.0246,-0.44075 0.11228,-0.77981 0.29736,-1.1586 0.67967,-1.3895 -0.15546,-2.9319 -2.2781,-4.2096 -0.52956,-0.31875 -0.98462,-0.57957 -1.011,-0.57957 -0.0246,0 -0.16617,-0.0835 -0.30847,-0.18589 -0.85761,-0.61053 -3.2128,-1.1163 -4.6164,-1.097 z m 18.915,4.4308 c -0.39482,0.008 -0.76497,0.12009 -1.057,0.35821 -0.63258,0.51528 -1.3606,1.9741 -1.2157,2.4364 0.0288,0.0876 0.0691,0.30598 0.0909,0.48538 0.20069,0.56632 0.22785,0.36768 0.15752,1.7836 0,0.17273 -0.0329,0.66927 -0.0885,1.1037 -0.14682,1.0961 -0.13819,1.1443 0.17479,1.5405 0.32162,0.40429 0.35946,0.78997 0.12298,1.2607 -0.29777,0.79025 -0.30229,0.77295 -0.68485,1.2131 -0.34753,0.39977 -0.63842,1.0844 -0.73454,1.5478 -0.26156,-0.29448 -0.52111,-0.46293 -0.82997,-0.38455 0,0 0,0.004 -0.0246,0.004 -0.67448,-0.0596 -1.2092,0.0531 -1.2211,0.15835 0,0.0781 -0.0329,0.0707 -0.095,-0.0246 -0.0777,-0.11762 -0.12296,-0.0995 -0.28583,0.1168 -0.22908,0.0486 -0.29159,0.12668 -0.41044,0.46417 0.14888,0.0843 0.12296,0.88374 0.0205,1.0608 -0.037,0.0596 -0.0205,0.13572 0.0288,0.1682 0.0539,0.0329 0.0732,0.10035 0.037,0.15053 -0.0329,0.0502 0,0.15875 0.0691,0.24183 0.0736,0.0897 0.0864,0.1641 0.0329,0.18219 -0.0971,0.0329 -0.10364,1.4969 0,1.5935 0.17726,-0.25952 1.1965,2.0394 1.4308,2.2553 0.24511,0.0946 0.74945,0.24594 1.1218,0.33601 0.3722,0.0897 0.69973,0.20069 0.72804,0.24635 0.17478,0.28377 1.5904,-0.2916 1.4988,-0.60938 0.0477,-0.19125 0.037,-0.12626 0,-0.25376 0.78183,-0.0165 1.753,-0.73848 2.5742,-1.0566 0.3138,0.037 0.56262,0.1497 0.80688,0.16615 v 1.6e-4 c 3.4262,0.21921 6.4103,-3.1136 6.2936,-7.0293 -0.0885,-3.0092 -0.58832,-4.4811 -2.0209,-5.9648 -0.57446,-0.59469 -1.393,-1.1514 -1.004,-0.68287 0.0585,0.0728 0.0885,0.13243 0.067,0.13243 -0.15545,0 -1.1539,-0.40839 -1.6874,-0.68986 -0.34999,-0.18466 -0.74855,-0.3356 -0.88612,-0.3356 -0.18796,0 -0.2809,-0.0691 -0.37056,-0.27227 -0.46391,-1.0477 -1.6373,-1.721 -2.6463,-1.7027 z"
       fill="#aa0000"
       opacity="0.7"
       stroke-width="0.09322"
       id="path43526"
       style="display:inline" />
    <path
       id="path43528"
       style="display:inline"
       d="m 147.89174,222.95744 -1.49396,8.53798 0.12247,0.81546 a 74.867592,74.867592 0 0 0 11.89901,0.97617 74.867592,74.867592 0 0 0 9.54102,-0.65371 l -0.31781,-9.32191 z" />
    <path
       d="m 150.97169,192.35752 c -2.1232,2.0337 -2.2867,1.3489 -2.8709,2.7125 -0.58379,1.3636 -1.769,7.8964 -1.896,11.243 -0.1275,3.3468 0.86691,11.568 0.85158,12.419 -0.17479,4.1658 0.0863,5.1677 -0.0585,8.9332 l 10.994,1.6206 12.345,0.037 0.28624,-3.0768 c 0,0 0.65593,-5.2523 0.48875,-8.1219 -0.15134,-1.6944 -0.36439,-1.9252 -0.53692,-3.0037 0,-0.0246 -0.0645,-1.716 -0.30474,-0.70594 -0.037,0.15258 -0.60169,-1.5279 -0.63714,-1.4438 -0.0432,0.10158 -0.095,-1.2411 -0.13408,-1.1956 -0.0564,0.0678 -0.0288,-1.1699 -0.0778,-1.1534 -0.12749,0.0444 -0.13406,-0.96135 -0.15751,-0.95748 -0.36356,0.0629 0.17273,-0.22785 0.1641,-0.28748 -0.0971,-0.60206 0.46021,-5.3103 -0.29119,-7.0584 -0.7991,-1.8595 -0.22579,-4.1158 -0.22579,-4.1158 0,0 -0.36027,-1.82 -0.93172,-1.9104 -0.57147,-0.0905 -1.9682,-1.4265 -2.843,-1.763 -0.8749,-0.33642 -1.131,-0.64425 -1.2974,-0.50446 -0.70233,0.51647 -1.5554,0.79136 -2.3293,0.93503 -0.17931,0.0329 1.56,3.0195 1.3909,3.0401 -0.93494,0.11392 -0.63948,7.5312 -0.63948,7.5312 l -2.5906,4.6537 -0.94251,0.66757 -2.453,2.8871 c -1.3401,4.7832 -4.3901,9.9256 -7.7216,3.8479 -0.38659,-0.75695 -0.19864,-3.625 0.10364,-4.0627 0.44405,-0.64026 0.95678,-1.0983 1.4017,-1.576 l 1.5789,-3.1224 -0.33271,-0.55072 -3.0223,-4.4255 -0.54469,-3.8953 0.35246,-2.0868 0.50211,-0.9319 1.8366,3.552 1.7975,-3.4188 3.0497,-3.1413 -1.2004,-1.8562 -1.8824,-0.85232 z"
       fill="#808080"
       id="path43530"
       style="display:inline" />
    <path
       d="m 156.13169,193.41752 c -0.39565,0.008 -0.71533,0.0527 -0.90689,0.15012 -1.1652,0.55797 -1.3157,0.74358 -2.1331,1.4076 -0.4014,0.30599 -0.96217,0.86614 -0.91442,0.91365 0.0246,0.0205 -0.13818,0.21838 -0.35492,0.44232 -0.72463,0.75644 -1.1302,1.9152 -0.72569,2.0734 0.19864,0.0777 -0.27843,0.51766 -0.56217,0.51766 -0.1168,0 -0.16616,0.0777 -0.17068,0.25786 -0.0246,0.81074 -0.17479,0.7143 -0.50425,-0.31339 -0.34918,-1.1216 -0.74728,-2.5693 -1.817,-2.8789 l -0.50624,-0.0419 c -0.39112,-0.0329 -0.59524,0.004 -0.89715,0.15752 -0.43668,0.22374 -0.49546,0.2957 -0.17932,0.22374 0.11681,-0.0288 -0.0563,0.11433 -0.38535,0.31339 -1.3399,0.81238 -1.9813,2.7932 -1.4669,4.5305 0.0843,0.28337 0.20934,0.72606 0.27801,0.98372 0.26199,0.98252 0.43884,1.2278 2.066,2.8701 2.1062,2.1252 6.7042,6.5542 10.885,5.9552 -1.7306,0.5449 -3.9404,0.0165 -5.6161,-1.3498 -0.59543,-0.48531 -0.71162,-0.57254 -0.76475,-0.57258 -0.095,-1.2e-4 -0.067,0.0608 0.29652,0.61135 0.60925,0.92294 0.6056,0.98281 -0.0691,1.0888 l -0.31008,0.049 -0.0246,0.77384 c -0.0246,0.80477 -0.037,0.95941 -0.12955,0.97747 -0.15546,0.0288 -0.92737,-0.31093 -1.115,-0.49312 -0.25952,-0.2517 -0.68769,-0.28994 -0.56394,-0.0502 0.22826,0.43907 1.3846,1.0461 3.0085,1.5775 0.88032,0.2883 0.99717,0.34958 0.99717,0.52412 0,0.088 0,0.0934 0.0884,0.0716 0.90274,-0.22128 0.49953,0.24635 3.2238,0.23689 1.9016,-0.037 1.9258,-0.0485 1.9934,-1.0553 0.0246,-0.27637 0.0626,-0.58726 0.11433,-0.80367 0.10158,-0.42237 0.0971,-0.4969 -0.0246,-0.51112 -0.11227,-0.0124 -0.11886,-0.15176 -0.0246,-0.54532 0.11885,-0.49215 0.23771,-0.64721 0.79736,-1.0337 0.47861,-0.33066 0.54145,-0.37961 0.51574,-0.40552 -0.0246,-0.0165 -0.11885,0.0246 -0.24512,0.0831 0.0909,-0.0605 0.18138,-0.12256 0.27268,-0.19001 1.547,-1.3271 3.1923,-4.6333 2.7009,-5.4279 -0.037,-0.0658 0,-0.16492 0.095,-0.23566 0.2118,-0.15546 0.55159,-1.7253 0.59889,-1.9706 0.36973,-0.77044 0.39277,-0.68246 0.42674,-1.6452 0.0246,-0.4429 0.11227,-0.78368 0.29858,-1.1644 0.68311,-1.3965 -0.15546,-2.9466 -2.2893,-4.2308 -0.53239,-0.32038 -0.9896,-0.5824 -1.0162,-0.5824 -0.0246,0 -0.1641,-0.0839 -0.31011,-0.18672 -0.86214,-0.61362 -3.2286,-1.1219 -4.64,-1.1024 z m -8.8007,3.5375 c 0.0246,0 0.0411,0.0419 0.0411,0.0938 0,0.0514 -0.0432,0.0938 -0.0995,0.0938 -0.0539,0 -0.0736,-0.0419 -0.0411,-0.0938 0.0329,-0.0519 0.0757,-0.0938 0.0995,-0.0938 z m 11.95,0.64997 c 0.0206,-0.004 0.0206,0 0.0288,0.008 0.0498,0.0502 0.23073,0.0917 0.40099,0.0917 0.16862,0 0.30886,0.037 0.30886,0.0819 0,0.0449 0.2007,0.10981 0.44512,0.14394 0.87272,0.12133 1.2323,1.2736 0.55526,1.779 v 1.7e-4 c -0.36274,0.2706 -1.3462,0.28542 -1.4868,0.0246 -0.0736,-0.13737 -0.1641,-0.16327 -0.41707,-0.12215 -0.26445,0.0428 -0.37672,0.008 -0.61855,-0.21139 l -0.29529,-0.26404 0.50776,-0.80626 c 0.28995,-0.45996 0.48571,-0.70783 0.57014,-0.72259 z m 15.86,0.26567 c -0.39688,0.008 -0.76866,0.12092 -1.0622,0.36028 -0.63583,0.51784 -1.3676,1.9841 -1.222,2.4487 0.0288,0.088 0.0691,0.30764 0.0909,0.48785 0.0864,0.66708 0.33067,0.91758 0.34383,0.35122 v -0.30434 l 0.1168,0.32244 c 0.15545,0.42866 0.30557,0.46009 0.38782,0.0806 0.037,-0.17027 0.14683,-0.42135 0.24266,-0.55814 0.20316,-0.28707 0.22126,-0.42308 0.067,-0.47518 -0.32244,-0.10775 0.0288,-0.33437 0.52869,-0.34053 0.28912,-0.004 0.56307,-0.0288 0.6095,-0.058 0.0452,-0.0288 0.10816,-0.0124 0.13408,0.0329 0.0288,0.0469 -0.1057,0.11433 -0.29736,0.15051 -0.23277,0.0436 -0.46757,0.18961 -0.7019,0.43579 -0.4248,0.44685 -0.46026,0.63957 -0.067,0.35863 0.3537,-0.25211 0.49003,-0.16492 0.15546,0.0983 -0.13407,0.10529 -0.26691,0.26692 -0.29653,0.35946 -0.0288,0.0925 -0.22372,0.26362 -0.42957,0.38001 -0.47016,0.26403 -0.66391,0.55262 -0.64384,0.95867 0,0.17355 -0.0329,0.67259 -0.0885,1.1092 -0.14682,1.1017 -0.13819,1.15 0.17479,1.5483 0.32326,0.40633 0.3615,0.79387 0.12544,1.267 -0.0863,0.17149 -0.17479,0.62163 -0.2007,1.0002 -0.0498,0.77265 -0.20728,1.0323 -0.20728,0.34176 v -0.44685 l -0.28213,0.32409 c -0.34917,0.40181 -0.64146,1.0898 -0.73799,1.5556 -0.095,-0.12627 -0.2192,-0.24265 -0.387,-0.33025 -0.0246,-0.008 -0.0452,-0.0124 -0.0822,-0.0205 0.0604,-0.0819 -0.095,-0.10734 -0.36604,-0.037 0,0 0,0.004 -0.0246,0.004 -0.12544,-0.008 -0.24842,-0.008 -0.33231,-0.0124 -0.0329,0.008 -0.0645,0.0124 -0.095,0.0246 l -0.19206,0.20563 c 0,0.0954 -0.27226,0.26116 -0.53799,0.28749 -0.25087,0.0246 -0.2628,0.0288 -0.32531,0.15957 -0.11885,0.24758 -0.0626,0.70998 0.12091,0.94674 0.12956,0.17069 0.15136,0.21838 0.15136,0.33724 0,0.16452 -0.0822,0.21222 -0.20523,0.1275 0.13407,-0.008 0.16616,-0.25827 -0.0246,-0.45457 -0.34095,-0.35493 -0.29078,-1.2501 0.067,-1.1824 0.20071,0.037 0.80388,-0.24101 0.68465,-0.31667 -0.18138,-0.11558 -0.53778,-0.0893 -0.5393,0.0411 0,0.0785 -0.0329,0.0707 -0.095,-0.0246 -0.0798,-0.11844 -0.12296,-0.0999 -0.28747,0.11721 -0.23031,0.0486 -0.29324,0.12751 -0.41271,0.46656 0.15134,0.0847 0.12297,0.88814 0.0246,1.0662 -0.037,0.06 -0.0246,0.13613 0.0288,0.16904 0.0539,0.0329 0.0732,0.10076 0.037,0.15093 -0.0288,0.0502 0,0.15998 0.0691,0.24307 0.0736,0.0901 0.0863,0.1645 0.0329,0.18342 -0.0971,0.0329 -0.10365,1.5045 0,1.6015 0.0288,0.0288 0.0539,-0.0165 0.0539,-0.10776 0,-0.0888 0.037,-0.139 0.0798,-0.11227 0.50324,1.6215 0.42374,1.6815 1.3038,2.4862 0.24594,0.0954 0.75311,0.24716 1.1272,0.33765 0.37385,0.0905 0.70344,0.20152 0.7317,0.24758 0.17479,0.28501 1.5986,-0.29324 1.5066,-0.61246 -0.0246,-0.0552 -0.2661,-0.17192 -0.60947,-0.30146 0.19001,0.0329 0.39483,0.0514 0.61745,0.0465 0.78548,-0.0165 1.7617,-0.74217 2.5869,-1.0618 l 0.15134,-0.0765 c 0.0798,-0.0534 0.23443,-0.13736 0.48596,-0.26486 0.19659,-0.0987 0.40387,-0.22249 0.46478,-0.27514 0.0605,-0.0531 0.16409,-0.10651 0.22579,-0.12132 0.5047,-0.11351 1.06,-2.2102 0.75007,-2.8316 -0.0564,-0.1164 -0.0539,-0.15136 0.0246,-0.24554 0.28091,-0.33436 -0.73107,-0.88007 -1.7509,-0.94387 -0.49952,-0.0329 -0.78375,-0.14394 -1.1701,-0.46806 0,-0.008 -0.0246,-0.0165 -0.0246,-0.0288 l -0.17068,-0.27309 0.22949,0.19988 c 0.39564,0.34423 0.81744,0.50676 1.2822,0.49406 0.86239,-0.0246 2.1446,0.72453 1.706,0.99565 -0.0498,0.0329 -0.065,0.10199 -0.0288,0.15752 0.3615,0.58482 -0.22126,2.9779 -0.72392,2.9779 -0.0909,0 -0.19659,0.0465 -0.23073,0.10282 -0.0329,0.0563 -0.31914,0.22372 -0.63109,0.37138 -0.61765,0.292 -0.58873,0.34505 0.21386,0.39687 v 1.6e-4 c 3.4434,0.22004 6.4425,-3.1293 6.3254,-7.0647 -0.0885,-3.0243 -0.59133,-4.5036 -2.0314,-5.9947 -0.57706,-0.59775 -1.3997,-1.1573 -1.009,-0.68638 0.0583,0.0732 0.0909,0.13325 0.067,0.13325 -0.15546,0 -1.1598,-0.41045 -1.6958,-0.69336 -0.35204,-0.18548 -0.75242,-0.33724 -0.89064,-0.33724 -0.18795,0 -0.28214,-0.0691 -0.37261,-0.2735 -0.46605,-1.053 -1.6452,-1.7298 -2.6594,-1.7113 z m -15.823,0.0206 c -0.0246,0 -0.0452,0.0205 -0.0452,0.0469 0,0.0246 0.0246,0.0469 0.0452,0.0469 0.0246,0 0.0452,-0.0205 0.0452,-0.0469 0,-0.0246 -0.0246,-0.0469 -0.0452,-0.0469 z m 15.229,0.3208 c 0,0.004 0.0246,0.008 0.0246,0.0288 0.0246,0.0645 0.0246,0.16986 0,0.23442 -0.0246,0.0641 -0.0473,0.0124 -0.0473,-0.11721 0,-0.0967 0.0246,-0.15011 0.0288,-0.14394 z m -26.265,0.36273 c 0.13613,0.008 0.39687,0.34507 0.39975,0.55809 0,0.16164 -0.26362,0.21222 -0.53625,0.10201 -0.12545,-0.0506 -0.0691,-0.47313 0.0884,-0.64081 0.0246,-0.0124 0.0288,-0.0205 0.0498,-0.0205 z m 27.58,0.99927 c 0.0246,0 0.0452,0.0206 0.0452,0.0469 0,0.0246 -0.0246,0.0473 -0.0452,0.0473 -0.0246,0 -0.0452,-0.0205 -0.0452,-0.0473 0,-0.0246 0.0246,-0.0469 0.0452,-0.0469 z m -27.382,0.004 c 0.15546,0 0.13613,0.0596 -0.093,0.32737 -0.22579,0.26033 -0.3578,0.30023 -0.3578,0.10898 0,-0.15011 0.29652,-0.43622 0.45222,-0.43622 z m 29.295,0.28665 c 0.0519,0.008 0.0995,0.0424 0.1641,0.1094 0.1534,0.15341 0.14888,0.16246 -0.11639,0.16246 -0.15341,0 -0.57277,0.0205 -0.93322,0.0452 -0.44623,0.0288 -0.5812,0.0165 -0.422,-0.037 0.12955,-0.0452 0.39317,-0.0876 0.58722,-0.0925 0.19453,-0.008 0.4354,-0.0613 0.53665,-0.12502 0.0757,-0.0477 0.12956,-0.0695 0.18344,-0.0626 z m -4.4557,0.0246 c 0,0 0.0246,0.0165 0.0288,0.0436 0.0246,0.0675 0.0246,0.14847 0,0.17931 -0.0329,0.0329 -0.0539,-0.0246 -0.0498,-0.12296 0,-0.0683 0.0246,-0.10241 0.0246,-0.10036 z m 2.7915,0.25581 c 0.0736,0 0.0736,0.0288 -0.0246,0.0868 v -2.1e-4 c -0.0777,0.0498 -0.24634,0.0872 -0.37507,0.0831 l -0.23402,-0.008 0.23402,-0.0749 c 0.18343,-0.058 0.31914,-0.0868 0.38988,-0.0868 z m -27.349,0.75958 c 0.0929,-0.004 0.0884,0.26938 -0.0411,0.51018 -0.095,0.17602 -0.2007,0.31997 -0.2373,0.31997 -0.0778,0 0.0929,-0.66906 0.19864,-0.78101 0.0329,-0.0329 0.056,-0.0485 0.0798,-0.049 z m 0.53084,0.54892 c 0.0246,0 0.0452,0.0206 0.0452,0.0469 0,0.0246 -0.0205,0.0473 -0.0452,0.0473 -0.0246,0 -0.0452,-0.0205 -0.0452,-0.0473 0,-0.0246 0.0205,-0.0469 0.0452,-0.0469 z m 24.027,1.1528 c 0,0 0.0246,0.0165 0.0288,0.0436 0.0246,0.0675 0.0246,0.14847 0,0.17933 -0.0329,0.0329 -0.0539,-0.0246 -0.0498,-0.12298 0,-0.0683 0.0246,-0.10241 0.0246,-0.10035 z m -0.0798,0.34219 c 0.0246,0 0.0452,0.0205 0.0452,0.0469 0,0.0246 -0.0205,0.0469 -0.0452,0.0469 -0.0246,0 -0.0452,-0.0205 -0.0452,-0.0469 0,-0.0246 0.0206,-0.0469 0.0452,-0.0469 z m 4.0916,0.56392 c 0.21387,0 0.48938,0.0535 0.6237,0.14765 0.1168,0.0819 0.2007,0.21797 0.18343,0.30187 -0.0246,0.0839 0.0798,0.2591 0.2118,0.38948 0.33231,0.3249 0.38989,0.53152 0.23319,0.83512 -0.22126,0.42715 -0.40222,0.52873 -0.35369,0.19824 0.0329,-0.2262 0,-0.29612 -0.20316,-0.38742 -0.15341,-0.0699 -0.21387,-0.14888 -0.16616,-0.21344 0.27843,-0.36398 0.0843,-0.80589 -0.27104,-0.61577 -0.13818,0.0749 -0.18588,0.077 -0.14476,0.008 0.037,-0.0576 0,-0.10283 -0.0798,-0.10283 -0.14025,0 -0.33642,-0.26855 -0.33642,-0.46218 0,-0.0675 0.12956,-0.0987 0.29734,-0.0979 z m -16.968,1.0512 c 0.26897,0 0.25663,0.25622 -0.0473,0.68128 -0.16205,0.22455 -0.29324,0.43479 -0.29324,0.46769 0,0.12832 -0.63644,0.70615 -0.77792,0.70615 -0.0822,0 -0.26609,0.10858 -0.40921,0.24101 -0.14024,0.13243 -0.37673,0.26403 -0.52005,0.29282 -0.14477,0.0288 -0.26034,0.0888 -0.26034,0.13367 0,0.11227 -0.1641,0.10404 -0.23401,-0.0124 -0.0329,-0.0519 -0.17725,-0.0938 -0.32367,-0.0938 -0.14682,0 -0.28583,-0.0531 -0.31051,-0.11762 -0.0691,-0.17562 0.037,-1.1001 0.12297,-1.1001 0.0411,0 0.10158,-0.0863 0.13612,-0.19288 0.0329,-0.1057 0.21387,-0.26239 0.40511,-0.34752 0.19001,-0.0852 0.41086,-0.21057 0.49393,-0.27844 0.0843,-0.0678 0.48333,-0.16492 0.88979,-0.21509 0.40675,-0.0502 0.85483,-0.11721 0.99585,-0.14888 0.0498,-0.0124 0.093,-0.0165 0.13161,-0.0165 z m 16.967,0.9607 c 0.0473,0 0.0732,0.0246 0.0539,0.0781 -0.0246,0.0605 -0.0757,0.11309 -0.12092,0.11309 -0.0477,0.004 -0.19206,0.0608 -0.31997,0.13079 -0.23113,0.12584 -0.23236,0.12503 -0.065,-0.0641 0.13408,-0.15094 0.35,-0.25994 0.45355,-0.25787 z m 0.36027,0.98425 c 0,0.008 -0.0246,0.0428 -0.0822,0.11721 -0.12091,0.15628 -0.2007,0.20563 -0.2007,0.12831 0,-0.0205 0.0732,-0.0929 0.16409,-0.16409 0.0732,-0.058 0.11228,-0.0863 0.11886,-0.0814 z m -20.714,0.004 c 0.0246,0 0.0452,0.0205 0.0452,0.0469 0,0.0246 -0.0246,0.0469 -0.0452,0.0469 -0.0246,0 -0.0452,-0.0205 -0.0452,-0.0469 0,-0.0246 0.0246,-0.0469 0.0452,-0.0469 z m -4.3384,1.0435 c 0.15135,-0.008 0.35985,0.0819 0.51553,0.21838 0.30927,0.27227 0.24923,0.3175 -0.0778,0.0593 -0.12296,-0.0979 -0.33066,-0.19781 -0.45782,-0.22167 -0.22826,-0.0424 -0.22826,-0.0436 0.0246,-0.056 z m 21.385,0.0761 c 0.0736,-0.004 0.13819,0.0246 0.19659,0.0876 0.0909,0.10652 0.23278,0.19412 0.31092,0.19412 0.0778,0 0.16863,0.10817 0.20317,0.2406 0.0329,0.13242 0.18343,0.30969 0.32778,0.394 0.20522,0.1172 0.28007,0.24306 0.31956,0.53357 0.0288,0.20894 0.11885,0.52697 0.20317,0.7067 0.0329,0.0724 0.0563,0.12338 0.0757,0.16409 0,0.17849 -0.0246,0.16327 -0.10158,-0.0329 -0.11434,-0.26321 -0.15134,-0.38823 -0.2118,-0.68382 -0.0711,-0.35822 -0.11228,-0.42591 -0.33766,-0.59485 -0.16409,-0.12215 -0.20522,-0.17069 -0.29899,-0.35534 -0.10364,-0.19864 -0.11886,-0.21716 -0.23894,-0.26199 -0.0736,-0.0288 -0.17726,-0.0913 -0.23443,-0.14312 -0.0711,-0.0649 -0.15136,-0.0946 -0.23196,-0.0946 -0.30146,0 -0.62501,0.42348 -0.69196,0.99548 -0.0246,0.1567 -0.037,0.2151 -0.0909,0.27144 -0.0777,0.0814 -0.1275,0.20111 -0.32285,0.76484 -0.23689,0.68444 -0.38783,0.9465 -0.52498,0.91199 -0.0885,-0.0246 -0.0863,0.037 0,0.17315 0.0798,0.11968 0.0539,0.22455 -0.0822,0.35369 -0.0884,0.0843 -0.15546,0.0819 -0.19,0.0124 0.0498,0.0288 0.12297,-0.008 0.20727,-0.11804 0.0885,-0.12215 0.10159,-0.21344 0.037,-0.27637 -0.11639,-0.11638 -0.12296,-0.2739 -0.0205,-0.20358 0.12544,0.0781 0.3282,-0.29406 0.56715,-1.0476 0.11885,-0.37343 0.25293,-0.67929 0.29816,-0.67929 0.0452,0 0.0822,-0.0921 0.0822,-0.20481 0,-0.5347 0.42135,-1.0968 0.73647,-1.1078 z m -20.607,0.47301 c 0.0246,0 0.0452,0.0205 0.0452,0.0469 0,0.0246 -0.0246,0.0469 -0.0452,0.0469 -0.0246,0 -0.0452,-0.0205 -0.0452,-0.0469 0,-0.0246 0.0246,-0.0469 0.0452,-0.0469 z m 20.851,0.37302 c 0,0.0124 0.0246,0.0246 0.0246,0.0329 0.0798,0.0794 0.16204,0.0757 0.19659,0.008 0,0.0246 0,0.0519 -0.0246,0.0798 -0.0411,0.0852 -0.11023,0.0954 -0.18137,0.0246 -0.0605,-0.0629 -0.0691,-0.0794 -0.0205,-0.14559 z m 1.3059,0.10899 c 0,0 0.0205,0.008 0.0246,0.0124 0.0329,0.0329 0.0329,0.0905 0,0.12503 -0.0246,0.0123 -0.0246,0.0165 -0.0329,0.0123 0,-0.0205 -0.0246,-0.0329 -0.0246,-0.037 v -0.0411 c 0,-0.0519 0.0246,-0.0802 0.037,-0.0769 z m -4.152,0.72609 c 0.093,0.0246 0.0736,0.0991 -0.0452,0.15752 -0.14477,0.0719 -0.45421,0.0411 -0.42719,-0.044 0,-0.008 0.0206,-0.0124 0.0288,-0.0205 v 0.004 c 0.10158,0.037 0.26117,0.0246 0.35246,-0.0329 0.037,-0.0246 0.065,-0.0449 0.0778,-0.0633 z m 4.4015,0.11763 c 0,0.037 -0.037,0.0716 -0.0863,0.12296 l -0.037,0.0452 c 0.0246,-0.0613 0.0473,-0.1094 0.093,-0.1423 0.0246,-0.008 0.0246,-0.0165 0.0329,-0.0246 z m -3.4262,0.17026 c 0.0246,0 0.0452,0.0205 0.0452,0.0469 0,0.0246 -0.0246,0.0469 -0.0452,0.0469 -0.0246,0 -0.0452,-0.0206 -0.0452,-0.0469 0,-0.0246 0.0246,-0.0469 0.0452,-0.0469 z m -0.5868,0.0205 c 0,0 0.0246,0.004 0.0246,0.008 0.037,0.037 0,0.10035 -0.0691,0.14682 -0.16862,0.10694 -0.23731,0.065 -0.13408,-0.037 0,-0.004 0.0246,-0.008 0.0246,-0.008 0.0519,-0.0205 0.0971,-0.0568 0.12092,-0.0946 0.0205,-0.008 0.0329,-0.0124 0.0411,-0.0124 z m 0.31832,0.49232 c 0.0246,0.0123 0.0246,0.0329 0.0246,0.0613 0,-0.0205 -0.0246,-0.0411 -0.0246,-0.0613 z m -0.47835,0.044 c 0.0329,0 0.0691,0.0165 0.0736,0.0329 0,0.0246 -0.0246,0.0329 -0.0736,0.0329 -0.0563,0 -0.0822,-0.0124 -0.0736,-0.0329 0,-0.0164 0.0329,-0.0288 0.067,-0.0329 z m 4.1069,0.0465 c 0,0.0444 0.0329,0.10858 0.11228,0.1859 0.0863,0.0855 0.24306,0.14888 0.33724,0.15464 0,0.008 0.0246,0.0165 0.0246,0.0246 0,0.0593 -0.12091,0.0419 -0.27514,-0.0411 -0.20727,-0.10775 -0.30228,-0.30968 -0.18589,-0.32613 z m -1.9044,0.0205 c 0.0645,0 0.0971,0.0987 0.0711,0.20398 -0.0246,0.044 -0.037,0.0678 -0.0711,0.0678 -0.0329,0 -0.0691,-0.0288 -0.0864,-0.0678 -0.0411,-0.0884 0,-0.20398 0.0864,-0.20398 z m 6.5077,0.12502 c 0.0246,0 0.0452,0.0205 0.0452,0.0469 0,0.0246 -0.0246,0.0469 -0.0452,0.0469 -0.0246,0 -0.0452,-0.0205 -0.0452,-0.0469 0,-0.0246 0.0246,-0.0469 0.0452,-0.0469 z m -20.939,0.13572 c -0.0246,0.0205 -0.0477,0.037 -0.0604,0.0535 -0.0519,0.0575 -0.17274,0.10487 -0.43106,0.16286 0.1641,-0.0625 0.33025,-0.1349 0.49329,-0.21633 z m 12.555,0.0905 c 0.0246,0 0.0329,0.008 0.0329,0.0288 0,0.0165 -0.13819,0.11927 -0.31133,0.23114 -0.36892,0.24059 -0.39524,0.24882 -0.19002,0.06 0.037,-0.0329 0.0736,-0.0658 0.11023,-0.0958 0.17726,-0.11475 0.27719,-0.18013 0.32325,-0.21633 0.0246,-0.004 0.0288,-0.008 0.037,-0.008 z m -2.5992,0.62604 c 0,-0.008 0.0329,0.0124 0.0822,0.0613 0.0246,0.0165 0.037,0.0329 0.0539,0.0452 0.0246,0.06 0.0798,0.16575 0.10569,0.16575 0.11022,0 0.11639,0.0626 0.095,0.83607 l -0.0246,0.74016 c -0.0246,0 -0.0539,0.004 -0.0822,0.008 -0.037,0.008 -0.0432,-0.34794 0,-0.78611 0.037,-0.52849 0.0288,-0.79655 -0.037,-0.79655 -0.0539,0 -0.12544,-0.074 -0.15999,-0.16409 -0.0246,-0.0658 -0.037,-0.10076 -0.0246,-0.10817 z m 2.5085,1.7656 c 0.0477,0 0.0539,0.11146 0,0.15752 -0.037,0.0411 -0.0929,0.0419 -0.11886,0.004 -0.0246,-0.037 0.0583,-0.16163 0.11023,-0.16163 z m -2.0498,0.0531 c 0.19658,-0.008 0.32408,0.17973 0.32449,0.4992 0,0.6647 0.40017,0.96488 1.7075,1.2836 0.12544,0.0288 0.28953,0.11105 0.48809,0.20193 -0.22331,-0.0641 -0.44298,-0.12214 -0.63496,-0.16327 -1.1715,-0.25211 -1.7518,-0.7038 -1.658,-1.2912 0.0498,-0.31627 -0.0863,-0.50114 -0.35452,-0.50118 l 0.037,-0.0124 c 0.0288,-0.008 0.0605,-0.0124 0.0884,-0.0165 z m 5.4552,1.2293 c 0.11227,-0.004 0.14476,0.0822 0.0539,0.19454 -0.0691,0.0868 -0.16615,0.0929 -0.24429,0.0165 -0.0736,-0.0744 -0.0246,-0.16411 0.12091,-0.19947 0.0246,-0.008 0.0498,-0.008 0.0711,-0.008 z m -1.901,0.2661 c 0.056,0 0.2007,0.15339 0.18343,0.20028 -0.0246,0.0588 -0.0884,0.0452 -0.1641,-0.0329 -0.0863,-0.0905 -0.0971,-0.16904 -0.0246,-0.16904 z"
       fill="#aa0000"
       stroke-width="0.093688"
       id="path43532"
       style="display:inline" />
  </g>
</svg>
