<?xml version="1.0" encoding="UTF-8" standalone="no"?>
<svg
   width="332.91mm"
   height="332.91mm"
   version="1.1"
   viewBox="0 0 332.91 332.91"
   id="svg81303"
   sodipodi:docname="OUTPUT_BoxFit_Ganz_Alternative.svg"
   inkscape:version="1.2 (dc2aedaf03, 2022-05-15)"
   xmlns:inkscape="http://www.inkscape.org/namespaces/inkscape"
   xmlns:sodipodi="http://sodipodi.sourceforge.net/DTD/sodipodi-0.dtd"
   xmlns:xlink="http://www.w3.org/1999/xlink"
   xmlns="http://www.w3.org/2000/svg"
   xmlns:svg="http://www.w3.org/2000/svg">
  <sodipodi:namedview
     id="namedview8381"
     pagecolor="#505050"
     bordercolor="#eeeeee"
     borderopacity="1"
     inkscape:showpageshadow="0"
     inkscape:pageopacity="0"
     inkscape:pagecheckerboard="0"
     inkscape:deskcolor="#505050"
     inkscape:document-units="mm"
     showgrid="false"
     inkscape:zoom="0.37512641"
     inkscape:cx="18.660377"
     inkscape:cy="747.74795"
     inkscape:window-width="1920"
     inkscape:window-height="1010"
     inkscape:window-x="0"
     inkscape:window-y="0"
     inkscape:window-maximized="1"
     inkscape:current-layer="svg81303" />
  <defs
     id="defs81237">
    <linearGradient
       id="linearGradient86080">
      <stop
         style="stop-color:#aa0000;stop-opacity:0;"
         offset="0"
         id="stop86076" />
      <stop
         style="stop-color:#aa0000;stop-opacity:0.3130821;"
         offset="0.43776903"
         id="stop86078" />
    </linearGradient>
    <radialGradient
       id="radialGradient78888"
       cx="-877.64001"
       cy="-3483.3999"
       r="2500"
       gradientTransform="matrix(0.066582,0,0,0.066582,224.89,398.39)"
       gradientUnits="userSpaceOnUse">
      <stop
         stop-color="#fff"
         stop-opacity=".73012"
         offset="0"
         id="stop81222" />
      <stop
         stop-color="#f8f8f8"
         stop-opacity="0"
         offset="1"
         id="stop81224" />
    </radialGradient>
    <radialGradient
       id="radialGradient3271"
       cx="-877.64001"
       cy="-3483.3999"
       r="2500"
       gradientTransform="matrix(0.75092,0,0,0.75092,-20313,8032)"
       gradientUnits="userSpaceOnUse">
      <stop
         offset="0"
         id="stop81232" />
      <stop
         stop-opacity="0"
         offset="1"
         id="stop81234" />
    </radialGradient>
    <radialGradient
       xlink:href="#linearGradient14125"
       id="radialGradient78888-0"
       gradientUnits="userSpaceOnUse"
       gradientTransform="matrix(0.066582,0,0,0.066582,224.89006,398.3897)"
       cx="-877.64062"
       cy="-3483.4453"
       fx="-877.64062"
       fy="-3483.4453"
       r="2500" />
    <linearGradient
       id="linearGradient14125">
      <stop
         style="stop-color:#ffffff;stop-opacity:0.730124;"
         offset="0"
         id="stop14121" />
      <stop
         style="stop-color:#f8f8f8;stop-opacity:0;"
         offset="1"
         id="stop14123" />
    </linearGradient>
    <radialGradient
       xlink:href="#linearGradient2926"
       id="radialGradient3271-5"
       gradientUnits="userSpaceOnUse"
       gradientTransform="matrix(0.75092322,0,0,0.75092322,-20312.94,8031.9731)"
       cx="-877.64062"
       cy="-3483.4453"
       fx="-877.64062"
       fy="-3483.4453"
       r="2500" />
    <linearGradient
       id="linearGradient2926">
      <stop
         style="stop-color:#000000;stop-opacity:1;"
         offset="0"
         id="stop2922" />
      <stop
         style="stop-color:#000000;stop-opacity:0;"
         offset="1"
         id="stop2924" />
    </linearGradient>
    <radialGradient
       xlink:href="#linearGradient2926"
       id="radialGradient85930"
       gradientUnits="userSpaceOnUse"
       gradientTransform="matrix(0.7509232,0,0,0.7509232,-20312.94,8031.9731)"
       cx="-877.64062"
       cy="-3483.4453"
       fx="-877.64062"
       fy="-3483.4453"
       r="2500" />
    <filter
       id="mask-powermask-path-effect85932_inverse"
       style="color-interpolation-filters:sRGB"
       height="100"
       width="100"
       x="-50"
       y="-50">
      <feColorMatrix
         id="mask-powermask-path-effect85932_primitive1"
         values="1"
         type="saturate"
         result="fbSourceGraphic" />
      <feColorMatrix
         id="mask-powermask-path-effect85932_primitive2"
         values="-1 0 0 0 1 0 -1 0 0 1 0 0 -1 0 1 0 0 0 1 0 "
         in="fbSourceGraphic" />
    </filter>
    <mask
       maskUnits="userSpaceOnUse"
       id="mask-powermask-path-effect85932">
      <path
         id="mask-powermask-path-effect85932_box"
         style="fill:#ffffff;fill-opacity:1"
         d="m -21958.967,4478.8652 h 1984.661 v 1982.833 h -1984.661 z" />
      <path
         id="path85928-0"
         style="display:inline;fill:url(#radialGradient85930-4);fill-opacity:1;fill-rule:evenodd;stroke:#ffffff;stroke-width:0.203013;paint-order:markers fill stroke;stop-color:#000000"
         d="m -22849.188,3538.9666 h 3754.414 v 3754.4132 h -3754.414 z" />
    </mask>
    <radialGradient
       xlink:href="#linearGradient2926"
       id="radialGradient85930-4"
       gradientUnits="userSpaceOnUse"
       gradientTransform="matrix(0.7509232,0,0,0.7509232,-20312.94,8031.9731)"
       cx="-877.64062"
       cy="-3483.4453"
       fx="-877.64062"
       fy="-3483.4453"
       r="2500" />
    <radialGradient
       xlink:href="#linearGradient86080"
       id="radialGradient86082"
       cx="-20966.637"
       cy="5470.2817"
       fx="-20966.637"
       fy="5470.2817"
       r="991.3305"
       gradientTransform="matrix(1,0,0,0.99907801,0,5.0435626)"
       gradientUnits="userSpaceOnUse" />
    <mask
       maskUnits="userSpaceOnUse"
       id="mask-powermask-path-effect85932-3">
      <path
         id="mask-powermask-path-effect85932_box-6"
         style="fill:#ffffff;fill-opacity:1"
         d="m -21958.967,4478.8652 h 1984.661 v 1982.833 h -1984.661 z" />
      <path
         id="path85928-2"
         style="display:inline;fill:url(#radialGradient85930-1);fill-opacity:1;fill-rule:evenodd;stroke:#ffffff;stroke-width:0.203013;paint-order:markers fill stroke;stop-color:#000000"
         d="m -22849.188,3538.9666 h 3754.414 v 3754.4132 h -3754.414 z" />
    </mask>
    <radialGradient
       xlink:href="#linearGradient2926"
       id="radialGradient85930-1"
       gradientUnits="userSpaceOnUse"
       gradientTransform="matrix(0.7509232,0,0,0.7509232,-20312.94,8031.9731)"
       cx="-877.64062"
       cy="-3483.4453"
       fx="-877.64062"
       fy="-3483.4453"
       r="2500" />
    <mask
       maskUnits="userSpaceOnUse"
       id="mask-powermask-path-effect3273">
      <path
         id="mask-powermask-path-effect3273_box"
         style="fill:#ffffff;fill-opacity:1"
         d="M -47350.493,-20984.125 H 5522.0724 V 32008.207 H -47350.493 Z" />
      <path
         id="path3269"
         style="display:inline;fill:url(#radialGradient3271-8);fill-opacity:1;fill-rule:evenodd;stroke:#ffffff;stroke-width:0.203014;paint-order:markers fill stroke;stop-color:#000000"
         d="m -22849.188,3538.9666 h 3754.414 v 3754.4131 h -3754.414 z" />
    </mask>
    <radialGradient
       xlink:href="#linearGradient2926"
       id="radialGradient3271-8"
       gradientUnits="userSpaceOnUse"
       gradientTransform="matrix(0.75092322,0,0,0.75092322,-20312.94,8031.9731)"
       cx="-877.64062"
       cy="-3483.4453"
       fx="-877.64062"
       fy="-3483.4453"
       r="2500" />
    <mask
       maskUnits="userSpaceOnUse"
       id="mask-powermask-path-effect3273-7">
      <path
         id="mask-powermask-path-effect3273_box-9"
         style="fill:#ffffff;fill-opacity:1"
         d="M -47350.493,-20984.125 H 5522.0724 V 32008.207 H -47350.493 Z" />
      <path
         id="path3269-5"
         style="display:inline;fill:url(#radialGradient3271-6);fill-opacity:1;fill-rule:evenodd;stroke:#ffffff;stroke-width:0.203014;paint-order:markers fill stroke;stop-color:#000000"
         d="m -22849.188,3538.9666 h 3754.414 v 3754.4131 h -3754.414 z" />
    </mask>
    <radialGradient
       xlink:href="#linearGradient2926"
       id="radialGradient3271-6"
       gradientUnits="userSpaceOnUse"
       gradientTransform="matrix(0.75092322,0,0,0.75092322,-20312.94,8031.9731)"
       cx="-877.64062"
       cy="-3483.4453"
       fx="-877.64062"
       fy="-3483.4453"
       r="2500" />
  </defs>
  <path
     id="path78830"
     style="display:inline;fill:url(#radialGradient78888-0);fill-opacity:1;fill-rule:evenodd;stroke:none;stroke-width:0.0180006;paint-order:markers fill stroke;stop-color:#000000"
     d="M 0.0090003,0.0090003 H 332.90099 V 332.901 H 0.0090003 Z" />
  <path
     id="path85976"
     mask="none"
     style="display:inline;fill:url(#radialGradient86082);fill-opacity:1;fill-rule:evenodd;stroke:none;stroke-width:0.439805;paint-order:markers fill stroke;stop-color:#000000"
     class="UnoptimicedTransforms"
     d="m -21009.178,4479.8652 a 996.71881,996.71881 0 0 0 -73.742,14.6708 l 106.518,1015.9217 z m 206.674,8.9684 -173.82,1020.4318 247.614,-1005.7611 a 996.71881,996.71881 0 0 0 -73.794,-14.6707 z m -481.257,45.6451 a 996.71881,996.71881 0 0 0 -73.496,16.4203 l 381.101,960.7251 z m 748.933,41.3424 -441.094,932.3168 507.915,-898.3745 a 996.71881,996.71881 0 0 0 -66.821,-33.9423 z m -993.696,89.5277 a 996.71881,996.71881 0 0 0 -61.197,40.8888 l 614.11,806.4492 z m 1225.55,67.6772 -672.261,774.1399 725.851,-722.4425 a 996.71881,996.71881 0 0 0 -53.59,-51.6974 z m -1430.331,115.992 a 996.71881,996.71881 0 0 0 -40.746,60.9768 l 799.256,603.5604 z m 1608.453,97.7962 -849.45,559.6 885.453,-495.124 a 996.71881,996.71881 0 0 0 -36.003,-64.476 z m -1761.238,130.8442 a 996.71881,996.71881 0 0 0 -18.948,71.4485 l 931.267,365.0703 z m 1872.772,121.4871 -959.896,306.7892 975.798,-235.3667 a 996.71881,996.71881 0 0 0 -15.902,-71.4225 z m -1930.613,145.5278 a 996.71881,996.71881 0 0 0 -14.036,70.5413 l 985.337,99.2866 z m 1968.625,125.0382 -996.728,36.0677 991.997,36.2232 a 996.71881,996.71881 0 0 0 4.731,-72.2909 z m -995.549,36.2232 935.155,299.2335 a 996.71881,996.71881 0 0 0 23.004,-67.7808 z m 1.102,0.4795 811.568,535.0408 a 996.71881,996.71881 0 0 0 39.321,-58.8643 z m 0.92,0.7517 631.813,728.0412 a 996.71881,996.71881 0 0 0 52.734,-46.2543 z m 0.687,0.972 409.445,866.1948 a 996.71881,996.71881 0 0 0 62.48,-30.8189 z m 0.402,1.1275 160.017,941.324 a 996.71881,996.71881 0 0 0 68.066,-13.5432 z m 0.09,1.1923 -98.522,936.7102 a 996.71881,996.71881 0 0 0 67.976,13.5303 z m -0.246,1.1664 -351.475,885.1813 a 996.71881,996.71881 0 0 0 68.234,13.582 z m -0.557,1.0627 -572.884,751.771 a 996.71881,996.71881 0 0 0 57.063,38.1413 z m -0.804,0.8684 -763.707,576.3054 a 996.71881,996.71881 0 0 0 38.919,58.2552 z m -1.011,0.622 -909.39,356.141 a 996.71881,996.71881 0 0 0 39.8,59.5641 z m -1.166,0.324 -968.89,97.3038 a 996.71881,996.71881 0 0 0 13.789,69.3619 z"
     transform="matrix(0.16645501,0,0,0.16645501,3655.0136,-745.69601)" />
  <path
     id="path78834"
     style="display:inline;fill:#000000;stroke-width:0.177589"
     d="m 148.60071,141.0547 c -0.4304,0 -0.8565,0.081 -1.27725,0.2396 -0.48258,0.1824 -1.88731,0.4958 -1.93402,0.4491 -0.0468,-0.047 2.92944,0.5761 3.30273,1.1826 -1.37259,-0.4933 -3.19148,-0.9479 -4.21312,-1.1258 -4.04151,-0.7039 -8.41255,2.0749 -10.05227,6.3904 -0.617,1.6239 -0.81984,5.1726 -0.35609,6.23 0.0251,0.061 0.0438,0.09 0.0622,0.1265 l -0.15195,0.7553 c -0.16197,0.2171 -0.0593,0.8656 0.18034,1.0645 0.1411,0.1173 0.35609,0.6556 0.47702,1.1966 0.0852,0.3803 0.14486,0.6015 0.19621,0.7 0,0.021 -0.008,0.042 -0.008,0.064 -0.19454,1.7961 -0.65207,1.8583 1.66961,6.2435 l 0.008,-0.013 c 0.1603,0.3181 0.54277,0.8615 1.09331,1.5384 0.32228,0.3962 0.5303,0.6263 0.63036,0.7012 l 0.008,0.017 c -0.81454,-0.6201 -2.31667,-1.2473 -3.25832,-1.2413 -5.14354,0.033 -10.91014,5.7253 -12.26374,12.1052 -0.17658,0.8323 -0.48646,1.9336 -0.68834,2.4474 -0.20539,0.5227 -0.36694,1.3442 -0.36736,1.8647 -1.2e-4,0.6638 -0.15195,1.2515 -0.52992,2.0503 -0.5975,1.2631 -1.0683,1.863 -1.0683,1.3614 0,-0.3402 -2.34255,2.5285 -2.83686,3.4744 -1.35719,2.597 -2.42479,6.6279 -1.96588,7.4225 0.0292,0.048 0.0505,0.073 0.0672,0.078 l 0.23628,0.4533 c 0.025,0.1131 0.0843,0.2972 0.19328,0.574 0.15571,0.3962 0.52428,0.9236 0.81901,1.1716 1.41646,1.1916 6.17036,-1.3725 8.11766,-4.3784 0.34815,-0.5372 1.09619,-1.6724 1.66272,-2.5225 0.36068,-0.5414 0.59283,-0.8965 0.73873,-1.1697 0.81971,4.5963 1.04931,4.5758 2.22916,6.1184 -0.0125,0.06 -0.025,0.1937 -0.0376,0.4154 -0.1866,3.5569 0.0756,5.1984 1.5172,9.501 1.33602,3.9873 1.7129,8.417 0.85795,10.0841 -0.44246,0.8627 -0.4789,1.1096 -0.53129,3.5902 -0.0292,1.4651 -0.13108,3.1033 -0.2225,3.6405 -0.0914,0.5372 -0.17158,1.3165 -0.17867,1.7316 l -0.0125,0.7548 h 0.21165 v 0.029 c 7.97243,0.073 15.65134,0.025 23.36173,0.01 0.0509,-1.5421 0.74023,-2.9829 1.95711,-3.7889 l 0.0292,-0.033 c 0.0292,-0.055 0.0125,-0.086 0.0488,-0.1461 0.39157,-0.6336 0.28846,-0.9995 0.93936,-1.6347 -0.16198,-0.5699 0.57178,-0.3724 0.38197,-0.8265 -0.56019,-1.2883 -0.82289,-2.146 -0.82289,-2.6869 0,-0.243 -0.11731,-0.5968 -0.26091,-0.7864 -0.1436,-0.1896 -0.263,-0.4855 -0.26634,-0.6575 0,-0.172 -0.15821,-0.6516 -0.34523,-1.0656 -0.1866,-0.4141 -0.39241,-1.0637 -0.45678,-1.4436 -0.15237,-0.8978 -1.68481,-3.8361 -3.10482,-5.9528 -1.39342,-2.0775 -2.38914,-4.1764 -2.229,-4.6988 0.34941,-1.1404 0.42088,-1.7204 0.3252,-2.6413 l -0.10437,-1.0029 0.67486,-1.5188 c 0.0292,0.076 0.20581,0.6216 0.4238,1.3218 0.483,1.5525 1.06184,2.7586 1.6717,3.4834 0.63215,0.7513 0.98448,1.712 1.29265,3.5237 0.72854,4.2838 2.32614,7.1098 5.05529,8.9424 1.37973,0.9264 2.68365,0.8003 3.85766,-0.3436 -0.0718,-0.3264 -0.18368,-0.8005 -0.37571,-1.3701 -0.1436,-0.4256 -0.29222,-0.8115 -0.42246,-1.0949 -0.0125,-0.025 -0.025,-0.053 -0.0376,-0.077 -0.008,-0.021 -0.0209,-0.042 -0.0292,-0.061 -0.008,-0.01 -0.008,-0.013 -0.008,-0.021 -0.92445,-0.3339 -1.69428,-1.0034 -2.10151,-1.9057 -0.58706,-1.3009 -0.74348,-1.6713 -0.87561,-2.187 -0.1244,-0.4855 -0.0852,-1.0994 0.18494,-1.5789 -0.17158,-0.4207 -0.30349,-0.8695 -0.30349,-1.1796 0,0 -0.0584,-0.3068 -0.1457,-0.6216 -0.10686,-0.3862 -0.22166,-0.8151 -0.20455,-1.1819 0,-0.025 0.0672,-0.2279 0.086,-0.3582 -0.24964,-0.8208 -0.27761,-2.5848 -0.18368,-3.5854 0.15988,-1.704 1.27925,-3.4805 2.82646,-4.7971 l -0.0952,-0.9294 c 0.14527,-1.0576 -0.10562,-6.8273 -0.4162,-8.5174 -0.82786,-4.5067 -1.5918,-6.5058 -3.05047,-7.9837 -0.43186,-0.4376 -0.86376,-0.9961 -1.2509,-1.5915 l -0.0376,-2.259 c 0.0472,-0.029 0.008,-0.5927 -0.11521,-1.7987 -0.19495,-1.9469 -0.13902,-2.5309 0.17408,-1.8099 0.22459,0.517 0.12648,-0.9011 -0.15947,-2.3086 0,-1.0792 0.3085,-1.6017 0.5401,-3.0032 l 0.35233,0.9609 -0.10895,-0.7992 c -0.0601,-0.4396 -0.26049,-1.1835 -0.44476,-1.6534 -0.48212,-1.2289 -0.69828,-2.2904 -0.85779,-4.207 -0.0772,-0.9278 -0.26257,-2.3264 -0.41244,-3.1078 -0.14987,-0.7813 -0.4463,-2.4996 -0.65933,-3.8182 -0.48663,-3.0128 -0.73806,-4.0695 -1.29544,-5.447 -0.41621,-1.0284 -0.42289,-1.0923 -0.10604,-1.0312 0.51681,0.099 0.13693,-0.4915 -1.24643,-1.9374 -1.34504,-1.4059 -2.67618,-2.1119 -3.96749,-2.1088 z m 4.72938,8.1187 c -0.0818,0.2893 -0.50315,2.1491 -0.75571,3.0776 -0.13777,1.5509 -0.21917,1.7702 -0.41662,3.524 -0.36695,1.4548 -1.33887,2.9016 -2.29317,4.29 -0.74403,1.1976 -0.6923,1.5524 -0.68892,3.0148 -0.74587,0.1557 -0.076,-2.2945 0.50386,-3.3899 3.12102,-2.9095 1.69383,-5.3534 3.65065,-10.5165 z m 7.09507,56.3133 h -0.008 l -0.0376,0.017 -0.0576,0.033 -0.008,0.017 c 0.0417,-0.017 0.0622,-0.053 0.10687,-0.067 z m -0.43257,1.2387 -0.008,0.013 0.0292,0.05 0.0251,0.038 c -0.0209,-0.021 -0.0334,-0.072 -0.0509,-0.098 z" />
  <path
     id="path78836"
     style="display:inline;opacity:0.7;fill:#aa0000;fill-opacity:1;stroke-width:0.173914"
     d="m 134.68297,165.4259 c -2.22791,0.013 -4.76291,1.2328 -6.96707,3.1895 -2.45154,2.1763 -4.49866,5.2918 -5.1584,8.821 -0.13401,0.7174 -0.4066,1.6157 -0.50579,1.8078 -0.11564,0.2233 -0.19579,0.5147 -0.27636,0.8678 -0.0802,0.3532 -0.14861,0.7541 -0.18743,1.1312 -0.071,0.6855 -0.33856,1.6114 -0.66501,2.3954 -0.16322,0.392 -0.34106,0.7507 -0.50942,1.0259 -0.16823,0.2756 -0.34357,0.4657 -0.41119,0.5108 l -0.38615,0.2567 c -0.15821,0.1048 -0.21374,0.3115 -0.12983,0.4818 l 0.42351,0.8552 c 0.30099,0.6075 0.75651,1.0694 1.38937,1.3455 0.63295,0.2759 1.42415,0.3853 2.46228,0.3991 0.008,0 0.008,0 0.008,0 0.90212,-0.013 1.47127,-0.1708 1.84335,-0.5354 0.37237,-0.3644 0.47022,-0.8253 0.62042,-1.3107 0.29932,-0.9671 0.74595,-2.2379 3.28838,-3.9237 0.24797,-0.099 0.41833,-0.1691 0.57567,-0.3235 0.0701,-0.069 0.1244,-0.1996 0.14026,-0.3361 0.0209,0.013 0.043,0.043 0.0605,0.05 0.0701,0.025 0.12482,0.033 0.17742,0.038 0.10437,0.013 0.20581,0.01 0.33772,0.01 0.23294,0 0.66326,0.074 0.80235,0.1257 0.45937,0.1707 0.90638,0.2767 1.27215,0.3106 0.18285,0.017 0.34315,0.021 0.50571,-0.017 0.0814,-0.021 0.16907,-0.047 0.26091,-0.1219 0.0643,-0.053 0.12273,-0.1428 0.1532,-0.2397 0,2e-4 0.008,-0.01 0.008,-0.013 0,0 0,0 0,-0.01 v -0.013 c 0.008,-0.029 0.0125,-0.06 0.0167,-0.091 0,0.038 8e-5,0.065 -0.008,0.084 0.0334,-0.038 0.0931,-0.096 0.17241,-0.1636 0.16448,-0.1403 0.40451,-0.3164 0.65632,-0.4826 0.25131,-0.1662 0.51694,-0.3248 0.73539,-0.4365 0.15905,-0.081 0.22125,-0.095 0.26884,-0.114 0.0125,0.078 0.0292,0.1678 0.0292,0.4259 0,0.4624 -0.008,0.8121 0.0376,1.1389 0.0451,0.3269 0.15989,0.6355 0.37738,0.909 0.43478,0.5473 1.18361,0.9916 2.70256,1.9732 0.21124,0.1365 0.45244,0.1991 0.74821,0.2592 0.29597,0.06 0.63716,0.1023 0.9925,0.1273 0.71067,0.05 1.46322,0.038 2.01296,-0.091 0.25883,-0.061 0.39575,-0.038 0.62164,0.1323 0.22584,0.1704 0.51296,0.5303 0.85878,1.1183 0.17826,0.3026 0.29264,0.4978 0.48116,0.652 0.0622,0.051 0.16531,0.069 0.25966,0.095 -0.008,0.045 -0.025,0.098 -0.0209,0.1349 0.0292,0.298 0.15738,0.4594 0.3661,0.8485 1.16195,2.1638 2.69109,4.059 3.09472,5.1186 0.57872,1.3128 0.85366,1.8871 1.99101,3.4861 0.0292,-0.013 0.048,-0.017 0.0768,-0.029 0.008,0.025 0.0125,0.038 0.0209,0.066 0.0781,0.2438 0.18242,0.5743 0.29388,0.9321 0.48175,1.5492 1.0547,2.7657 1.70894,3.5432 0.008,0.01 0.0125,0.013 0.0209,0.021 0.89173,0.9118 1.36341,1.3872 1.6573,1.6668 0.29389,0.2797 0.42555,0.3761 0.57366,0.4826 0.0167,0.013 0.0334,0.021 0.0543,0.033 0.4567,0.2263 0.70066,0.3657 1.00912,0.3953 0.3085,0.029 0.55074,-0.1006 0.83829,-0.2554 v 0 c 0.3803,-0.205 0.79596,-0.5423 1.1118,-0.8489 0.1578,-0.1532 0.28554,-0.2901 0.37989,-0.4342 0.0472,-0.072 0.1052,-0.129 0.11146,-0.3081 0,-0.033 -0.0417,-0.078 -0.0526,-0.1219 0.0376,-0.051 0.073,-0.1035 0.10102,-0.1528 0.0125,-0.025 0.0292,-0.038 0.0334,-0.042 0.048,-0.01 0.11563,0.021 0.14694,0.012 0.0802,-0.029 0.12942,-0.063 0.17867,-0.099 0.0981,-0.072 0.18619,-0.1578 0.2822,-0.2604 0.0601,-0.064 0.12566,-0.1445 0.18953,-0.2205 0,0 0,-1e-4 0,-2e-4 0,-2e-4 8e-5,-2e-4 0,0 -0.0376,-0.4108 -0.0539,-0.8552 -0.0547,-1.2866 0,0 0,0 0,0 0,-0.029 0,-0.057 0,-0.086 0,0 0,0 0,0 0,-0.1703 0.008,-0.3344 0.008,-0.4937 0,-0.044 0,-0.087 0.008,-0.1294 0,0 1.7e-4,0 0,0 0.008,-0.1816 0.0209,-0.3553 0.0334,-0.5074 0.008,-0.089 0.0209,-0.1778 0.0334,-0.2672 0.008,-0.029 0.008,-0.054 0.0125,-0.081 0.008,-0.064 0.025,-0.1277 0.0376,-0.1916 4e-5,0 4e-5,0 1.6e-4,0 0.008,-0.025 0.008,-0.048 0.0167,-0.073 0,0 0,-0.01 0,-0.013 0.0167,-0.073 0.0334,-0.1469 0.0547,-0.2204 0,0 0,0 0,-0.01 0,-0.01 0.008,-0.017 0.008,-0.025 0,0 0,-0.01 0.008,-0.013 0.025,-0.094 0.0555,-0.1887 0.0864,-0.2826 0,0 0.008,-0.013 0.008,-0.017 0.025,-0.076 0.0539,-0.1524 0.0831,-0.2288 0.0468,-0.121 0.096,-0.2417 0.15029,-0.3619 0.0209,-0.048 0.0451,-0.094 0.0672,-0.1415 0,0 0,0 0,0 0.0376,-0.08 0.0781,-0.1595 0.11981,-0.2384 0,0 0,0 0,0 0.0292,-0.054 0.0572,-0.1085 0.0868,-0.1628 0.0584,-0.1044 0.11981,-0.2083 0.18368,-0.3114 0,0 0,0 0,0 0.0417,-0.066 0.0835,-0.1307 0.12649,-0.1958 0.0334,-0.05 0.0672,-0.1002 0.10144,-0.1499 0,0 0,0 0,0 0.0985,-0.1427 0.20205,-0.283 0.31058,-0.4218 0,0 0,0 0,0 0.0125,-0.013 0.0209,-0.029 0.0334,-0.042 1.3e-4,-2e-4 0,-2e-4 0,0 0.0651,-0.082 0.1315,-0.1619 0.19954,-0.2421 0.0167,-0.017 0.0292,-0.033 0.0451,-0.053 0,0 0,0 0,0 0.13692,-0.1586 0.27969,-0.3139 0.42873,-0.4647 0,0 0.008,-0.01 0.008,-0.01 0,0 0,0 0,0 0.0806,-0.081 0.16239,-0.1616 0.2463,-0.2401 0.0994,-0.466 0.0472,-0.8759 -0.2776,-1.1749 0.0914,-0.017 0.19787,-0.084 0.25673,-0.1633 0.1173,-0.1594 0.0935,-0.2797 0.0822,-0.3656 -0.0125,-0.086 -0.0334,-0.1608 -0.0614,-0.2401 -0.11104,-0.3181 -0.33396,-0.7318 -0.60969,-1.2042 -0.5232,-0.8961 -1.19004,-1.8793 -1.61651,-2.3915 -0.008,-2.2335 -0.25715,-4.9862 -0.74557,-7.5284 -0.49607,-2.5835 -1.21138,-4.9296 -2.2379,-6.3037 l -2.99766,-4.0137 c -0.20998,-0.5616 -0.67214,-0.9875 -1.22481,-1.3142 -0.57621,-0.3406 -1.26434,-0.5842 -1.96024,-0.7548 -0.69577,-0.1707 -1.39839,-0.2659 -2.00178,-0.2938 -0.60343,-0.029 -1.08497,-0.01 -1.45445,0.1377 -0.44973,0.1787 -0.92346,0.5101 -1.39535,0.8601 -0.47189,0.3498 -0.93485,0.7203 -1.28643,0.9654 -0.84113,0.5863 -1.6638,0.9047 -2.53695,1.9798 -0.54403,0.67 -1.14692,1.2505 -1.74087,1.8514 0.0334,-0.1954 0.0209,-0.3561 0.0672,-0.5819 0.12523,-0.6302 0.25882,-1.3993 0.2154,-2.4379 -0.0701,-1.6802 -0.55191,-2.9276 -0.74745,-3.3958 -0.73397,-1.7567 -2.10614,-2.7014 -3.70099,-2.8961 -0.22417,-0.029 -0.45289,-0.042 -0.68454,-0.042 v 0 c -0.0167,0 -0.0334,0 -0.0526,0 z m -0.86359,16.7805 c 0,0 0,1e-4 0,0.01 l 0.008,-0.01 z" />
  <path
     id="path78838"
     style="display:inline;fill:#000000;stroke-width:0.167545"
     d="m 195.18127,131.3208 c -1.52133,1.4292 -1.74859,-0.2981 -2.4391,1.1267 -1.27316,-0.045 -2.99996,1.6791 -3.66538,2.8512 -1.67424,1.8813 -0.3707,5.7153 -2.0988,7.7435 -2.70848,2.497 -0.0334,6.1797 0.57409,8.9464 -1.17643,1.5565 -0.24505,1.6259 -1.16207,3.3626 -1.65183,1.7765 -2.30836,2.1934 -4.41868,3.5179 -1.36992,1.286 -4.18707,1.8038 -4.27749,2.7177 -1.68618,1.0541 -2.58425,2.3143 -3.56122,3.7362 -1.51449,1.5275 -1.80708,2.5916 -2.53395,3.8324 -1.81956,2.7247 -1.34308,6.2328 -1.28434,9.3901 0.008,3.5638 -0.2893,7.2662 -0.27552,10.7393 0.0739,1.141 -0.0964,1.8782 -0.32144,2.5187 0.4316,-0.025 0.86676,0.1949 1.05745,0.291 0.23085,0.1164 0.53881,0.2145 0.68246,0.2333 0.32937,0.043 0.84939,0.1945 1.14249,0.3381 0.1866,0.091 0.36986,0.238 0.53722,0.3966 0.25256,0.05 0.48387,0.1382 0.65983,0.2584 0.13066,0.089 0.42,0.2793 0.64025,0.4199 0.50495,0.3227 1.27065,0.9217 1.76333,1.3762 0.16573,0.1528 0.45018,0.4045 0.63227,0.5589 1.17735,0.9988 2.6139,4.4475 2.58756,6.0805 -0.0125,0.7275 -0.10687,1.645 -0.28053,2.2814 0.64634,1.3352 0.63102,2.7669 -0.063,4.1029 -0.12273,1.4338 -0.59892,2.7729 -1.14454,4.0945 -0.18284,0.7939 -0.4991,1.4884 -0.89398,2.133 -0.55989,1.3738 -1.03587,2.7715 -1.10633,4.2804 0.13609,3.3934 1.96253,1.5371 12.32848,2.2828 11.03705,-0.51 18.67877,5.9863 17.9359,-5.5484 -0.45844,-3.3672 -1.86581,-6.4105 -1.86581,-9.8598 -0.1315,-3.309 -1.60875,-4.9105 -2.06206,-7.8061 -0.1507,-1.7072 -0.15112,-3.4226 -0.21499,-5.1342 0.94808,2.0394 2.59523,4.1342 4.94158,4.1299 3.13271,-0.301 3.30979,-3.8954 4.7465,-6.3005 1.64465,-2.2226 3.93009,-4.8931 3.45816,-7.6204 0.43703,-2.8406 1.11222,-3.1704 1.72292,-6.1113 0.70708,-3.1728 0.67824,-6.7286 -0.3707,-9.7009 -1.12321,-2.45 -1.11465,-3.48 -3.71614,-4.8815 -1.63964,-1.2701 -2.5848,-1.3604 -4.64448,-0.9225 -1.83,0.5867 -4.23303,2.4915 -5.55599,1.1359 -2.21552,-0.8948 -1.73043,-0.8347 -4.14558,-1.498 -0.69043,1.0005 -0.28679,-1.2902 1.69019,-1.0329 2.21494,-0.7393 1.93837,-3.6857 3.07347,-5.2692 0.42794,-3.5373 1.58257,-7.0734 1.3842,-10.6808 1.07758,-2.2515 -0.091,-4.7891 0.24755,-6.5834 -0.96265,-1.3832 -2.73642,-2.7136 -3.32198,-3.9949 -2.29905,-0.4482 -4.30651,-2.1627 -6.67677,-1.4891 -0.0726,-0.3824 0.96444,-0.043 0.29472,-0.4425 z m -22.54022,61.7107 h -0.0167 -0.0125 -0.008 c 0.0509,-0.01 0.0927,0.013 0.14235,0.01 h -0.008 -0.0334 -0.0292 -0.025 z" />
  <path
     id="path78840"
     style="display:inline;fill:#808080;fill-opacity:1;stroke:none;stroke-width:0.168609px;stroke-linecap:butt;stroke-linejoin:miter;stroke-opacity:1"
     d="m 179.3559,160.007 -1.23563,0.7247 -2.55482,2.1415 c 0,0 -1.7994,2.3495 -2.36685,3.2953 -0.56744,0.9457 -2.55286,3.4567 -2.6356,4.4429 -0.0827,0.9862 -0.55221,3.638 -0.63653,5.258 -0.0843,1.6199 -0.11689,8.1809 -0.11689,8.1809 l 7.17488,0.1808 c 0.92754,0.085 8.77035,4.5515 8.37005,7.319 l -2.82817,4.3702 -4.83292,0.8289 c 0.0526,0.084 0.10478,0.1728 0.15697,0.2622 0.008,0.013 0.0167,0.025 0.0209,0.038 0.0534,0.092 0.10562,0.1866 0.1578,0.2834 1.6e-4,2e-4 0,2e-4 0,0 0,0 0,0 0,0 0.16447,0.3064 0.32186,0.6318 0.46863,0.9672 0,0 0,0 0,0 0,0 0,0 0,0 0.0468,0.1069 0.0918,0.2138 0.13609,0.3215 0.008,0.017 0.0125,0.033 0.0209,0.047 0.12356,0.3051 0.23586,0.6118 0.33479,0.9145 0.0125,0.038 0.025,0.076 0.0376,0.1136 0.025,0.082 0.0509,0.1636 0.0743,0.2446 0.0125,0.046 0.0251,0.091 0.0376,0.1369 0.0209,0.08 0.0442,0.1587 0.0643,0.2367 0.008,0.042 0.0209,0.081 0.0292,0.1219 0.0334,0.1303 0.0593,0.2572 0.0827,0.3812 0.008,0.053 0.0209,0.1072 0.0292,0.1594 0.008,0.061 0.0209,0.1203 0.0251,0.1791 0.008,0.052 0.0125,0.1019 0.0167,0.1515 0.008,0.055 0.0125,0.1103 0.0167,0.1629 0,0.054 0.008,0.1047 0.008,0.1561 0,0.038 0.008,0.081 0.008,0.1173 -0.0167,0.9006 -0.15446,2.1002 -0.41662,2.6856 -0.0526,0.1169 -0.15571,0.3862 -0.22584,0.5935 -0.0167,0.049 -0.0731,0.1587 -0.10645,0.2447 l -0.0167,0.063 c 0.008,0.1523 -0.0747,0.298 -0.15195,0.4624 -0.0472,0.1019 -0.043,0.2067 -0.13693,0.301 0.008,0.5963 -0.0747,1.3371 -0.29639,1.7701 l -0.0572,1.5463 c 0.025,0.1335 0.0459,0.2913 0.0668,0.4721 0.40034,0.336 3.31856,2.68 7.03724,2.7524 4.00294,0.078 12.20025,-1.2145 13.49824,-1.3356 1.29816,-0.1211 5.44653,-2.9815 5.67233,-4.1171 0.22585,-1.1356 0.3085,-1.912 0.3085,-1.912 l -0.86233,-4.8284 c 0,0 -0.48659,-3.9315 -0.51281,-5.7397 -0.025,-1.8082 -1.35334,-4.3625 -1.35334,-4.3625 l -0.0614,-3.8282 0.13651,-1.5419 3.83862,-0.7554 0.85215,-7.892 -5.2808,-3.5715 1.24013,-6.8385 0.82114,-1.9367 0.38614,-1.0767 -0.0605,-0.063 c 0,0 -3.5598,-1.9297 -4.13046,-2.0134 -0.5705,-0.083 -2.42412,0.1148 -2.42412,0.1148 l -0.45223,1.442 -0.32854,1.0866 c 0,0 0.7743,2.2031 0.32228,3.3009 -0.45182,1.0979 -11.2459,13.3399 -12.75951,12.5022 -1.06447,-0.5892 -2.12581,-5.8345 -2.00391,-9.2987 0.0509,-1.4611 1.65496,-2.5938 1.39046,-2.9455 -0.24171,-0.3214 3.46028,-2.1285 3.29418,-2.4477 -0.44664,-0.8586 -0.7022,-1.6228 -1.21108,-1.8239 -0.69819,-0.276 -6.08177,-2.7594 -6.08177,-2.7594 z m -0.76896,44.895 c 0,0 0,0.017 0,0.025 0,0.013 0,0.029 0.008,0.042 0,0 0.008,0 0.008,0.01 z" />
  <path
     id="path78842"
     style="display:inline;opacity:0.7;fill:#aa0000;fill-opacity:1;stroke-width:0.171761"
     d="m 209.60338,160.6497 c -1.0987,0.1277 -2.18601,0.3118 -3.09652,0.6105 -1.99263,0.6536 -3.89689,1.9172 -5.11528,3.6617 -0.79128,1.4313 -1.70868,3.532 -1.81856,5.341 -0.94257,-1.679 -1.53874,-2.2609 -2.55014,-3.6485 -3.82911,-3.2669 -6.36853,-4.0554 -8.04223,-4.0667 -0.55784,-0.01 -1.01947,0.079 -1.4006,0.1845 -5.06431,1.8599 -6.99241,7.9535 -10.27169,12.0006 -0.57003,1.8933 -1.7081,2.4232 -2.35148,5.2408 -1.7913,3.1347 -3.36063,6.9637 -4.56361,10.9984 0.37696,0.4283 0.73301,0.8909 1.08676,1.3598 0.32979,0.047 0.83278,0.1933 1.11982,0.334 0.1866,0.091 0.36986,0.2379 0.53722,0.3966 0.25256,0.05 0.48387,0.1381 0.65983,0.2584 0.13066,0.089 0.42,0.2792 0.64025,0.4198 0.50495,0.3227 1.27065,0.9218 1.76333,1.3763 0.16573,0.1528 0.45018,0.4045 0.63228,0.5588 0.42601,0.3615 0.88538,1.0456 1.29774,1.8465 2.30239,0.4066 4.5609,-0.7675 5.73725,-2.912 -1.09181,0.892 -0.071,-0.4062 0.18702,-0.7354 1.23074,-1.9111 2.57144,-5.239 4.43704,-5.5717 1.65508,-0.9886 1.2818,-4.8758 3.5411,-3.4803 0.0125,-0.7771 0.11856,-0.7853 0.80995,-1.1127 -0.34106,-2.5447 1.78716,-1.4406 2.86662,-0.2964 0.98603,0.7369 3.03252,-0.094 3.53843,-0.469 0.61654,-0.6063 1.66251,-2.0948 1.57243,-3.5241 0.10269,-1.0271 0.15779,-2.2484 0.13901,-3.4389 0.80886,0.8678 1.97385,1.3323 3.09438,0.925 1.53874,0.9888 0.78908,3.0891 1.11507,4.5479 -0.49427,1.5273 -0.52754,3.2001 0.20622,4.6616 0.51915,1.5688 1.98124,2.5735 3.3641,3.2861 1.40645,-0.2726 4.0969,0.065 5.0535,-0.963 0.78193,-1.9218 2.20959,-5.7101 2.43835,-7.3229 1.08192,-4.4617 1.17981,-6.2621 1.49825,-9.5975 0.35609,-4.1579 -2.34004,-8.2905 -4.33168,-9.6253 -1.86719,-1.1958 -2.15482,-1.129 -3.79416,-1.2442 z m -36.96233,32.3818 h -0.0167 -0.0125 -0.008 c 0.0509,-0.01 0.0927,0.013 0.14235,0.01 h -0.008 -0.0334 -0.0292 -0.025 z" />
  <path
     id="path78844"
     style="display:inline;fill:#000000;stroke:none;stroke-width:0.090548px;stroke-linecap:butt;stroke-linejoin:miter;stroke-opacity:1"
     d="m 157.0535,221.3378 -26.6522,2.7221 c 0,0 -7.69949,20.6008 -7.90037,24.4098 -0.0434,0.8267 -0.0334,2.4321 0.008,4.4584 l 0.6213,-0.6541 10.87724,3.3453 6.22496,-16.9995 0.46158,-1.375 c 0,0 2.43965,-1.0675 0.72299,-0.2413 -0.82309,0.3962 -1.52517,4.476 -2.0353,9.0052 l 2.49292,0.3719 10.12904,9.0539 3.92904,-20.4145 0.69105,-1.5188 c -0.008,-0.6738 -0.008,-1.2652 0.0251,-1.6673 -0.0555,-0.055 -0.0973,-0.098 -0.16865,-0.1679 -0.96445,-0.9437 -1.72175,-1.9143 -1.72175,-2.8179 0,0 -0.0476,-0.088 -0.14736,-0.3657 -0.79617,-2.2129 -0.14027,-4.7197 1.62557,-5.8894 l 0.0292,-0.033 c 0.0292,-0.055 0.0125,-0.086 0.0488,-0.1465 0.18535,-0.2997 0.26133,-0.6528 0.58473,-0.7697 z m -0.36444,9.9482 -0.0418,0.2889 0.0209,0.042 c 0.008,-0.083 0.0125,-0.2271 0.0209,-0.3307 z" />
  <path
     style="display:inline;fill:#808080;fill-opacity:1;stroke:none;stroke-width:0.18385px;stroke-linecap:butt;stroke-linejoin:miter;stroke-opacity:1"
     d="m 129.96857,174.5424 -3.05314,14.7589 c 0,0 -0.26007,1.4757 -0.14819,1.954 0.11187,0.4784 0.26424,1.5004 0.6597,2.6736 0.39533,1.1731 1.23329,2.7105 1.23329,2.7105 0,0 0.5927,0.584 0.39616,2.3625 -0.19662,1.7785 -0.0885,7.0056 0.25465,7.5996 0.34315,0.594 1.3422,5.1372 1.28655,7.221 -0.0555,2.0838 -0.13609,6.1741 -0.33396,7.6318 -0.19746,1.4576 0.0726,2.9949 0.97964,3.2158 0.90746,0.2209 2.88081,1.0139 4.35923,1.0139 1.47846,0 8.73006,0.956 12.52636,-0.055 3.79625,-1.0116 7.5824,-2.4693 8.83059,-4.0223 1.24823,-1.553 1.35338,-1.3571 1.0385,-2.0978 -0.31476,-0.7407 -1.21617,-3.8152 -1.35402,-4.2155 -0.13776,-0.4003 -2.78467,-6.1462 -2.78467,-6.1462 0,0 -1.9218,-5.5419 -1.9081,-6.0016 0.0125,-0.4596 -0.14653,-3.5721 -0.14653,-3.5721 l -2.80313,-6.9873 -5.10547,-7.0051 -4.01316,-0.3281 -3.02387,-2.1994 -1.56625,-3.7325 -4.31991,2.2073 z"
     id="path78846" />
  <path
     id="path78848"
     style="display:inline;fill:#aa0000;fill-opacity:1;stroke-width:0.171761"
     d="m 209.60338,160.6497 c -1.0987,0.1277 -2.18601,0.3118 -3.09652,0.6105 -1.99263,0.6536 -3.89689,1.9171 -5.11528,3.6617 -0.79128,1.4313 -1.70868,3.532 -1.81856,5.341 -0.94257,-1.679 -1.53874,-2.2609 -2.55014,-3.6485 -3.82911,-3.2669 -6.36853,-4.0554 -8.04223,-4.0667 -0.55784,-0.01 -1.01947,0.079 -1.4006,0.1845 -5.06431,1.86 -6.99241,7.9537 -10.27169,12.0008 -0.57003,1.8933 -1.7081,2.4233 -2.35148,5.2408 -1.7913,3.1348 -3.36063,6.9636 -4.56361,10.9984 0.37696,0.4283 0.73301,0.8909 1.08676,1.3598 0.32979,0.047 0.83278,0.1933 1.11982,0.334 0.1866,0.091 0.36986,0.2379 0.53722,0.3966 0.25256,0.05 0.48387,0.1381 0.65983,0.2584 0.13066,0.089 0.42,0.2793 0.64025,0.4199 0.50495,0.3226 1.27065,0.9217 1.76333,1.3762 0.16573,0.1528 0.45018,0.4045 0.63228,0.5588 0.42601,0.3615 0.88538,1.0456 1.29774,1.8465 2.30239,0.4066 4.5609,-0.7675 5.73725,-2.912 -1.09181,0.892 -0.071,-0.4062 0.18702,-0.7354 1.23074,-1.9111 2.57144,-5.2391 4.43704,-5.5718 1.65508,-0.9886 1.2818,-4.8757 3.5411,-3.4801 0.0125,-0.7772 0.11856,-0.7854 0.80995,-1.1128 -0.34106,-2.5446 1.78716,-1.4406 2.86662,-0.2964 0.98603,0.7369 3.03252,-0.094 3.53843,-0.469 0.61654,-0.6062 1.66251,-2.0948 1.57243,-3.5241 0.10269,-1.0271 0.15779,-2.2484 0.13901,-3.4389 0.80886,0.8678 1.97385,1.3324 3.09438,0.925 1.53874,0.9888 0.78908,3.0891 1.11507,4.5479 -0.49427,1.5273 -0.52754,3.2001 0.20622,4.6616 0.51915,1.5688 1.98124,2.5735 3.3641,3.2861 1.40645,-0.2726 4.0969,0.065 5.0535,-0.963 0.78193,-1.9218 2.20959,-5.7101 2.43835,-7.3229 1.08192,-4.4617 1.17981,-6.2621 1.49825,-9.5975 0.35609,-4.1579 -2.34004,-8.2905 -4.33168,-9.6253 -1.86719,-1.1958 -2.15482,-1.129 -3.79416,-1.2442 z m -4.29273,3.091 c 0.0292,0 0.0564,-2e-4 0.0856,0.01 0.008,0.765 0.34064,1.4771 0.6018,2.1813 0.3206,0.8735 0.71218,1.7285 0.9313,2.6332 0.025,0.6389 -0.32019,2.6838 0.79162,2.0741 1.02059,0.2976 -1.31248,0.6271 -0.53134,0.6531 1.18023,0.339 -1.47666,0.8009 -0.48078,0.9324 0,0.3815 -1.71724,0.7162 -2.29254,0.1269 -0.84138,-0.7288 -1.08822,-1.985 -0.96883,-3.063 0.0497,-0.2751 0.11522,-1.9585 -0.11354,-1.2593 -0.42785,1.1007 -0.0831,-0.1941 -0.48993,-0.5283 0.0209,-0.7463 0.3014,-1.6031 0.42004,-2.408 0.66217,-0.4315 1.17539,-1.3677 2.0467,-1.3472 z m -20.06242,2.1852 c 0.14486,0 0,0.2801 -0.14695,0.3552 -0.51885,0.4652 0.69432,0.4755 0.58064,0.9646 -0.21958,0.5423 0.0334,1.1404 0.37362,1.5718 0.37363,0.2012 0.21082,0.5151 0.11063,0.8273 0.18911,0.62 0.36527,1.2476 0.5424,1.8727 0.0605,0.4722 0.56352,0.7389 0.52332,1.2519 -0.0417,0.4807 -0.008,0.9624 0.0814,1.437 -0.0872,0.5176 -0.59762,0.7633 -0.98135,1.0432 -0.80068,0.4192 -1.26359,1.2277 -1.92108,1.8148 0.0209,0.3102 -0.34482,0.029 -0.4443,-0.051 -0.57605,-0.5237 -0.56995,-1.3642 -0.61245,-2.0826 0.0334,-0.3527 -0.30224,-1.0648 -0.36193,-2.3056 0.0789,-0.5475 -0.26383,-1.021 -0.42384,-1.5193 -0.23002,-0.5339 0.15278,-1.0509 0.17783,-1.5835 -0.0125,-0.4697 -0.13692,-1.2209 0.45732,-1.3814 0.071,-0.3556 0.12399,-0.7262 0.30683,-1.0461 0.38281,-0.5347 0.98277,-0.8835 1.58775,-1.1211 0.0681,-0.033 0.11689,-0.048 0.15028,-0.048 z m 28.66537,16.6028 c -0.73877,1.5244 -2.45526,1.9002 -3.98816,1.8366 -1.90422,0.5809 3.83483,-0.3883 1.43818,0.6837 -0.48079,0.017 0.16239,-0.6682 -0.47035,-0.2392 0.0251,0.2998 0.88659,1.1289 0.0547,0.622 -0.20205,0.7643 0.22334,2.8409 -0.26509,2.6425 -0.36527,-0.187 -1.23257,0.7671 -1.54813,-0.063 0.37321,-0.2513 -1.46919,-0.6963 -1.88881,-0.314 -1.04669,-0.5626 0.30015,-1.5131 0.0914,-1.4661 -1.45404,-0.8033 -0.64543,-3.6796 1.35376,-2.6897 1.40069,0.8571 3.48262,0.6961 4.67758,-0.5696 l 0.26175,-0.2371 z m -34.43622,7.2656 c 0.17658,0.6044 1.082,0.5632 1.56674,0.7801 -0.16322,1.0785 4.65254,-1.2654 3.7045,1.0478 -1.33435,-0.1653 -1.21788,4.1424 -2.6485,2.8112 -0.0547,1.5197 -0.33271,1.4556 -1.35894,1.6296 -0.87624,-0.5661 -2.88474,0.6828 -2.93112,-0.7854 -0.63399,-0.1845 0.47373,-1.1221 0.74491,-0.8629 1.89608,-0.9303 -0.43762,-3.3905 0.92241,-4.6204 z m -6.83633,3.2372 h -0.0167 -0.0125 -0.008 c 0.0509,-0.01 0.0927,0.013 0.14235,0.01 h -0.008 -0.0334 -0.0292 -0.025 z" />
  <path
     id="path78850"
     style="display:inline;fill:#aa0000;fill-opacity:1;stroke-width:0.173914"
     d="m 134.68297,165.4259 c -2.22791,0.013 -4.76291,1.2328 -6.96707,3.1895 -2.45154,2.1763 -4.49866,5.2918 -5.1584,8.821 -0.13401,0.7174 -0.4066,1.6157 -0.50579,1.8078 -0.11564,0.2233 -0.19579,0.5147 -0.27636,0.8678 -0.0802,0.3532 -0.14861,0.7541 -0.18743,1.1312 -0.071,0.6855 -0.33856,1.6114 -0.66501,2.3954 -0.16322,0.392 -0.34106,0.7506 -0.50942,1.0259 -0.16823,0.2756 -0.34357,0.4657 -0.41119,0.5108 l -0.38615,0.2567 c -0.15821,0.1048 -0.21374,0.3115 -0.12983,0.4818 l 0.42351,0.8552 c 0.30099,0.6075 0.75655,1.0694 1.38937,1.3455 0.63299,0.2759 1.42415,0.3853 2.46228,0.3991 0.008,0 0.008,0 0.008,0 0.90212,-0.013 1.47127,-0.1708 1.84335,-0.5354 0.37195,-0.3644 0.47022,-0.8252 0.62042,-1.3107 0.29932,-0.9671 0.74595,-2.2379 3.28838,-3.9237 0.24755,-0.099 0.41833,-0.1691 0.57567,-0.3235 0.0701,-0.069 0.1244,-0.1996 0.14026,-0.3361 0.0209,0.013 0.043,0.043 0.0605,0.05 0.0701,0.025 0.12482,0.033 0.17742,0.038 0.10437,0.013 0.20581,0.01 0.33772,0.01 0.23294,0 0.66326,0.074 0.80235,0.1257 0.45929,0.1707 0.90638,0.2767 1.27215,0.3106 0.18285,0.017 0.34315,0.021 0.50571,-0.017 0.0814,-0.021 0.16907,-0.047 0.26091,-0.1219 0.0643,-0.053 0.12273,-0.1428 0.1532,-0.2397 0,2e-4 0.008,-0.01 0.008,-0.013 0,0 0,0 0,-0.01 v -0.013 c 0.008,-0.029 0.0125,-0.06 0.0167,-0.091 0,0.038 8e-5,0.065 -0.008,0.084 0.0334,-0.038 0.0931,-0.096 0.17241,-0.1636 0.16448,-0.1403 0.40451,-0.3164 0.65632,-0.4826 0.25131,-0.1666 0.51694,-0.3248 0.73539,-0.4365 0.15905,-0.081 0.22125,-0.095 0.26884,-0.114 0.0125,0.078 0.025,0.1678 0.025,0.4259 0,0.4624 -0.008,0.8121 0.0376,1.1389 0.0442,0.3269 0.15989,0.6354 0.37738,0.909 0.43482,0.5473 1.18361,0.9916 2.70252,1.9732 0.21123,0.1365 0.45244,0.1991 0.74824,0.2592 0.29598,0.06 0.63721,0.1023 0.99246,0.1273 0.71076,0.05 1.46322,0.038 2.01297,-0.091 0.25882,-0.061 0.39575,-0.038 0.62163,0.1323 0.22584,0.1704 0.51297,0.5303 0.85879,1.1183 0.17825,0.3026 0.29263,0.4978 0.48116,0.652 0.0622,0.051 0.16573,0.07 0.25965,0.095 -0.008,0.045 -0.0292,0.098 -0.0209,0.1349 0.0292,0.298 0.15738,0.4594 0.36611,0.8485 1.16198,2.1638 2.69112,4.059 3.09472,5.1186 0.57876,1.3128 0.85369,1.8871 1.99096,3.4861 0.0292,-0.013 0.048,-0.017 0.0768,-0.029 0.008,0.025 0.0125,0.038 0.0209,0.066 0.0781,0.2438 0.18243,0.5741 0.29389,0.9321 0.48166,1.5491 1.0547,2.7656 1.70893,3.5431 0.008,0.01 0.0125,0.012 0.0209,0.021 0.89173,0.9118 1.36337,1.3873 1.6573,1.6668 0.29389,0.2797 0.42547,0.3761 0.57371,0.4827 0.0167,0.013 0.0334,0.021 0.0539,0.033 0.45665,0.2263 0.70066,0.3657 1.00911,0.3953 0.3085,0.029 0.55079,-0.1006 0.83825,-0.2554 v 0 0 0 c 0.3803,-0.205 0.79596,-0.5424 1.11189,-0.849 0.1578,-0.1532 0.28554,-0.2901 0.37989,-0.4341 0.0472,-0.072 0.10519,-0.1286 0.11146,-0.3081 0,-0.033 -0.0417,-0.078 -0.0526,-0.1219 0.0376,-0.051 0.073,-0.1035 0.10102,-0.1528 0.0125,-0.025 0.0292,-0.038 0.0334,-0.042 0.048,-0.01 0.11563,0.021 0.14694,0.013 0.0802,-0.029 0.12941,-0.063 0.17867,-0.099 0.0981,-0.072 0.18619,-0.1578 0.28262,-0.2605 0.0605,-0.065 0.12482,-0.139 0.18994,-0.2158 -0.0209,-0.2375 -0.0376,-0.4843 -0.0459,-0.7373 -0.41328,0.5291 -0.7472,0.9039 -0.7472,0.8356 0,-0.07 0.25423,-0.4666 0.56523,-0.881 0.0593,-0.079 0.11522,-0.1574 0.17533,-0.2388 -0.008,-0.2501 0,-0.4949 0,-0.7293 -0.10853,0.1716 -0.21582,0.3415 -0.34064,0.5355 -1.05708,1.6448 -0.89815,1.6566 -2.04423,-0.1536 -1.1258,-1.7783 -1.12404,-1.8004 0.32728,-3.7519 1.37994,-1.8556 2.13591,-3.4988 2.31366,-5.0298 0.0689,-0.5916 0.13359,-0.998 0.15989,-1.0139 0.008,1e-4 0.008,0.01 0.008,0.033 0.19202,1.2071 1.23984,2.11 1.50141,2.7889 0.48421,0.7172 0.31643,0.8239 0.0893,1.7849 l -0.0209,0.081 c 0.1603,-0.1753 0.33062,-0.3431 0.50503,-0.5077 0.0994,-0.4661 0.0472,-0.8759 -0.27761,-1.175 0.0914,-0.017 0.19788,-0.083 0.25674,-0.1632 0.1173,-0.1595 0.0935,-0.2797 0.0822,-0.3661 -0.0125,-0.086 -0.0334,-0.1607 -0.0614,-0.2401 -0.11146,-0.3181 -0.33396,-0.7318 -0.60969,-1.2041 -0.5232,-0.8962 -1.19004,-1.8794 -1.61647,-2.3916 -0.008,-2.2335 -0.25757,-4.9862 -0.74557,-7.5284 -0.49602,-2.5834 -1.21142,-4.9296 -2.23794,-6.3037 l -2.99757,-4.0136 c -0.20998,-0.5616 -0.67215,-0.9875 -1.22486,-1.3142 -0.57625,-0.3407 -1.26438,-0.5843 -1.96028,-0.7548 -0.69577,-0.1708 -1.39814,-0.2659 -2.00161,-0.2939 -0.60335,-0.029 -1.08509,-0.01 -1.45458,0.1377 -0.44973,0.1787 -0.9235,0.5102 -1.39539,0.8601 -0.4718,0.3498 -0.93485,0.7203 -1.28634,0.9654 -0.84113,0.5863 -1.66389,0.9047 -2.53704,1.9799 -0.54399,0.6699 -1.14688,1.2504 -1.74087,1.8513 0.0334,-0.1954 0.0209,-0.3561 0.0672,-0.5819 0.12565,-0.6302 0.25882,-1.3993 0.2154,-2.4379 -0.0701,-1.6802 -0.55166,-2.9276 -0.74724,-3.3957 -0.73401,-1.7568 -2.10635,-2.7015 -3.70111,-2.8961 -0.22418,-0.029 -0.45282,-0.042 -0.68446,-0.042 v 0 c -0.0167,-1e-4 -0.0334,-1e-4 -0.0526,0 z m -5.55787,8.2443 h 1.3e-4 c 0,-1e-4 0.008,0 0.008,0 0.008,-1e-4 0.008,0 0.008,0 0.37612,0 0.16656,0.3139 -0.50671,0.7594 -0.73075,0.4837 -0.87691,0.539 -0.86797,0.3277 0.0167,-0.369 0.89594,-1.0701 1.35748,-1.0871 z m 1.84607,1.913 v 0 0 c 0,0 0,0 0.008,0 0.048,0 0.0868,0.038 0.0868,0.087 0,0.048 -0.0376,0.087 -0.0868,0.087 -0.048,0 -0.0868,-0.038 -0.0868,-0.087 0,-0.045 0.0334,-0.083 0.0797,-0.087 z m 0.61554,0.025 1.2e-4,2e-4 h 0.008 c 0.008,-2e-4 0.0167,1e-4 0.025,0 0.30516,0.01 0.90863,0.2684 0.97305,0.4615 0.10144,0.3048 -0.74641,0.2559 -1.00724,-0.058 -0.12106,-0.1457 -0.17449,-0.311 -0.11897,-0.3661 0.025,-0.025 0.0659,-0.038 0.12064,-0.038 z m 1.90802,1.0148 c 0,0 0,1e-4 0.008,0 0.14861,0 0.34941,0.098 0.41286,0.2626 0.0568,0.1495 0.008,0.2609 -0.12691,0.2609 -0.2584,0 -0.45819,-0.164 -0.45819,-0.3765 0,-0.094 0.068,-0.1403 0.15779,-0.1461 0.008,-2e-4 0.008,-2e-4 0.008,0 z m -2.39636,2.8257 c 0.0209,0 0.0643,0.064 0.13818,0.1795 0.10812,0.1695 0.16531,0.5607 0.1269,0.8696 -0.0547,0.4368 -0.0768,0.465 -0.10018,0.1269 -0.0167,-0.2392 -0.0731,-0.6304 -0.12649,-0.8695 -0.0417,-0.1874 -0.0593,-0.2856 -0.0451,-0.3035 h 0.008 z m 7.22389,1.1803 c 0,0 -8e-5,0 0.008,0 0,0 0,0 0.008,0 0,0 0,0 0.008,0 0.20831,0 0.38197,0.056 0.38197,0.1816 0,0.1048 0.14778,0.139 0.33855,0.079 0.24213,-0.077 0.4208,0.021 0.62882,0.336 0.15988,0.2438 0.49105,0.5413 0.73609,0.6608 0.49619,0.2421 0.71644,0.6522 0.35025,0.6522 -0.13025,0 -0.39116,-0.1052 -0.57993,-0.2338 -0.18869,-0.1286 -0.73426,-0.3302 -1.21254,-0.4481 -1.05758,-0.2605 -1.56575,-0.655 -1.28238,-0.9966 0.11522,-0.139 0.3707,-0.2183 0.59709,-0.2292 0.008,0 0.0209,0 0.0292,0 z m 13.50328,0.4305 c 0.008,-1e-4 0.008,10e-5 0.0125,0 0.48612,-0.01 0.89343,0.1641 0.98344,0.4915 0.35859,1.303 -1.80316,4.6255 -3.02221,4.6452 -0.21165,0.01 -0.58034,0.1181 -0.8195,0.2546 -0.88977,0.5087 -1.39234,0.064 -1.38971,-1.2309 0,-1.3575 0.6319,-2.4982 1.67057,-3.0292 0.46717,-0.2388 1.0676,-0.5788 1.3336,-0.7552 0.36235,-0.24 0.80231,-0.3632 1.19659,-0.3748 0.0125,-3e-4 0.025,0 0.0376,0 z m -18.00616,1.1451 c 0,0 0,0 0,0.01 l 0.008,-0.01 z m 8.35862,0.8947 v 0 0 c 0.008,-1e-4 0.008,0 0.008,0 0.17658,0 0.35483,0.1382 0.35483,0.3143 0,0.2117 -0.47068,0.2129 -0.6013,0 -0.0555,-0.089 -0.0209,-0.2116 0.0768,-0.2713 0.0488,-0.029 0.10353,-0.043 0.15864,-0.045 z m -3.441,0.1657 v 0 c 0.13025,-0.01 0.34899,0.068 0.67469,0.2021 0.38364,0.1586 1.01037,0.4175 1.39296,0.5754 0.38239,0.1582 0.69569,0.3536 0.69569,0.4347 0,0.1991 -0.0125,0.1949 -0.60881,-0.2004 -0.55234,-0.3657 -1.47825,-0.471 -1.47825,-0.1678 0,0.2701 -0.63144,-0.1094 -0.76632,-0.4608 -0.0973,-0.2534 -0.0822,-0.3783 0.0835,-0.3828 0,-2e-4 0.008,0 0.008,0 z m 4.62782,0.8381 h 0.008 c 0,0 0.008,0 0.008,0 0.2104,0 0.4554,0.3298 0.3348,0.4506 -0.0442,0.044 -0.17867,-0.038 -0.29973,-0.1853 -0.13192,-0.1591 -0.14904,-0.258 -0.0472,-0.2651 z m -2.95608,0.5415 h 0.008 c 0,0 0.008,0 0.008,0 0.008,-1e-4 0.0167,0 0.025,0 0.0605,0 0.11229,0.017 0.1411,0.047 0.0576,0.058 -0.0442,0.099 -0.22794,0.091 -0.20288,-0.01 -0.24421,-0.051 -0.10561,-0.1056 0.0509,-0.021 0.10728,-0.029 0.15905,-0.033 z m 1.30442,0 v 0 h 1.7e-4 c 0.008,-1e-4 0.008,0 0.008,0 0.0927,0 0.12607,0.051 0.12607,0.1528 0,0.096 -0.21499,0.1682 -0.4782,0.1616 -0.4238,-0.013 -0.4387,-0.029 -0.13066,-0.1616 0.23002,-0.099 0.3803,-0.1499 0.47381,-0.1528 z m -21.07625,0.9658 v 0 c 0,-1e-4 0.008,0 0.008,0 0.1219,0 0.26926,0.069 0.41662,0.2321 0.26425,0.2918 0.2726,0.3402 0.0451,0.2529 -0.20122,-0.077 -0.29765,0.01 -0.34148,0.2969 l -0.0605,0.4045 -0.23044,-0.4112 c -0.24003,-0.4285 -0.10019,-0.7664 0.16197,-0.7752 z m 38.10411,6.0418 c 0.0125,0 0.0292,0.013 0.0442,0.025 0.0634,0.064 0.0634,0.1683 0,0.2321 -0.0635,0.064 -0.11605,0.013 -0.11605,-0.116 0.008,-0.033 0.0125,-0.068 0.0167,-0.1027 0.0125,-0.029 0.0292,-0.043 0.0534,-0.038 z m -0.16448,0.8383 v 0 c 0,0 0,0 0.008,0 0.048,0 0.0868,0.038 0.0868,0.087 0,0.048 -0.0376,0.087 -0.0868,0.087 -0.048,0 -0.0872,-0.038 -0.0872,-0.087 0,-0.046 0.0376,-0.084 0.0802,-0.087 z m -0.34064,0.8697 v 2e-4 c 0.0472,0 0.0856,0.038 0.0856,0.087 0,0.047 -0.0376,0.087 -0.0868,0.087 -0.048,0 -0.0872,-0.038 -0.0872,-0.087 0,-0.01 -9e-5,-0.017 0.008,-0.025 0,-0.01 0.008,-0.013 0.008,-0.017 0.0167,-0.025 0.0422,-0.043 0.0743,-0.044 z m -0.18076,0.3449 v 0 c 0,-10e-5 0,0 0.008,0 0.048,0 0.0868,0.038 0.0868,0.087 0,0.047 -0.0417,0.087 -0.0868,0.087 -0.048,0 -0.0868,-0.038 -0.0868,-0.087 v -0.01 c 0.008,-0.021 0.0209,-0.038 0.0292,-0.059 0.0125,-0.013 0.0334,-0.021 0.0509,-0.021 z m -0.16907,0.351 c 0.048,0 0.0868,0.038 0.0868,0.087 0,0.048 -0.0376,0.087 -0.0868,0.087 -0.048,0 -0.0868,-0.038 -0.0868,-0.087 0,-0.01 1.2e-4,-0.013 0,-0.017 0.008,-0.017 0.0167,-0.033 0.0251,-0.047 0.0167,-0.017 0.0376,-0.025 0.0601,-0.025 z m -0.15195,0.3478 c 0.0472,0 0.0376,0.079 -0.0209,0.1736 -0.0593,0.096 -0.14652,0.1741 -0.19453,0.1741 -0.025,0 -0.0334,-0.021 -0.0292,-0.057 0.0376,-0.07 0.0802,-0.1377 0.11897,-0.2079 0.0459,-0.049 0.0931,-0.082 0.12399,-0.083 z m -0.3682,0.5217 c 0.048,0 0.0868,0.038 0.0868,0.087 0,0.047 -0.0376,0.087 -0.0868,0.087 -0.0376,0 -0.0668,-0.021 -0.0797,-0.053 0.025,-0.042 0.0476,-0.079 0.071,-0.1198 0.008,0 0.008,0 0.008,0 z m -0.32687,0.5221 c 0.0468,0 0.0376,0.078 -0.0209,0.1737 -0.0593,0.096 -0.14653,0.174 -0.19453,0.174 h -0.0125 c 0.0756,-0.1106 0.15112,-0.2229 0.22877,-0.3444 z m -0.47218,0.6849 c -0.0334,0.1232 -0.11438,0.2471 -0.20998,0.306 -0.0167,0.01 -0.0334,0.025 -0.0547,0.049 0.0568,-0.077 0.11188,-0.1536 0.17408,-0.2325 0.0292,-0.038 0.0601,-0.083 0.0902,-0.1223 z m -0.39241,5.7929 c 0.12065,0 0.21374,0.01 0.28137,0.025 -0.0167,0.7 -0.75121,1.2402 -1.29244,0.9402 -0.37571,-0.2083 -0.66171,-0.4913 -0.75714,-0.7128 0.0209,-0.01 0.0418,-0.013 0.0643,-0.017 0.78444,-0.1536 1.35501,-0.2321 1.70384,-0.235 z m 0.65983,1.1482 v 0 c 0.0564,0.049 0.096,0.096 0.096,0.1236 0,0.1152 -0.0969,0.094 -0.19913,-0.021 0.0125,-0.013 0.0209,-0.021 0.0334,-0.033 0.025,-0.025 0.0442,-0.045 0.0689,-0.069 z m -0.66934,0.6331 c 0.086,0.048 0.0568,0.063 -0.0931,0.071 0.0292,-0.021 0.0614,-0.047 0.0931,-0.071 z" />
  <path
     id="path78852"
     style="display:inline;fill:#000000;stroke:none;stroke-width:0.090548px;stroke-linecap:butt;stroke-linejoin:miter;stroke-opacity:1"
     d="m 205.32885,211.3547 c -0.003,0 -0.004,0 -0.008,0.01 h -0.003 l -22.76385,3.0481 -5.83744,0.8574 c -0.70708,2.0773 -1.19918,2.1765 -1.79109,3.1936 l 0.91456,2.3617 c 1.02673,0.9273 2.0007,2.679 2.14321,3.8282 l 0.0593,0.1494 0.008,0.01 c 0.26133,0.7025 0.27218,1.0299 0.63558,2.1114 0.40827,1.2068 0.88838,3.798 1.24063,6.4131 l 0.43862,0.9459 0.0994,0.3862 c 0.0756,0.021 0.17158,0.061 0.25757,0.078 0.008,0 0.008,0 0.0125,-0.01 l -0.0868,-0.025 h 0.11688 c 0.20581,-0.1061 0.41245,-0.1628 0.55631,-0.1679 h 0.008 c 0.0451,0 0.12148,0.038 0.17659,0.042 0.20664,-0.3343 0.4162,-0.6291 0.78327,-0.907 h -0.008 l 0.043,-0.045 c 0.0334,-0.2676 0.0822,-0.5382 0.23711,-0.8147 0,0 -0.008,0 -0.008,-0.01 0,-0.01 -0.008,-0.013 -0.008,-0.013 0,0 0.008,0.01 0.008,0.01 l 0.008,0.01 v 0 c -0.575,-0.6444 -0.57225,-1.1679 -0.44851,-2.1764 0.0526,-0.426 0.0914,-0.921 0.0914,-1.0567 2.1e-4,-0.2576 0.0718,-0.495 0.15989,-0.7227 -0.16198,-0.3123 -0.26425,-0.6607 -0.29348,-0.8917 -0.0209,-0.1632 -0.0568,-0.3302 -0.0568,-0.3302 -0.31935,-1.019 0.78118,-2.9248 1.61146,-3.5458 1.58428,-1.1847 4.02614,-0.2192 5.01847,1.5667 0.37196,0.1086 0.82131,0.2852 1.40908,0.5648 0.27343,-0.013 0.59876,0.021 1.02669,0.1678 0.98382,0.3432 2.44103,2.2465 2.84195,3.318 0.57312,1.5316 0.87369,4.985 0.46542,6.284 -1.18632,3.7744 -3.69878,5.9941 -7.05662,5.7389 -0.13817,-0.01 -0.24963,-0.033 -0.37236,-0.051 l -0.83884,0.1695 -1.07678,0.6517 c -0.38072,0.7581 -1.37372,0.999 -2.32756,0.9182 l 2.74447,10.6705 c 0,0 -4e-5,1e-4 -8e-5,1e-4 l 4.50701,16.8209 3.34978,-0.3774 c 2.32167,-8.3179 4.52483,-16.6941 4.67132,-19.075 0.31518,-5.1237 -3.53493,-25.9962 -3.53493,-25.9962 0,0 0.60369,0.8679 1.1197,3.7104 0.39825,2.1928 4.05002,13.3976 4.23984,18.6468 l 10.40352,-6.121 1.36269,-0.1173 c -1.49344,-10.2543 -5.83668,-29.9245 -6.23598,-30.2143 l 0.002,1e-4 c -0.004,0 -0.008,0 -0.0125,0 z m -16.83136,14.2451 c 0.0376,0.013 0.0814,0.033 0.11188,0.042 l -0.008,-0.01 z m -7.44051,9.2391 v 0 c 0.0167,0.01 0.0334,0.01 0.048,0.012 z m 18.52949,15.0955 c -0.43933,1.821 -1.03341,6.7739 -1.58228,12.0703 l 1.08684,-2.5396 z" />
  <path
     id="path78854"
     style="display:inline;fill:#000000;stroke-width:0.090548"
     d="m 168.45444,192.7146 c -1.03216,-0.017 -2.0462,0.1762 -2.81849,0.5543 -0.34857,0.1707 -0.93948,0.4492 -1.31302,0.619 -2.37302,1.0786 -4.24451,3.3587 -4.43646,5.4051 -0.10394,1.1106 -0.0167,3.064 0.14611,3.3273 0.0689,0.1102 0.12023,0.3548 0.1148,0.5433 -0.008,0.3393 -0.0125,0.3402 -0.0801,0.071 -0.0651,-0.2539 -0.0697,-0.2568 -0.0797,-0.043 -0.008,0.1256 0.071,0.5222 0.17032,0.8816 0.0998,0.3595 0.18117,0.7545 0.18117,0.8779 0,0.2993 0.25757,1.0534 0.42359,1.2411 0.11814,0.1336 0.11355,0.1566 -0.0451,0.2067 -0.30725,0.098 -0.42681,0.5394 -0.29013,1.0728 0.10603,0.4137 0.23711,0.7378 0.82025,2.0302 0.33647,0.7459 1.00448,1.2999 1.81005,1.5015 0.34398,0.086 1.41396,3.26 1.32283,3.9241 -0.0622,0.4561 -0.63199,1.7728 -0.84213,1.9472 -0.0668,0.055 -0.12107,0.144 -0.12107,0.1974 h 0.008 c 0,0.042 0.0376,0.033 0.096,-0.01 l -1.64494,1.8467 c -0.0292,0.013 -0.0614,0.021 -0.0889,0.038 -0.42013,0.2141 -0.45711,0.2914 -0.10937,0.2279 0.13692,-0.025 0.086,0.013 -0.11313,0.079 -0.6853,0.2355 -1.68401,0.909 -1.87404,1.264 -0.0497,0.093 -0.0605,0.1574 -0.0376,0.1941 -0.1244,0.1286 -0.28262,0.3256 -0.31727,0.5262 -0.0125,0.073 -0.0376,0.1611 -0.0659,0.255 -0.008,0.01 -0.0167,0.021 -0.0167,0.033 0,0 0.008,0 0.008,0.01 -0.0334,0.1061 -0.0747,0.2171 -0.11439,0.3198 -0.008,0 -0.0167,-0.01 -0.025,-0.01 -0.025,0 -0.0451,0.021 -0.0451,0.045 0,0.021 0.0167,0.038 0.0376,0.043 -0.0292,0.07 -0.0526,0.1311 -0.0747,0.1833 -4e-5,0 0.008,-0.01 0,-0.01 -0.008,-0.012 -0.0526,0.057 -0.11939,0.1861 -0.15738,0.3019 -0.18034,0.3123 -0.62702,0.2881 -0.45695,-0.025 -1.03992,0.1453 -1.15873,0.3373 -0.0167,0.025 0.008,0.033 0.0451,0.033 l -0.25005,0.3256 c -1.46823,0.8337 -2.10948,2.9383 -1.40945,4.8839 0.11229,0.3115 0.20371,0.6222 0.20371,0.6905 0,0.47 0.51063,1.2294 1.43396,2.133 0.17784,0.1741 0.29097,0.288 0.41662,0.4141 0.008,0.05 0.0125,0.1023 0.0167,0.1503 -0.13108,0.3131 0.10812,5.9921 0.31518,7.3185 0.0505,0.3231 0.14485,1.4235 0.20956,2.4448 0.1077,1.6991 0.0451,2.2179 0.3181,3.0049 0.16406,0.4732 0.008,1.0737 0,1.1235 -0.30892,4.2882 -0.80548,5.3489 -1.08046,6.0558 v 2e-4 c 0,0.013 0.15446,0.021 0.37363,0.029 v 0.088 h 21.21902 v -0.086 c 0.39407,0.2792 -2.40709,-0.3248 0.15738,-0.075 l 0.0438,-0.9276 c -0.2488,-1.8522 0.0334,-2.0382 0.33396,-3.0537 0.44275,-0.49 0.4868,-0.746 0.55359,-3.2162 0.0768,-2.8421 -0.13275,-2.6433 2.03943,-1.9376 1.07386,0.349 2.11738,0.1198 2.16814,-0.4602 l 1.51761,-0.9184 1.15147,-0.2338 c 0.11689,0.025 0.27677,0.049 0.48729,0.065 2.79002,0.2121 4.98525,-1.6221 6.0693,-5.0712 0.32937,-1.0478 0.0747,-4.2628 -0.44856,-5.6608 -0.3419,-0.9139 -1.68572,-2.5482 -2.25989,-2.7483 -0.35359,-0.1232 -0.3373,-0.071 0.0497,0.1574 0.47698,0.2813 0.38071,0.4074 -0.11313,0.1486 -1.11156,-0.583 -2.32627,-1.1326 -2.50277,-1.1326 -0.13025,0 -0.25214,-0.1061 -0.36694,-0.319 -0.7604,-1.4127 -2.59699,-2.0657 -3.63199,-1.2917 -0.65502,0.4898 -1.42527,1.9997 -1.27123,2.4915 0.0292,0.088 0.0697,0.3118 0.0927,0.4975 0.0584,0.4629 0.18493,0.6925 0.29388,0.6382 l 0.22835,0.2847 c -0.24129,0.2004 -0.3803,0.488 -0.38072,0.8121 -4e-5,0.205 -0.0443,0.7327 -0.0985,1.1727 -0.11313,0.9215 -0.0822,1.1132 0.23253,1.4527 0.23335,0.2518 0.32603,0.8907 0.14527,1.0024 -0.10102,0.063 -0.21749,0.5788 -0.22668,0.876 v 1e-4 l -0.24129,0.2551 c 0,0 0.008,-0.017 0.008,-0.017 0,-0.012 -0.008,-0.017 -0.008,-0.021 -0.0906,-0.033 -0.81883,0.8631 -0.9237,1.152 v 0 c -0.0125,0.038 -0.0167,0.07 -0.0167,0.097 l -0.38155,0.1052 c -0.0167,-0.096 -0.15905,-0.1536 -0.29639,-0.1494 -0.0952,0 -0.18702,0.033 -0.23002,0.1056 -0.0167,0.025 -0.0167,0.049 -0.008,0.066 h -0.48095 c -0.0539,-0.038 -0.17199,-0.058 -0.28846,-0.061 -0.13818,0 -0.26926,0.017 -0.26926,0.066 1.3e-4,0.01 0.008,0.013 0.0209,0.021 l -0.14652,0.01 c -0.0292,-0.089 -0.13025,-0.066 -0.28471,0.1123 -0.29096,0.3365 -0.36485,0.2672 -0.43737,-0.4108 -0.33772,-3.157 -0.98131,-6.7726 -1.45516,-8.174 -0.37153,-1.1056 -0.38072,-1.4231 -0.62581,-2.0821 l -0.10394,-0.263 c -0.0376,-0.8936 -1.03053,-2.7348 -2.02587,-3.4995 -0.31685,-0.2438 -0.49155,-0.3636 -0.52929,-0.3661 l -0.20664,-0.1215 c 0,0 0,0 0,-0.01 0,-0.025 -0.0209,-0.045 -0.0451,-0.045 -0.0167,0 -0.0292,0.013 -0.0376,0.025 -0.0497,-0.017 -0.24922,-0.087 -0.45189,-0.1541 -0.0872,-0.069 -0.15112,-0.1039 -0.19036,-0.1047 -0.0209,0 -0.0334,0.013 -0.043,0.029 -0.008,0 -0.008,0 -0.0167,0 -0.12648,-0.068 -0.34899,-0.1862 -0.4162,-0.2142 -0.0209,-0.052 -0.0893,-0.1545 -0.20873,-0.3014 -0.20956,-0.2572 -0.32144,-0.7951 -0.3277,-1.5745 0,-0.3811 -0.043,-0.6831 -0.0843,-0.8075 0.43294,-0.162 0.36944,-0.2029 0.74737,-0.4133 -0.0526,0.076 -0.025,0.078 0.0914,0.01 0.14736,-0.086 0.41704,-0.3406 0.59905,-0.5647 1.85145,-2.1702 3.43189,-3.6351 3.23886,-6.6123 0.0209,0 0.0376,-0.021 0.0376,-0.043 0,-0.025 -0.0209,-0.045 -0.0451,-0.045 -0.13401,-1.2622 -0.68275,-1.422 -0.0167,-2.5557 0.0209,0 0.0555,-0.025 0.11689,-0.086 0.14151,-0.1415 0.30349,-1.4635 0.2225,-1.6734 l 0.18577,-0.3752 c 0.008,0.048 0.025,0.069 0.0442,0.048 0.0292,-0.029 0.0334,-0.1082 0.008,-0.1737 0,0 -9e-5,0 -0.008,0 l 0.0555,-0.2396 c 0.0209,0 0.0555,-0.091 0.12023,-0.2826 0.0756,-0.2242 0.19244,-0.5297 0.25923,-0.6792 0.16031,-0.3581 0.31936,-1.4615 0.33313,-2.309 0.0209,-1.3986 -1.29628,-4.5262 -2.2497,-5.3351 -0.18953,-0.1607 -0.48771,-0.424 -0.662,-0.5848 -0.46596,-0.4298 -1.16599,-0.9764 -1.62983,-1.2728 -0.22417,-0.1432 -0.52319,-0.3394 -0.6648,-0.4363 -0.14736,-0.1006 -0.34899,-0.1582 -0.47097,-0.1353 -0.1173,0.021 -0.21081,0.017 -0.20747,-0.012 0.0209,-0.1845 -0.0559,-0.2688 -0.39992,-0.4373 -0.21165,-0.1035 -0.592,-0.2158 -0.84518,-0.2488 -0.2534,-0.033 -0.69845,-0.1803 -0.98954,-0.3273 -0.29096,-0.1469 -0.55254,-0.2317 -0.58093,-0.1883 -0.0292,0.043 -0.15362,0.062 -0.27802,0.043 -0.33981,-0.054 -0.68588,-0.083 -1.02995,-0.089 z" />
  <path
     id="path78856"
     style="display:inline;opacity:0.7;fill:#aa0000;fill-opacity:1;stroke-width:0.0932235"
     d="m 166.29152,219.8293 c -0.39324,0 -0.71176,0.052 -0.90212,0.149 -1.1596,0.5553 -1.30934,0.74 -2.1228,1.4008 -0.3995,0.3043 -0.95718,0.8618 -0.90984,0.9091 0.0209,0.021 -0.13943,0.2175 -0.35275,0.44 -0.72132,0.7528 -1.12479,1.9058 -0.72228,2.0631 0.19746,0.077 -0.27719,0.5151 -0.55935,0.5151 -0.11396,0 -0.16489,0.078 -0.16948,0.2568 -0.0209,0.8067 -0.17492,0.7107 -0.50162,-0.3119 -0.34732,-1.1161 -0.74357,-2.5565 -1.80799,-2.8646 l -0.50362,-0.042 c -0.38907,-0.033 -0.59237,0 -0.8929,0.1566 -0.43448,0.2225 -0.49284,0.2943 -0.1795,0.2225 0.11522,-0.025 -0.0568,0.1139 -0.38322,0.3118 -1.33352,0.8084 -1.97164,2.7794 -1.45955,4.5081 0.0835,0.2818 0.20789,0.7225 0.27635,0.9788 0.26133,0.9776 0.43699,1.2218 2.05605,2.8559 4.19459,3.6535 3.98569,3.6695 4.16023,3.8453 -0.35901,0.6363 -2.05772,2.0467 -1.57627,3.1097 0.22585,0.4368 1.37777,1.0409 2.99361,1.5696 0.8757,0.2868 0.99208,0.3478 0.99208,0.5216 0,0.088 0.008,0.093 0.0881,0.071 0.89844,-0.22 0.49689,0.245 3.20797,0.2358 1.8922,-0.033 1.9162,-0.048 1.98358,-1.05 0.0209,-0.2751 0.063,-0.5843 0.11396,-0.7997 0.10061,-0.4203 0.0969,-0.4944 -0.025,-0.5085 -0.11188,-0.013 -0.11773,-0.1512 -0.0251,-0.5426 0.1173,-0.4898 0.23628,-0.644 0.79325,-1.0285 0.94804,-0.5249 3.99107,-4.2748 3.22838,-5.9108 -0.0417,-0.065 -8e-5,-0.1641 0.096,-0.2342 0.21165,-0.1545 0.54883,-1.7168 0.59596,-1.9608 0.36819,-0.7667 0.39074,-0.6792 0.42459,-1.637 0.025,-0.4408 0.11146,-0.7799 0.29681,-1.1587 0.67991,-1.3895 -0.15487,-2.9319 -2.27797,-4.2097 -0.52954,-0.319 -0.98456,-0.5796 -1.01107,-0.5796 -0.0251,0 -0.16531,-0.083 -0.30892,-0.1858 -0.85741,-0.6105 -3.21248,-1.1163 -4.61646,-1.0969 z m 18.91538,4.431 c -0.39491,0.01 -0.76469,0.1203 -1.05699,0.3586 -0.63245,0.5153 -1.36049,1.9743 -1.21568,2.4366 0.0292,0.088 0.0689,0.3059 0.0914,0.4854 0.20038,0.5663 0.22709,0.3677 0.15654,1.7837 0.008,0.1724 -0.0334,0.6693 -0.0893,1.1038 -0.14569,1.0961 -0.13985,1.1443 0.17491,1.5405 0.32144,0.4045 0.35943,0.79 0.12482,1.2607 -0.29765,0.7903 -0.30224,0.773 -0.68492,1.2132 -0.34732,0.3999 -0.63849,1.0845 -0.73447,1.5478 -0.26174,-0.2943 -0.52111,-0.4629 -0.83019,-0.3845 -0.008,0 -0.008,0 -0.0125,0 -0.67453,-0.059 -1.20933,0.053 -1.22127,0.1587 0,0.078 -0.0334,0.071 -0.0952,-0.025 -0.0789,-0.1178 -0.12398,-0.099 -0.28595,0.1164 -0.22919,0.048 -0.29181,0.1269 -0.41078,0.4643 0.14861,0.084 0.12315,0.8837 0.0125,1.0608 -0.0376,0.06 -0.025,0.1357 0.0292,0.1683 0.0534,0.033 0.071,0.1002 0.0417,0.1502 -0.0292,0.05 0,0.1587 0.0689,0.2418 0.0743,0.09 0.0868,0.1636 0.0334,0.1824 -0.0973,0.033 -0.10353,1.497 -0.008,1.5935 0.17658,-0.2596 1.19672,2.0395 1.43095,2.2554 0.24463,0.095 0.74946,0.2463 1.12166,0.3361 0.37237,0.09 0.69986,0.2008 0.72804,0.2463 0.17533,0.2834 1.59055,-0.2918 1.49912,-0.6094 0.0488,-0.1916 0.0417,-0.1265 0.008,-0.2538 0.78181,-0.017 1.75302,-0.7385 2.5742,-1.0566 0.31392,0.033 0.56235,0.1499 0.80677,0.1662 v 2e-4 c 3.42634,0.2191 6.41056,-3.1138 6.29409,-7.0296 -0.0893,-3.0094 -0.58832,-4.4814 -2.02119,-5.9651 -0.57438,-0.5947 -1.39288,-1.1515 -1.00406,-0.6829 0.0605,0.073 0.0906,0.1327 0.0668,0.1327 -0.15529,0 -1.15405,-0.4083 -1.68756,-0.6899 -0.34983,-0.1845 -0.7485,-0.3356 -0.88613,-0.3356 -0.18661,0 -0.28053,-0.069 -0.3707,-0.2726 -0.46384,-1.0477 -1.63734,-1.7211 -2.6465,-1.7028 z" />
  <path
     id="path78858"
     style="display:inline;fill:#000000;stroke:none;stroke-width:0.090548px;stroke-linecap:butt;stroke-linejoin:miter;stroke-opacity:1"
     d="m 157.8869,249.6233 -1.49382,8.5382 1.95482,13.0206 0.73201,-0.5779 11.42928,10.6009 4.73949,-0.7307 c 0.2989,-2.5236 0.62314,-4.9739 0.81976,-5.5151 0.43678,-1.2021 0.10144,-6.37 0.10144,-6.37 l 1.82804,-7.9967 -0.36194,-10.6159 z" />
  <path
     style="display:inline;fill:#808080;fill-opacity:1;stroke:none;stroke-width:0.101879px;stroke-linecap:butt;stroke-linejoin:miter;stroke-opacity:1"
     d="m 160.96551,219.0157 c -2.12326,2.0339 -2.28674,1.349 -2.87071,2.7127 -0.58411,1.3637 -1.76922,7.8967 -1.89633,11.2436 -0.12733,3.347 0.86688,11.5682 0.85177,12.4199 -0.17533,4.166 0.0877,5.1679 -0.0605,8.9336 l 10.99426,1.6207 12.34547,0.038 0.28638,-3.077 c 0,0 0.65573,-5.2524 0.48859,-8.1222 -0.14904,-1.6945 -0.36444,-1.9253 -0.53689,-3.0038 -0.008,-0.025 -0.0643,-1.7161 -0.30475,-0.706 -0.0376,0.1524 -0.60159,-1.528 -0.63703,-1.4439 -0.043,0.1019 -0.0948,-1.2411 -0.13317,-1.1956 -0.0576,0.068 -0.0292,-1.17 -0.0785,-1.1535 -0.12858,0.044 -0.13651,-0.9614 -0.15863,-0.9575 -0.36361,0.063 0.17282,-0.2279 0.16322,-0.2876 -0.0973,-0.602 0.46029,-5.3105 -0.29097,-7.0586 -0.79934,-1.8597 -0.22626,-4.116 -0.22626,-4.116 0,0 -0.36026,-1.82 -0.93188,-1.9105 -0.5715,-0.091 -1.96813,-1.4265 -2.84316,-1.7631 -0.8749,-0.3365 -1.13109,-0.6443 -1.29745,-0.5045 -0.70249,0.5165 -1.55539,0.7914 -2.32919,0.9351 -0.18034,0.033 1.55982,3.0195 1.39088,3.0402 -0.93493,0.1144 -0.6395,7.5315 -0.6395,7.5315 l -2.59089,4.6539 -0.94262,0.6676 -2.45279,2.8872 c -1.34037,4.7835 -4.39033,9.926 -7.72221,3.8481 -0.38656,-0.757 -0.19871,-3.6252 0.10311,-4.0629 0.44422,-0.6403 0.95685,-1.0984 1.40186,-1.576 l 1.57898,-3.1225 -0.33271,-0.5508 -3.02237,-4.4258 -0.54478,-3.8954 0.35233,-2.0869 0.50228,-0.932 1.83638,3.5522 1.79782,-3.419 3.04984,-3.1415 -1.20064,-1.8563 -1.88227,-0.8523 z"
     id="path78860" />
  <path
     id="path78862"
     style="display:inline;fill:#aa0000;fill-opacity:1;stroke-width:0.0936919"
     d="m 166.12826,220.0733 c -0.39492,0 -0.71523,0.053 -0.90655,0.1499 -1.16553,0.558 -1.3159,0.7436 -2.13349,1.4077 -0.40117,0.306 -0.96198,0.8662 -0.91443,0.9137 0.0209,0.021 -0.14026,0.2183 -0.35442,0.4423 -0.72491,0.7565 -1.13047,1.9154 -0.72595,2.0735 0.19829,0.078 -0.27845,0.5177 -0.56215,0.5177 -0.1148,0 -0.16614,0.078 -0.17074,0.258 -0.0209,0.8108 -0.17616,0.7143 -0.50412,-0.3131 -0.3494,-1.1218 -0.74736,-2.5695 -1.81713,-2.8791 l -0.50617,-0.042 c -0.39074,-0.033 -0.59537,0 -0.8974,0.1574 -0.43662,0.2237 -0.49535,0.2956 -0.18034,0.2237 0.11605,-0.025 -0.0576,0.1144 -0.38531,0.3136 -1.34012,0.8124 -1.98153,2.7933 -1.4669,4.5307 0.0839,0.2834 0.20873,0.7261 0.27803,0.9838 0.26258,0.9825 0.4392,1.2278 2.06636,2.8702 2.1061,2.1253 6.70449,6.5545 10.88492,5.9555 -1.73068,0.5449 -3.94044,0.017 -5.61643,-1.3499 -0.59529,-0.4854 -0.7116,-0.5726 -0.7647,-0.5726 -0.096,-2e-4 -0.0668,0.061 0.29681,0.6113 0.60919,0.923 0.60565,0.9829 -0.0672,1.0889 l -0.31017,0.049 -0.0167,0.7738 c -0.0167,0.8049 -0.0376,0.9595 -0.13025,0.9776 -0.15571,0.029 -0.92729,-0.3111 -1.11502,-0.4932 -0.25966,-0.2517 -0.68793,-0.2901 -0.5639,-0.05 0.2271,0.4391 1.38457,1.0462 3.00851,1.5776 0.88021,0.288 0.99714,0.3494 0.99714,0.5241 0,0.089 0.008,0.093 0.0885,0.072 0.90295,-0.2208 0.4994,0.2463 3.22408,0.2372 1.90172,-0.038 1.92585,-0.048 1.99356,-1.0553 0.0209,-0.2764 0.063,-0.5873 0.1148,-0.8038 0.10102,-0.4223 0.0973,-0.4969 -0.0251,-0.511 -0.11229,-0.013 -0.11856,-0.152 -0.0251,-0.5454 0.11814,-0.4922 0.23754,-0.6473 0.79738,-1.0337 0.4787,-0.3306 0.54157,-0.3795 0.51577,-0.4054 -0.0167,-0.017 -0.11689,0.021 -0.24505,0.083 0.0914,-0.06 0.18243,-0.1227 0.2726,-0.1899 1.54709,-1.3271 3.1924,-4.6334 2.70123,-5.4282 -0.0418,-0.065 -1.3e-4,-0.1649 0.0964,-0.2354 0.21248,-0.1553 0.55162,-1.7253 0.59892,-1.9707 0.36987,-0.7705 0.39283,-0.6825 0.42681,-1.6452 0.025,-0.4429 0.11229,-0.7837 0.29848,-1.1644 0.68325,-1.3966 -0.15571,-2.9468 -2.28945,-4.231 -0.53225,-0.3202 -0.98953,-0.5824 -1.01617,-0.5824 -0.025,0 -0.16615,-0.084 -0.31017,-0.1866 -0.86179,-0.6137 -3.22863,-1.122 -4.63972,-1.1025 z m -8.80066,3.5377 c 0.0251,0 0.0417,0.042 0.0417,0.093 0,0.051 -0.0442,0.093 -0.0989,0.093 -0.0547,0 -0.0731,-0.042 -0.0417,-0.093 0.0334,-0.051 0.0764,-0.093 0.0994,-0.093 z m 11.95039,0.65 c 0.0125,0 0.0209,0 0.0292,0.01 0.0501,0.051 0.23085,0.092 0.40075,0.092 0.16991,0 0.30934,0.038 0.30934,0.081 0,0.045 0.20037,0.1098 0.44505,0.1436 0.87285,0.1215 1.23245,1.2736 0.55521,1.779 v 2e-4 c -0.36277,0.2705 -1.34612,0.2856 -1.48702,0.021 -0.073,-0.1373 -0.1628,-0.1632 -0.41662,-0.1223 -0.26466,0.043 -0.37696,0 -0.61866,-0.2116 l -0.29556,-0.2639 0.50779,-0.8062 c 0.28971,-0.46 0.48571,-0.7079 0.5702,-0.7227 z m 15.86091,0.2655 c -0.397,0.01 -0.76862,0.121 -1.06238,0.3602 -0.63562,0.5179 -1.36733,1.9842 -1.22177,2.4489 0.0292,0.088 0.0689,0.3076 0.0923,0.4878 0.0852,0.6671 0.33062,0.9177 0.34356,0.3515 l 0.008,-0.3043 0.11647,0.3223 c 0.15488,0.4286 0.30558,0.4601 0.38782,0.081 0.0376,-0.1704 0.14611,-0.4214 0.24254,-0.5582 0.20288,-0.2872 0.22125,-0.4231 0.0651,-0.4752 -0.32227,-0.1073 0.0292,-0.3344 0.52892,-0.3402 0.28888,0 0.5631,-0.029 0.60923,-0.058 0.0459,-0.029 0.10771,-0.013 0.13651,0.033 0.0292,0.047 -0.10478,0.1143 -0.29723,0.1502 -0.23252,0.043 -0.46771,0.1896 -0.70199,0.4359 -0.42509,0.4469 -0.46037,0.6396 -0.066,0.3586 0.35359,-0.2517 0.49018,-0.1649 0.15488,0.099 -0.13359,0.1052 -0.26717,0.2668 -0.2964,0.3594 -0.0292,0.093 -0.2225,0.2634 -0.42985,0.3799 -0.47005,0.2643 -0.66384,0.5527 -0.64388,0.9587 0.008,0.1737 -0.0334,0.6727 -0.0902,1.1093 -0.14611,1.1018 -0.14068,1.1501 0.17575,1.5483 0.32311,0.4066 0.36151,0.794 0.12523,1.2671 -0.0856,0.1716 -0.17533,0.6217 -0.19996,1.0002 -0.0497,0.7727 -0.20664,1.0324 -0.20664,0.3415 v -0.4468 l -0.28178,0.3243 c -0.34941,0.4016 -0.64175,1.09 -0.73818,1.5557 -0.0948,-0.1265 -0.21792,-0.2426 -0.38657,-0.3302 -0.0125,-0.01 -0.0451,-0.013 -0.0818,-0.021 0.0622,-0.082 -0.0964,-0.1073 -0.36569,-0.038 -0.008,0 -0.008,0 -0.0125,0 -0.12524,-0.01 -0.24839,-0.013 -0.3323,-0.013 -0.0334,0.01 -0.0634,0.013 -0.096,0.021 l -0.19203,0.2058 c 0.008,0.095 -0.2726,0.2613 -0.53797,0.2876 -0.2509,0.025 -0.263,0.029 -0.3252,0.1595 -0.11981,0.2475 -0.0614,0.71 0.11897,0.9468 0.13025,0.1707 0.15196,0.2187 0.15196,0.3373 0,0.1644 -0.0822,0.212 -0.20623,0.1273 0.13526,-0.01 0.16824,-0.258 -0.0209,-0.4546 -0.34064,-0.3552 -0.29097,-1.2502 0.066,-1.1825 0.20079,0.038 0.80385,-0.2408 0.68442,-0.3168 -0.18243,-0.1157 -0.53785,-0.089 -0.53923,0.042 0,0.079 -0.0334,0.071 -0.0956,-0.025 -0.0793,-0.1182 -0.1244,-0.1 -0.28721,0.1173 -0.23001,0.048 -0.29347,0.1273 -0.41286,0.4665 0.14903,0.085 0.12398,0.8882 0.0125,1.0662 -0.0376,0.06 -0.025,0.1361 0.0292,0.1691 0.0534,0.033 0.071,0.1006 0.0417,0.1511 -0.0292,0.05 -4e-5,0.1595 0.0689,0.243 0.0743,0.09 0.0872,0.1644 0.0334,0.1832 -0.0977,0.033 -0.10437,1.5045 -0.008,1.6016 0.0292,0.029 0.0538,-0.021 0.0538,-0.1078 0,-0.089 0.0376,-0.1394 0.0802,-0.1118 0.50312,1.6215 0.42359,1.6815 1.3038,2.4863 0.24588,0.096 0.75329,0.2471 1.12729,0.3377 0.37404,0.09 0.70341,0.2016 0.73176,0.2476 0.17616,0.2851 1.59856,-0.2931 1.50663,-0.6125 -0.0167,-0.055 -0.26633,-0.1716 -0.60944,-0.3014 0.18953,0.033 0.39491,0.051 0.61729,0.046 0.78574,-0.017 1.76191,-0.7422 2.58714,-1.0619 l 0.15195,-0.076 c 0.0806,-0.054 0.23419,-0.1369 0.48579,-0.2647 0.19454,-0.099 0.40368,-0.2225 0.46496,-0.2751 0.0622,-0.053 0.16239,-0.1068 0.22668,-0.121 0.5047,-0.1136 1.06,-2.2104 0.74996,-2.8318 -0.0576,-0.1165 -0.0547,-0.1512 0.0251,-0.2455 0.28136,-0.3344 -0.73101,-0.8801 -1.75064,-0.9439 -0.49974,-0.029 -0.78377,-0.1436 -1.17042,-0.4681 -0.008,-0.01 -0.0125,-0.021 -0.0209,-0.029 l -0.17158,-0.273 0.2296,0.1999 c 0.39533,0.3444 0.81717,0.5069 1.28222,0.4941 0.86246,-0.025 2.1448,0.7246 1.70609,0.9957 -0.0505,0.029 -0.0635,0.1023 -0.0292,0.1574 0.36152,0.5849 -0.22042,2.978 -0.72416,2.978 -0.0918,0 -0.19578,0.046 -0.23085,0.1031 -0.0334,0.057 -0.31894,0.2238 -0.63111,0.3712 -0.61775,0.2922 -0.58878,0.3452 0.21541,0.3965 v 2e-4 c 3.44354,0.2204 6.4427,-3.1294 6.32565,-7.065 -0.0897,-3.0244 -0.59133,-4.5038 -2.03134,-5.995 -0.5773,-0.5977 -1.39985,-1.1573 -1.00907,-0.6864 0.0605,0.073 0.091,0.1332 0.0664,0.1332 -0.15613,0 -1.1599,-0.4104 -1.69604,-0.6934 -0.3515,-0.1858 -0.75229,-0.3373 -0.8906,-0.3373 -0.18785,0 -0.2822,-0.069 -0.37237,-0.2738 -0.46617,-1.0531 -1.64548,-1.7299 -2.65981,-1.7114 z m -15.82413,0.021 c -0.025,0 -0.0467,0.021 -0.0467,0.047 0,0.025 0.0209,0.047 0.0467,0.047 0.0251,0 0.0468,-0.021 0.0468,-0.047 0,-0.025 -0.0209,-0.047 -0.0468,-0.047 z m 15.23013,0.3206 c 0.008,0 0.0125,0.012 0.0209,0.025 0.025,0.064 0.025,0.1699 0,0.2342 -0.025,0.064 -0.0472,0.012 -0.0472,-0.1173 0,-0.096 0.0125,-0.1503 0.0292,-0.144 z m -26.26634,0.3627 c 0.13567,0 0.397,0.3453 0.39992,0.5581 0,0.1616 -0.26341,0.2121 -0.5363,0.1023 -0.12524,-0.051 -0.068,-0.4731 0.0873,-0.6408 0.0125,-0.013 0.0292,-0.021 0.0497,-0.021 z m 27.58124,0.9994 c 0.0251,0 0.0468,0.021 0.0468,0.047 0,0.025 -0.0209,0.047 -0.0468,0.047 -0.025,0 -0.0468,-0.021 -0.0468,-0.047 0,-0.025 0.0209,-0.047 0.0468,-0.047 z m -27.38261,0 c 0.15529,0 0.13817,0.06 -0.0948,0.3272 -0.22626,0.2605 -0.35776,0.3006 -0.35776,0.109 0,-0.1499 0.29682,-0.4362 0.4524,-0.4362 z m 29.29601,0.2863 c 0.0509,0.01 0.0994,0.043 0.16657,0.1098 0.15362,0.1536 0.14778,0.1628 -0.11564,0.1628 -0.15278,0 -0.57274,0.021 -0.93347,0.045 -0.44584,0.029 -0.58084,0.017 -0.42163,-0.038 0.129,-0.045 0.39283,-0.087 0.58686,-0.092 0.19412,0 0.43557,-0.061 0.5371,-0.1248 0.0764,-0.048 0.12983,-0.07 0.18034,-0.063 z m -4.45587,0.025 c 0.008,0 0.0167,0.017 0.0292,0.044 0.025,0.068 0.025,0.1486 -0.008,0.1795 -0.0292,0.029 -0.0534,-0.025 -0.0488,-0.1231 0,-0.069 0.0125,-0.1023 0.025,-0.1002 z m 2.79177,0.2555 c 0.071,0 0.0743,0.029 -0.0167,0.087 v -2e-4 c -0.0772,0.05 -0.24589,0.087 -0.37488,0.083 l -0.23419,-0.01 0.23419,-0.075 c 0.18076,-0.058 0.31894,-0.087 0.3899,-0.087 z m -27.35034,0.7597 c 0.0931,0 0.0872,0.2692 -0.0422,0.5101 -0.0948,0.1758 -0.20122,0.3198 -0.23712,0.3198 -0.0776,0 0.0931,-0.6691 0.19913,-0.781 0.0334,-0.033 0.0584,-0.048 0.0797,-0.049 z m 0.53088,0.5489 c 0.025,0 0.0468,0.021 0.0468,0.047 0,0.025 -0.0209,0.047 -0.0468,0.047 -0.0251,0 -0.0468,-0.021 -0.0468,-0.047 0,-0.025 0.0209,-0.047 0.0468,-0.047 z m 24.02769,1.1528 c 0.008,0 0.0167,0.017 0.0292,0.044 0.025,0.068 0.025,0.1482 -0.008,0.1795 -0.0292,0.029 -0.0534,-0.025 -0.0488,-0.1231 0,-0.068 0.0125,-0.1023 0.025,-0.1002 z m -0.081,0.3424 c 0.025,0 0.0468,0.021 0.0468,0.047 0,0.025 -0.0209,0.047 -0.0468,0.047 -0.025,0 -0.0468,-0.021 -0.0468,-0.047 0,-0.025 0.0209,-0.047 0.0468,-0.047 z m 4.09185,0.5639 c 0.21457,0 0.48938,0.053 0.6238,0.1478 0.1173,0.082 0.20038,0.2179 0.1841,0.3018 -0.0167,0.084 0.0797,0.2593 0.2129,0.3895 0.33229,0.3248 0.3899,0.5315 0.23294,0.8352 -0.22083,0.4271 -0.40201,0.5287 -0.35359,0.1983 0.0334,-0.2263 -0.008,-0.296 -0.2033,-0.387 -0.15362,-0.07 -0.21498,-0.149 -0.16531,-0.2137 0.27886,-0.3641 0.0843,-0.806 -0.27093,-0.6158 -0.13901,0.074 -0.18576,0.077 -0.14277,0.01 0.0376,-0.058 0,-0.1031 -0.0789,-0.1031 -0.1411,0 -0.33689,-0.2685 -0.33689,-0.4622 0,-0.068 0.13066,-0.099 0.29723,-0.098 z m -16.96891,1.0514 c 0.26884,0 0.25673,0.2559 -0.0489,0.6812 -0.16113,0.2246 -0.29305,0.4348 -0.29305,0.4678 0,0.1281 -0.63649,0.7061 -0.77768,0.7061 -0.0822,0 -0.26633,0.1085 -0.40952,0.2409 -0.14277,0.1323 -0.37654,0.2642 -0.51998,0.2926 -0.14319,0.029 -0.26049,0.089 -0.26049,0.134 0,0.1119 -0.16281,0.1035 -0.2342,-0.013 -0.0334,-0.051 -0.17741,-0.093 -0.32352,-0.093 -0.14611,0 -0.28596,-0.053 -0.31059,-0.1177 -0.0672,-0.1758 0.0376,-1.1002 0.1244,-1.1002 0.0418,0 0.10311,-0.087 0.13693,-0.1929 0.0334,-0.106 0.21582,-0.2625 0.40451,-0.3477 0.18869,-0.085 0.41119,-0.2104 0.49406,-0.2784 0.0827,-0.068 0.4835,-0.1649 0.89005,-0.2154 0.40661,-0.051 0.85458,-0.1173 0.99568,-0.1487 0.0497,-0.012 0.0939,-0.017 0.13233,-0.017 z m 16.96732,0.9606 c 0.0472,0 0.071,0.025 0.0534,0.078 -0.0209,0.061 -0.0752,0.1132 -0.12232,0.1132 -0.0476,0 -0.19119,0.061 -0.32019,0.1311 -0.23127,0.1256 -0.2321,0.1252 -0.0643,-0.064 0.13401,-0.1512 0.34983,-0.2601 0.45365,-0.258 z m 0.36026,0.9844 c 0.008,0 -0.025,0.043 -0.0818,0.1173 -0.12231,0.1561 -0.19954,0.2058 -0.19954,0.1285 0,-0.021 0.0739,-0.093 0.16406,-0.164 0.0743,-0.058 0.11229,-0.086 0.1173,-0.082 z m -20.7144,0 c 0.025,0 0.0468,0.021 0.0468,0.047 0,0.025 -0.0209,0.047 -0.0468,0.047 -0.025,0 -0.0468,-0.021 -0.0468,-0.047 0,-0.025 0.0209,-0.047 0.0468,-0.047 z m -4.33852,1.0434 c 0.14903,-0.01 0.35985,0.082 0.51526,0.2184 0.30934,0.2721 0.24923,0.3172 -0.0789,0.059 -0.12482,-0.098 -0.33063,-0.1979 -0.45766,-0.2217 -0.22793,-0.043 -0.22751,-0.043 0.0209,-0.056 z m 21.38579,0.076 c 0.0726,0 0.13985,0.025 0.19454,0.088 0.0927,0.1069 0.23252,0.1942 0.311,0.1942 0.0785,0 0.17032,0.1081 0.2033,0.2404 0.0334,0.1323 0.18076,0.3098 0.3277,0.3941 0.20456,0.1173 0.2797,0.2429 0.31977,0.5336 0.0292,0.2091 0.11981,0.527 0.20205,0.7067 0.0334,0.072 0.0568,0.1236 0.0764,0.1636 0.008,0.1783 -0.0167,0.1637 -0.10019,-0.033 -0.11397,-0.2634 -0.15237,-0.3882 -0.21207,-0.6838 -0.0726,-0.3582 -0.11104,-0.4259 -0.33772,-0.5949 -0.16406,-0.1223 -0.20497,-0.1707 -0.2989,-0.3552 -0.10102,-0.1987 -0.11814,-0.2171 -0.23878,-0.2622 -0.0718,-0.025 -0.177,-0.091 -0.23461,-0.1432 -0.0726,-0.065 -0.15112,-0.095 -0.23169,-0.095 -0.3014,0 -0.6251,0.4235 -0.69206,0.9955 -0.0167,0.1566 -0.0376,0.215 -0.0918,0.2714 -0.0776,0.081 -0.12816,0.2012 -0.32311,0.7649 -0.23669,0.6844 -0.38781,0.9465 -0.52499,0.912 -0.0889,-0.021 -0.0877,0.033 0.008,0.1728 0.0789,0.1194 0.0547,0.2246 -0.0827,0.3536 -0.0897,0.084 -0.15571,0.082 -0.19035,0.013 0.0509,0.025 0.1244,0 0.20705,-0.1177 0.0902,-0.1219 0.10353,-0.2138 0.0417,-0.2764 -0.11647,-0.1165 -0.12482,-0.2738 -0.008,-0.2037 0.12649,0.078 0.32812,-0.2939 0.56745,-1.0477 0.11855,-0.3736 0.25256,-0.6792 0.29764,-0.6792 0.0451,0 0.0818,-0.092 0.0818,-0.2046 0,-0.5347 0.42138,-1.0969 0.73643,-1.1078 z m -20.60753,0.4731 c 0.0251,0 0.0468,0.021 0.0468,0.047 0,0.025 -0.0209,0.047 -0.0468,0.047 -0.025,0 -0.0467,-0.021 -0.0467,-0.047 0,-0.025 0.0209,-0.047 0.0467,-0.047 z m 20.85204,0.3727 c 0.008,0.013 0.0125,0.021 0.0209,0.033 0.0789,0.079 0.16114,0.076 0.19704,0.01 0,0.025 0,0.051 -0.0167,0.08 -0.043,0.086 -0.10937,0.095 -0.17867,0.025 -0.063,-0.063 -0.0672,-0.079 -0.0209,-0.1457 z m 1.30584,0.1086 c 0.008,0 0.0167,0 0.025,0.017 0.0334,0.033 0.0334,0.091 0,0.1248 -0.0125,0.013 -0.025,0.017 -0.0334,0.013 -0.008,-0.021 -0.0125,-0.033 -0.0251,-0.033 -0.008,-0.013 -0.008,-0.025 -0.008,-0.042 0,-0.051 0.0167,-0.08 0.0376,-0.077 z m -4.15213,0.7261 h 0.008 c 0.0931,0.025 0.071,0.099 -0.0459,0.1574 -0.14402,0.072 -0.45414,0.042 -0.42709,-0.043 0,-0.01 0.0125,-0.012 0.0292,-0.021 0.008,0 0.008,0 0.008,0 0.10311,0.038 0.26132,0.021 0.35233,-0.033 0.0376,-0.025 0.063,-0.045 0.0776,-0.063 z m 4.40189,0.1173 c -0.008,0.038 -0.0376,0.072 -0.0852,0.1232 l -0.0417,0.045 c 0.0167,-0.061 0.0489,-0.1098 0.0939,-0.1424 0.0125,-0.01 0.0209,-0.017 0.0334,-0.025 z m -3.42659,0.1703 c 0.025,0 0.0468,0.021 0.0468,0.047 0,0.025 -0.0209,0.047 -0.0468,0.047 -0.025,0 -0.0468,-0.021 -0.0468,-0.047 0,-0.025 0.0209,-0.047 0.0468,-0.047 z m -0.58686,0.021 c 0.008,0 0.0125,0 0.0167,0 0.0334,0.033 0.008,0.1002 -0.0689,0.147 -0.16949,0.1068 -0.23712,0.065 -0.13317,-0.038 0.008,0 0.0167,0 0.025,-0.01 0.0518,-0.021 0.0969,-0.057 0.12148,-0.095 0.0167,-0.01 0.0292,-0.013 0.0417,-0.013 z m 0.31852,0.4924 c 0.008,0.012 0.0167,0.033 0.025,0.061 -0.008,-0.021 -0.0167,-0.042 -0.025,-0.061 z m -0.47816,0.044 c 0,0 0.008,0 0.008,0 0.0334,0 0.068,0.017 0.0747,0.033 0.008,0.021 -0.0167,0.033 -0.0747,0.033 -0.0568,0 -0.0822,-0.013 -0.0747,-0.033 0.008,-0.017 0.0334,-0.029 0.0651,-0.033 0.008,0 0.008,0 0.008,0 z m 4.10696,0.046 c 0.008,0.044 0.0334,0.1086 0.11188,0.1858 0.0856,0.086 0.24296,0.149 0.33731,0.1544 0.008,0.01 0.008,0.021 0.008,0.025 0,0.059 -0.11856,0.043 -0.27553,-0.038 -0.20664,-0.1077 -0.30223,-0.3097 -0.18451,-0.326 z m -1.90467,0.021 c 0.063,0 0.0981,0.099 0.0718,0.2037 -0.0125,0.044 -0.0376,0.068 -0.0718,0.068 -0.0334,0 -0.0672,-0.029 -0.0852,-0.068 -0.0417,-0.089 0.008,-0.2037 0.0852,-0.2037 z m 6.50816,0.1253 c 0.025,0 0.0468,0.021 0.0468,0.047 0,0.025 -0.0209,0.047 -0.0468,0.047 -0.025,0 -0.0468,-0.021 -0.0468,-0.047 0,-0.025 0.0209,-0.047 0.0468,-0.047 z m -20.93987,0.136 c -0.0251,0.021 -0.0488,0.038 -0.0622,0.053 -0.0518,0.058 -0.17324,0.1048 -0.43131,0.1633 0.16573,-0.063 0.3302,-0.1349 0.49351,-0.2167 z m 12.55495,0.091 c 0.0209,0 0.0292,0.01 0.0292,0.029 0,0.017 -0.13985,0.1194 -0.31101,0.2309 -0.36945,0.2409 -0.39533,0.2492 -0.19036,0.06 0.0376,-0.033 0.0739,-0.066 0.10938,-0.096 0.17741,-0.1148 0.27719,-0.1803 0.32311,-0.2163 0.0125,0 0.0292,-0.01 0.0376,-0.01 z m -2.5992,0.6261 c 0.008,-0.01 0.0334,0.013 0.0818,0.061 0.0209,0.017 0.0376,0.033 0.0539,0.045 0.0167,0.061 0.0793,0.1657 0.10269,0.1657 0.10896,0 0.11605,0.063 0.0956,0.8362 l -0.0209,0.7401 c -0.025,0 -0.0534,0 -0.0818,0.01 -0.0376,0 -0.0438,-0.3481 -0.008,-0.7861 0.0417,-0.5285 0.0292,-0.7966 -0.0376,-0.7966 -0.0534,0 -0.12565,-0.074 -0.15988,-0.1641 -0.0251,-0.066 -0.0334,-0.101 -0.0251,-0.1081 z m 2.50853,1.7658 c 0.0488,0 0.0539,0.111 0.008,0.1573 -0.0417,0.042 -0.0943,0.042 -0.11772,0 -0.0251,-0.038 0.0601,-0.1615 0.10979,-0.1615 z m -2.04983,0.053 c 0.19621,-0.01 0.32437,0.1799 0.32478,0.4992 0,0.6647 0.39993,0.9649 1.70752,1.2837 0.12524,0.029 0.2893,0.111 0.488,0.2021 -0.22333,-0.064 -0.44275,-0.1219 -0.63494,-0.1633 -1.17163,-0.2521 -1.75181,-0.7038 -1.65793,-1.2912 0.0505,-0.316 -0.0847,-0.5012 -0.35483,-0.5012 l 0.0376,-0.013 c 0.0292,-0.01 0.0597,-0.017 0.0881,-0.017 z m 5.45522,1.2293 c 0.11188,0 0.1436,0.082 0.0555,0.1946 -0.068,0.087 -0.16698,0.093 -0.24421,0.017 -0.0747,-0.075 -0.0209,-0.1637 0.11898,-0.1996 0.025,-0.01 0.0497,-0.01 0.0706,-0.01 z m -1.90084,0.2659 c 0.0584,0 0.19996,0.1537 0.18452,0.2004 -0.0209,0.058 -0.0893,0.045 -0.16281,-0.029 -0.0864,-0.09 -0.0969,-0.1691 -0.0209,-0.1691 z" />
  <path
     id="path78864"
     style="font-size:74.0339px;line-height:1.25;font-family:'Arial Black';-inkscape-font-specification:'Arial Black, Normal';letter-spacing:-1.54238px;display:inline;fill:#ffffff;stroke-width:2.49174"
     d="m 82.75911,233.6674 c -0.53635,0 -0.42184,0.01 -0.80469,0.033 -16.17504,0.7202 -16.23569,13.6607 -16.23569,17.823 v 0.6483 5.7948 24.2993 h 23.95531 c 1.08171,0 3.10206,-0.2221 5.97774,-0.6295 2.2682,-0.3206 4.24819,-0.888 5.61172,-1.7434 2.03092,-1.2676 3.62272,-2.986 4.77719,-5.1337 1.16854,-2.1736 1.72763,-4.5713 1.72763,-7.1878 0,-3.1877 -0.79366,-5.9785 -2.50689,-8.2592 -1.02498,-1.3912 -2.43552,-2.4113 -4.02945,-3.2546 0.40535,-0.4718 0.82661,-0.9373 1.13757,-1.4484 1.48334,-2.4384 1.85538,-4.989 1.85538,-7.8284 0,-3.6516 -1.26151,-6.8042 -3.78494,-9.3256 v -0.01 c -2.61364,-2.6293 -6.17725,-3.7847 -10.54662,-3.7847 h -6.52373 z m 22.50232,25.645 c 0,0.01 0.008,0.01 0.0125,0.013 l -0.0167,-0.021 c 0,0 0,0.01 0,0.01 z M 81.95442,233.7005 c 0,-2e-4 0.008,0 0.008,0 l -0.0539,0.01 c 0.025,0 0.025,0 0.0443,0 z m 3.82117,13.0331 h 0.39283 c 1.70284,0 2.41506,0.3168 2.64741,0.538 l 0.008,0.01 0.008,0.01 c 0.29431,0.2734 0.53309,0.721 0.53309,1.5587 0,0.9724 -0.27719,1.4984 -0.55049,1.7592 -0.21625,0.2058 -0.96716,0.538 -2.73258,0.538 H 85.85768 82.5746 v -2.2972 c 0,-0.8377 0.23879,-1.2852 0.53322,-1.5587 l 0.008,-0.01 0.008,-0.01 c 0.23168,-0.2204 0.9462,-0.538 2.64891,-0.538 z m -3.19954,16.93 h 4.43333 c 2.01059,0 2.95508,0.3748 3.28783,0.6815 l 0.0167,0.017 0.0167,0.017 c 0.37571,0.331 0.66104,0.8994 0.66104,1.6439 0,0.9343 -0.2751,1.5132 -0.70992,1.9295 -0.37696,0.3427 -1.29311,0.702 -3.24525,0.702 H 82.5748 Z" />
  <path
     d="m 206.05543,233.6674 c -17.5564,0 -17.64782,13.5701 -17.64782,17.8575 l 0.0125,30.741 h 16.80068 v -18.2063 h 15.9344 v -13.0363 h -15.86183 c 0.17408,-2.6574 1.03976,-3.7423 5.64174,-3.7423 h 12.9416 v -13.6136 z"
     id="path78866"
     style="font-size:74.0339px;line-height:1.25;font-family:'Arial Black';-inkscape-font-specification:'Arial Black, Normal';letter-spacing:-1.54238px;display:inline;fill:#ffffff;stroke-width:2.49174" />
  <path
     d="m 126.06771,245.2175 c -5.68248,0 -10.37254,1.7592 -13.88038,5.4209 -3.4736,3.6028 -5.16683,8.1628 -5.16683,13.5584 0,5.8661 1.97923,10.614 6.11187,14.33 v 0.01 0 c 3.40977,3.0399 7.7533,4.4632 12.95738,4.4632 5.81322,0 10.55993,-1.7172 14.05386,-5.3624 3.45691,-3.6078 5.13374,-8.1876 5.13374,-13.617 0,-4.8371 -1.33406,-8.9883 -4.12713,-12.4304 -3.55713,-4.3743 -8.59435,-6.3675 -15.08886,-6.3675 z m 0.16865,12.5503 c 0.83299,0 1.65984,0.3795 2.35862,1.2826 v 0.01 l 0.008,0.01 c 0.70262,0.8948 1.16912,2.4125 1.16912,4.9839 0,2.7892 -0.49305,4.4274 -1.16912,5.2883 l -0.008,0.01 -0.008,0.01 c -0.65708,0.8519 -1.48777,1.2511 -2.43906,1.2511 -0.91252,0 -1.77306,-0.4011 -2.47689,-1.2921 -0.69848,-0.9077 -1.17071,-2.4857 -1.17071,-5.1385 0,-2.6118 0.47423,-4.1575 1.19438,-5.0722 l 0.008,-0.01 v -0.01 c 0.70103,-0.9036 1.57076,-1.3157 2.52902,-1.3157 z"
     id="path78868"
     style="font-size:74.0339px;line-height:1.25;font-family:'Arial Black';-inkscape-font-specification:'Arial Black, Normal';letter-spacing:-1.54238px;display:inline;fill:#ffffff;stroke-width:2.49174" />
  <path
     d="m 139.1876,245.9479 11.6305,17.4222 -12.1054,18.8958 h 17.18232 l 5.21739,-8.368 4.42536,8.368 h 18.24415 l -12.17649,-18.9052 11.49796,-17.4128 h -17.48197 l -4.23612,6.9307 -3.65231,-6.9307 z"
     id="path78870"
     style="font-size:74.0339px;line-height:1.25;font-family:'Arial Black';-inkscape-font-specification:'Arial Black, Normal';letter-spacing:-1.54238px;display:inline;fill:#ffffff;stroke-width:2.49174" />
  <path
     d="m 225.55378,235.0794 v 11.6494 h 14.64866 v -11.6494 z m 0,12.279 v 35.5101 h 14.64866 v -35.5101 z"
     id="path78872"
     style="font-size:74.0339px;line-height:1.25;font-family:'Arial Black';-inkscape-font-specification:'Arial Black, Normal';font-variation-settings:normal;letter-spacing:-1.54238px;display:inline;fill:#ffffff;fill-opacity:1;stroke-width:2.49174;stroke-linecap:butt;stroke-linejoin:miter;stroke-miterlimit:4;stroke-dasharray:none;stroke-dashoffset:0;stroke-opacity:1;stop-color:#000000" />
  <path
     id="path78874"
     style="font-size:74.0339px;line-height:1.25;font-family:'Arial Black';-inkscape-font-specification:'Arial Black, Normal';letter-spacing:-1.54238px;display:inline;fill:#000000;stroke-width:2.49174"
     d="m 82.7518,235.6874 c 0,0 -0.26091,0 -0.69919,0.029 -14.31424,0.6322 -14.3157,11.6443 -14.3157,15.8074 v 0.6474 0 5.7948 22.2791 h 21.93734 c 0.93514,0 2.83326,-0.2025 5.6945,-0.6078 2.15073,-0.3039 3.7591,-0.7901 4.82502,-1.4588 1.72063,-1.0739 3.07669,-2.5328 4.06785,-4.3768 0.99121,-1.8438 1.48685,-3.9212 1.48685,-6.2312 0,-2.8369 -0.70166,-5.1874 -2.10422,-7.0516 -1.38395,-1.8845 -3.55321,-3.2114 -6.50808,-3.9814 1.94492,-0.7294 2.71011,-1.6684 3.50716,-2.9787 1.20511,-1.9808 1.56112,-4.144 1.56112,-6.7782 0,-3.1408 -1.06627,-5.7751 -3.19817,-7.9026 -2.11328,-2.1277 -5.15227,-3.1913 -9.11683,-3.1913 h -6.5237 -0.61353 c -0.008,0.01 0,0 -0.008,0.01 0.008,-0.01 0,0 0.008,-0.01 z m 3.02292,9.0272 h 0.39282 c 1.92635,0 3.27272,0.3644 4.03938,1.094 0.78557,0.7294 1.17847,1.7429 1.17847,3.0397 0,1.3981 -0.39282,2.472 -1.17847,3.2217 -0.76666,0.7295 -2.14129,1.094 -4.1237,1.094 h -0.22418 -5.30217 v -4.3157 c 0,-1.2968 0.39282,-2.3103 1.17831,-3.0397 0.76682,-0.7295 2.11328,-1.094 4.03945,-1.094 z m -5.21777,16.9299 h 6.45222 c 2.22554,0 3.77784,0.4049 4.65675,1.2155 0.89766,0.7903 1.34667,1.844 1.34667,3.1611 0,1.4184 -0.44901,2.5531 -1.34667,3.4041 -0.89765,0.8309 -2.44073,1.2465 -4.62873,1.2465 h -6.48024 z" />
  <path
     d="m 206.0553,235.6872 h 15.80275 v 9.5743 h -10.92182 c -7.73319,0 -7.73319,3.5247 -7.73319,7.7811 h 15.93392 v 8.9968 h -15.93392 v 18.2064 h -12.76405 l -0.0125,-28.7218 c 0,-4.2869 0,-15.8368 15.6288,-15.8368 z"
     id="path78876"
     style="font-size:74.0339px;line-height:1.25;font-family:'Arial Black';-inkscape-font-specification:'Arial Black, Normal';letter-spacing:-1.54238px;display:inline;stroke-width:2.49174" />
  <path
     d="m 109.03993,264.1975 q 0,-7.386 4.60052,-12.158 4.60069,-4.8024 12.42738,-4.8024 8.94881,0 13.5214,5.6231 3.67486,4.5288 3.67486,11.1549 0,7.4467 -4.57251,12.2187 -4.54462,4.7415 -12.5957,4.7415 -7.18155,0 -11.61384,-3.9513 -5.44211,-4.8935 -5.44211,-12.8265 z m 11.44545,-0.029 q 0,4.316 1.59897,6.3828 1.62703,2.0669 4.0676,2.0669 2.46862,0 4.03963,-2.0365 1.59901,-2.0364 1.59901,-6.5349 0,-4.1944 -1.59901,-6.2308 -1.59894,-2.0669 -3.95556,-2.0669 -2.49658,0 -4.12357,2.0972 -1.62716,2.0669 -1.62707,6.3222 z"
     id="path78878"
     style="font-size:74.0339px;line-height:1.25;font-family:'Arial Black';-inkscape-font-specification:'Arial Black, Normal';letter-spacing:-1.54238px;display:inline;stroke-width:2.49174" />
  <path
     d="m 142.96486,247.9666 h 13.54941 l 4.74099,8.9969 5.49843,-8.9969 h 12.59553 l -10.15493,15.3798 10.88435,16.8994 h -13.32495 l -5.49843,-10.395 -6.48019,10.395 h -12.37119 l 10.82832,-16.8994 z"
     id="path78880"
     style="font-size:74.0339px;line-height:1.25;font-family:'Arial Black';-inkscape-font-specification:'Arial Black, Normal';letter-spacing:-1.54238px;display:inline;stroke-width:2.49174" />
  <path
     d="m 227.16933,236.6947 h 11.41752 v 8.4193 h -11.41752 z m 0,12.2795 h 11.41752 v 32.2792 h -11.41752 z"
     id="path78882"
     style="font-size:74.0339px;line-height:1.25;font-family:'Arial Black';-inkscape-font-specification:'Arial Black, Normal';letter-spacing:-1.54238px;display:inline;stroke-width:2.49174" />
  <path
     d="m 258.37078,234.5931 c -12.27171,0 -13.23198,4.9756 -13.31668,12.2788 h -4.2772 v 13.2312 h 4.20748 v 9.2654 c 0,3.7075 0.32186,6.6565 1.10951,8.6643 l 0.008,0.017 0.008,0.013 c 0.82498,2.0176 2.09057,3.5509 3.84973,4.5834 1.72346,1.0115 4.24134,1.4402 7.20853,1.4402 2.61047,0 5.38779,-0.3573 8.32404,-1.0526 l 1.70063,-0.4024 -1.27921,-12.98 -2.26899,0.7882 c -1.43997,0.5009 -2.38016,0.6898 -2.94188,0.6898 -0.27344,0 -0.29055,0 -0.29264,0 0,0 -0.0956,-0.4219 -0.0956,-1.6652 v -9.3573 h 6.28399 v -13.2312 h -6.28399 v -12.2788 z"
     id="path78884"
     style="font-size:74.0339px;line-height:1.25;font-family:'Arial Black';-inkscape-font-specification:'Arial Black, Normal';letter-spacing:-1.54238px;display:inline;fill:#ffffff;stroke-width:2.49174" />
  <path
     d="m 258.4574,236.6947 v 12.2795 h 6.28378 v 9.0272 h -6.28378 v 11.4588 c 0,1.378 0.12148,2.2897 0.36444,2.7355 0.37404,0.6889 1.02853,1.0334 1.96375,1.0334 0.84163,0 2.01977,-0.2634 3.53459,-0.7902 l 0.84163,8.5409 c -2.824,0.6687 -5.46098,1.003 -7.91081,1.003 -2.84278,0 -4.93736,-0.3953 -6.28391,-1.1853 -1.3465,-0.7903 -2.34709,-1.9858 -3.00166,-3.5866 -0.63583,-1.6211 -0.9538,-4.235 -0.9538,-7.8419 v -11.3676 h -4.20791 v -9.0272 h 4.20791 c 0,-8.532 0,-12.2795 11.44561,-12.2795 z"
     id="path78886"
     style="font-size:74.0339px;line-height:1.25;font-family:'Arial Black';-inkscape-font-specification:'Arial Black, Normal';letter-spacing:-1.54238px;display:inline;fill:#000000;stroke-width:2.49174" />
</svg>
