<?xml version="1.0" encoding="UTF-8" standalone="no"?>
<!-- Created with Inkscape (http://www.inkscape.org/) -->

<svg
   width="331.94852mm"
   height="83.069145mm"
   viewBox="0 0 331.94852 83.069145"
   version="1.1"
   id="svg5"
   xmlns="http://www.w3.org/2000/svg"
   xmlns:svg="http://www.w3.org/2000/svg">
  <defs
     id="defs2" />
  <g
     id="layer1"
     transform="translate(-84.025978,-208.46542)">
    <path
       id="path4229-0"
       style="font-size:74.0339px;line-height:1.25;font-family:'Arial Black';-inkscape-font-specification:'Arial Black, Normal';letter-spacing:-1.54238px;fill:#ffffff;stroke-width:4.10546"
       d="m 112.10219,208.46619 c -0.88358,-0.002 -0.69499,0.008 -1.3257,0.0546 -26.650422,1.18656 -26.750512,22.50779 -26.750512,29.36554 v 1.06836 9.54763 40.0361 h 39.469502 c 1.78221,0 5.11118,-0.3661 9.84918,-1.03717 3.73715,-0.52815 6.99945,-1.4631 9.246,-2.87234 3.34628,-2.08861 5.96894,-4.91995 7.87107,-8.45848 1.92514,-3.58132 2.84638,-7.53186 2.84638,-11.84291 0,-5.25203 -1.3076,-9.85022 -4.13043,-13.60792 -1.68878,-2.29234 -4.01279,-3.97302 -6.63892,-5.36257 0.66758,-0.77721 1.36191,-1.54421 1.87417,-2.38626 2.44406,-4.01758 3.05694,-8.22007 3.05694,-12.89827 0,-6.01662 -2.07847,-11.21086 -6.23605,-15.3651 v -0.006 c -4.30626,-4.33228 -10.17791,-6.23598 -17.377,-6.23598 h -10.7486 z m 37.07549,42.25339 c 0,0.006 0.0133,0.0106 0.0186,0.0182 l -0.024,-0.0311 c 0,0.004 0,0.009 0,0.0133 z m -38.40119,-42.19881 c 0,-2.7e-4 0.0133,-0.002 0.016,-0.002 l -0.0878,0.006 c 0.04,-0.002 0.0386,-4e-5 0.0732,-0.002 z m 6.29581,21.47372 h 0.64722 c 2.80566,0 3.97911,0.52225 4.36188,0.88639 l 0.0133,0.0156 0.016,0.0133 c 0.48498,0.45046 0.87853,1.18784 0.87853,2.56822 0,1.6021 -0.45703,2.46865 -0.90715,2.89834 -0.35628,0.33895 -1.59348,0.8864 -4.50216,0.88639 h -0.36919 -5.40929 V 233.478 c 0,-1.3802 0.39341,-2.11769 0.87852,-2.56822 l 0.016,-0.0133 0.0133,-0.0156 c 0.38143,-0.36281 1.55888,-0.88639 4.36441,-0.88639 z m -5.27155,27.89426 h 7.30436 c 3.31274,0 4.86896,0.61745 5.41716,1.12295 l 0.0293,0.0259 0.028,0.0259 c 0.61926,0.54517 1.0892,1.48174 1.0892,2.70858 0,1.53929 -0.45304,2.49321 -1.16973,3.17908 -0.62086,0.56468 -2.1305,1.15674 -5.34701,1.15674 h -7.35108 z" />
    <path
       d="m 315.24868,208.46619 c -28.92639,0 -29.07692,22.35843 -29.07692,29.4227 l 0.0239,50.6495 h 27.6812 v -29.99718 h 26.25395 v -21.47893 h -26.13443 c 0.28707,-4.37833 1.71313,-6.1658 9.29552,-6.1658 h 21.32297 v -22.43029 z"
       id="path4231-0"
       style="font-size:74.0339px;line-height:1.25;font-family:'Arial Black';-inkscape-font-specification:'Arial Black, Normal';letter-spacing:-1.54238px;fill:#ffffff;stroke-width:4.10546" />
    <path
       d="m 183.45867,227.49645 c -9.36259,0 -17.09005,2.8985 -22.86961,8.93158 -5.72313,5.93623 -8.51309,13.44938 -8.51309,22.33933 0,9.6652 3.2611,17.4879 10.07011,23.61042 v 0.006 0.002 c 5.61812,5.00857 12.77462,7.35373 21.34893,7.35373 9.57807,0 17.39895,-2.82937 23.15561,-8.83539 5.69571,-5.94415 8.45839,-13.49001 8.45839,-22.4355 0,-7.96987 -2.19798,-14.80947 -6.79995,-20.48074 -5.86074,-7.20719 -14.16022,-10.49123 -24.86077,-10.49123 z m 0.27816,20.6783 c 1.37242,0 2.73473,0.6251 3.88609,2.11333 v 0.0106 l 0.0133,0.008 c 1.15761,1.47416 1.92621,3.97473 1.92621,8.21153 0,4.59569 -0.81238,7.29471 -1.92621,8.71322 l -0.0133,0.0106 -0.0133,0.0106 c -1.08269,1.40357 -2.45138,2.06133 -4.01879,2.06133 -1.50337,0 -2.92131,-0.66075 -4.08106,-2.12892 -1.15069,-1.49563 -1.92873,-4.0955 -1.92873,-8.46627 0,-4.30334 0.78137,-6.85003 1.96773,-8.35711 l 0.0133,-0.0106 v -0.008 c 1.15508,-1.48887 2.58807,-2.16792 4.16691,-2.16792 z"
       id="path4233-4"
       style="font-size:74.0339px;line-height:1.25;font-family:'Arial Black';-inkscape-font-specification:'Arial Black, Normal';letter-spacing:-1.54238px;fill:#ffffff;stroke-width:4.10546" />
    <path
       d="m 205.07538,228.69999 19.1628,28.70527 -19.94524,31.13313 h 28.31019 l 8.59614,-13.78728 7.29145,13.78728 h 30.05952 l -20.06221,-31.14873 18.94439,-28.68967 h -28.80395 l -6.97949,11.4192 -6.01766,-11.4192 z"
       id="path4235-4"
       style="font-size:74.0339px;line-height:1.25;font-family:'Arial Black';-inkscape-font-specification:'Arial Black, Normal';letter-spacing:-1.54238px;fill:#ffffff;stroke-width:4.10546" />
    <path
       d="m 347.37481,210.79265 v 19.19404 h 24.13544 v -19.19404 z m 0,20.2312 v 58.50751 h 24.13544 v -58.50751 z"
       id="path4237-4"
       style="font-size:74.0339px;line-height:1.25;font-family:'Arial Black';-inkscape-font-specification:'Arial Black, Normal';font-variation-settings:normal;letter-spacing:-1.54238px;vector-effect:none;fill:#ffffff;fill-opacity:1;stroke-width:4.10546;stroke-linecap:butt;stroke-linejoin:miter;stroke-miterlimit:4;stroke-dasharray:none;stroke-dashoffset:0;stroke-opacity:1;-inkscape-stroke:none;stop-color:#000000" />
    <path
       id="path4243-9"
       style="font-size:74.0339px;line-height:1.25;font-family:'Arial Black';-inkscape-font-specification:'Arial Black, Normal';letter-spacing:-1.54238px;fill:#000000;stroke-width:4.10546"
       d="m 112.09022,211.79434 c 0,0 -0.42961,-0.002 -1.15203,0.0481 -23.584572,1.04167 -23.586832,19.18545 -23.586832,26.0448 l 8e-4,1.06671 -8e-4,7e-4 v 9.54748 36.70785 h 36.144522 c 1.54078,0 4.66812,-0.33367 9.38243,-1.00138 3.54365,-0.50079 6.1936,-1.30199 7.94985,-2.40373 2.83481,-1.76938 5.06925,-4.17303 6.70226,-7.21118 1.63315,-3.03806 2.44979,-6.46086 2.44979,-10.26688 0,-4.67405 -1.15602,-8.5468 -3.46699,-11.61834 -2.28023,-3.1049 -5.85435,-5.29117 -10.72291,-6.55985 3.20453,-1.2019 4.46516,-2.74889 5.77862,-4.90785 1.98544,-3.26363 2.5721,-6.82774 2.5721,-11.16786 0,-5.17485 -1.75679,-9.51522 -5.26956,-13.02067 -3.48176,-3.50556 -8.489,-5.25794 -15.02117,-5.25794 h -10.74847 -1.01095 c -0.0133,0.008 0,0.004 -0.0133,0.0106 0.0133,-0.008 0,-0.004 0.0133,-0.0106 z m 4.98075,14.87349 h 0.64721 c 3.1738,0 5.39214,0.60073 6.65543,1.80264 1.29416,1.20183 1.94164,2.87155 1.94164,5.00826 0,2.30364 -0.64748,4.07284 -1.94164,5.30812 -1.26329,1.20191 -3.52808,1.80263 -6.79437,1.80263 h -0.36933 -8.736 v -7.11075 c 0,-2.13671 0.64747,-3.80643 1.94151,-5.00826 1.26342,-1.20191 3.48176,-1.80264 6.65555,-1.80264 z m -8.59706,27.89419 h 10.63081 c 3.66688,0 6.22447,0.6673 7.67262,2.00277 1.47903,1.30204 2.21874,3.0383 2.21874,5.2084 0,2.33702 -0.73971,4.20646 -2.21874,5.6087 -1.47903,1.36882 -4.02144,2.05365 -7.62644,2.05365 h -10.67699 z" />
    <path
       d="m 315.24855,211.7941 h 26.03701 v 15.77494 H 323.2905 c -12.74148,0 -12.74148,5.80741 -12.74148,12.82027 h 26.25315 v 14.82343 h -26.25315 v 29.99744 h -21.03045 l -0.02,-47.32278 c 0,-7.06321 0,-26.0933 25.75047,-26.0933 z"
       id="path4245-4"
       style="font-size:74.0339px;line-height:1.25;font-family:'Arial Black';-inkscape-font-specification:'Arial Black, Normal';letter-spacing:-1.54238px;stroke-width:4.10546" />
    <path
       d="m 155.40321,258.76837 q 0,-12.16924 7.58013,-20.03168 7.58013,-7.9125 20.4756,-7.9125 14.74434,0 22.27816,9.26465 6.05492,7.46179 6.05492,18.37905 0,12.26942 -7.53382,20.13184 -7.48776,7.81235 -20.75308,7.81235 -11.83247,0 -19.13525,-6.5103 -8.96666,-8.06275 -8.96666,-21.13341 z m 18.8579,-0.0502 q 0,7.11126 2.6345,10.51662 2.68083,3.4054 6.70201,3.4054 4.06735,0 6.65568,-3.35532 2.63465,-3.35528 2.63465,-10.76701 0,-6.91093 -2.63465,-10.26624 -2.63451,-3.40538 -6.51714,-3.40538 -4.11353,0 -6.79423,3.45546 -2.68082,3.4054 -2.68082,10.41647 z"
       id="path4247-7"
       style="font-size:74.0339px;line-height:1.25;font-family:'Arial Black';-inkscape-font-specification:'Arial Black, Normal';letter-spacing:-1.54238px;stroke-width:4.10546" />
    <path
       d="m 211.29905,232.02609 h 22.32434 l 7.81131,14.82343 9.05929,-14.82343 h 20.75282 l -16.73164,25.34005 17.93344,27.84404 h -21.95462 l -9.05929,-17.12709 -10.67686,17.12709 h -20.38323 l 17.84108,-27.84404 z"
       id="path4249-6"
       style="font-size:74.0339px;line-height:1.25;font-family:'Arial Black';-inkscape-font-specification:'Arial Black, Normal';letter-spacing:-1.54238px;stroke-width:4.10546" />
    <path
       d="m 350.03662,213.45407 h 18.8117 V 227.326 h -18.8117 z m 0,20.23199 h 18.8117 v 53.18409 h -18.8117 z"
       id="path4251-3"
       style="font-size:74.0339px;line-height:1.25;font-family:'Arial Black';-inkscape-font-specification:'Arial Black, Normal';letter-spacing:-1.54238px;stroke-width:4.10546" />
    <g
       aria-label="BoxFit"
       transform="matrix(1.2785943,0,0,1.3853405,1136.5443,-915.8059)"
       id="text187-7-1-3-0-7-6-1-1"
       style="font-size:74.0339px;line-height:1.25;font-family:'Arial Black';-inkscape-font-specification:'Arial Black, Normal';letter-spacing:-1.54238px;display:inline;fill:#ffffff;stroke-width:3.08473">
      <path
         d="m -574.92773,812.65039 c -15.81365,0 -17.05108,5.9176 -17.16016,14.60352 h -5.51172 v 15.73632 h 5.42188 v 11.01954 c 0,4.4095 0.41482,7.91677 1.42968,10.30468 l 0.008,0.0176 0.008,0.0156 c 1.0631,2.39959 2.69397,4.22322 4.96094,5.45117 2.22092,1.203 5.46544,1.71289 9.28906,1.71289 3.3639,0 6.94275,-0.42503 10.72656,-1.25195 l 2.19141,-0.47852 -1.64844,-15.4375 -2.92383,0.9375 c -1.85565,0.59564 -3.06714,0.82031 -3.79101,0.82031 -0.35209,0 -0.37445,0.002 -0.37696,-0.002 0,0 -0.12304,-0.50179 -0.12304,-1.98047 v -11.12891 h 8.09765 v -15.73632 h -8.09765 v -14.60352 z"
         id="path942-3-6-2-5-7"
         style="fill:#ffffff" />
    </g>
    <path
       d="m 401.5876,213.45411 v 20.23199 h 10.35332 v 14.87351 H 401.5876 v 18.87985 c 0,2.27025 0.20017,3.77264 0.60077,4.50714 0.61634,1.1351 1.69476,1.70267 3.23555,1.70267 1.38666,0 3.32777,-0.43401 5.82374,-1.30205 l 1.38666,14.07225 c -4.65295,1.10174 -8.99767,1.65261 -13.03415,1.65261 -4.68383,0 -8.13484,-0.65103 -10.35345,-1.95307 -2.21861,-1.30207 -3.86706,-3.27186 -4.94561,-5.90937 -1.04769,-2.67089 -1.57153,-6.97769 -1.57153,-12.92041 v -18.72962 h -6.93304 V 233.6861 h 6.93304 c 0,-14.05741 0,-20.23199 18.85802,-20.23199 z"
       id="path4253-5"
       style="font-size:74.0339px;line-height:1.25;font-family:'Arial Black';-inkscape-font-specification:'Arial Black, Normal';letter-spacing:-1.54238px;display:inline;fill:#000000;stroke-width:4.10546" />
  </g>
</svg>
