<?xml version="1.0" encoding="UTF-8" standalone="no"?>
<!-- Created with Inkscape (http://www.inkscape.org/) -->

<svg
   id="svg5"
   version="1.1"
   viewBox="0 0 3.5450001 3.5450017"
   height="3.5450017mm"
   width="3.5450001mm"
   xml:space="preserve"
   xmlns:xlink="http://www.w3.org/1999/xlink"
   xmlns="http://www.w3.org/2000/svg"
   xmlns:svg="http://www.w3.org/2000/svg"><defs
     id="defs2"><rect
       x="-449.16147"
       y="1600.3644"
       width="154.88353"
       height="50.243092"
       id="rect4511" /><rect
       x="-1046.1163"
       y="443.22809"
       width="673.00604"
       height="504.65302"
       id="rect4475" /><rect
       x="105.24138"
       y="449.22141"
       width="587.013"
       height="284.21234"
       id="rect1856" /><mask
       maskUnits="userSpaceOnUse"
       id="mask-powermask-path-effect3273"><path
         id="mask-powermask-path-effect3273_box"
         style="fill:#ffffff;fill-opacity:1"
         d="M -47350.493,-20984.125 H 5522.0724 V 32008.207 H -47350.493 Z" /><path
         id="path3269"
         style="display:inline;fill:url(#radialGradient3271);fill-opacity:1;fill-rule:evenodd;stroke:#ffffff;stroke-width:0.203014;paint-order:markers fill stroke;stop-color:#000000"
         d="m -22849.188,3538.9666 h 3754.414 v 3754.4131 h -3754.414 z" /></mask><radialGradient
       xlink:href="#linearGradient2926"
       id="radialGradient3271"
       gradientUnits="userSpaceOnUse"
       gradientTransform="matrix(0.75092322,0,0,0.75092322,-20312.94,8031.9731)"
       cx="-877.64062"
       cy="-3483.4453"
       fx="-877.64062"
       fy="-3483.4453"
       r="2500" /><linearGradient
       id="linearGradient2926"><stop
         style="stop-color:#000000;stop-opacity:1;"
         offset="0"
         id="stop2922" /><stop
         style="stop-color:#000000;stop-opacity:0;"
         offset="1"
         id="stop2924" /></linearGradient><mask
       maskUnits="userSpaceOnUse"
       id="mask-powermask-path-effect2409"><path
         id="path2407"
         mask="url(#mask-powermask-path-effect3273-8)"
         style="display:inline;fill:#aa0000;fill-opacity:1;fill-rule:evenodd;stroke:none;stroke-width:0.439805;paint-order:markers fill stroke;stop-color:#000000"
         class="UnoptimicedTransforms"
         d="m -23547.429,4312.5611 v 192.6893 l 2573.663,1008.9234 -2511.364,-1201.6127 z m 982.239,0 1590.4,1200.9906 -1370.832,-1200.9906 z m 675.683,0 913.9,1200.1223 -783.121,-1200.1223 z m 437.711,0 475.645,1199.0596 -377.46,-1199.0596 z m 349.803,0 125.596,1197.8932 -38.103,-1197.8932 z m 329.521,0 -203.848,1196.7009 294.62,-1196.7009 z m 362.194,0 -565.64,1195.5733 675.942,-1195.5733 z m 472.444,0 -1037.397,1194.6013 1200.239,-1194.6013 z m 775.721,0 -1812.185,1193.8497 2135.018,-1193.8497 z m 881.215,332.8777 -2692.311,860.4924 2692.311,-649.3869 z m -5266.531,418.8673 v 190.7454 l 2574.803,259.4463 z m 5266.531,344.1011 -2691.132,97.3685 2691.132,98.2757 z m -2689.952,97.524 2689.952,860.7257 V 6155.707 Z m 1.101,0.4796 1654.967,1091.0768 h 294.71 z m 0.92,0.7516 946.21,1090.3252 h 148.522 z m 0.687,0.972 514.927,1089.3532 h 100.479 z m 0.402,1.1276 184.991,1088.2256 h 82.529 z m 0.08,1.1923 -114.333,1087.0333 h 79.393 z m -0.234,1.1664 -431.166,1085.8669 h 88.945 z m -0.557,1.0627 -826.667,1084.8042 h 118.273 z m -0.816,0.8683 -1436.396,1083.9359 h 198.34 z m -1.011,0.6221 -2577.149,1009.2862 v 74.0276 h 311.066 z m -1.154,0.324 -2575.995,258.6946 v 190.8102 z"
         transform="matrix(0.10684334,0,0,0.10684334,-1963.4303,-1435.358)"
         clip-path="none" /></mask><mask
       maskUnits="userSpaceOnUse"
       id="mask-powermask-path-effect3273-8"><path
         id="mask-powermask-path-effect3273_box-4"
         style="fill:#ffffff;fill-opacity:1"
         d="M -47350.493,-20984.125 H 5522.0724 V 32008.207 H -47350.493 Z" /><path
         id="path3269-8"
         style="display:inline;fill:url(#radialGradient3271-1);fill-opacity:1;fill-rule:evenodd;stroke:#ffffff;stroke-width:0.203014;paint-order:markers fill stroke;stop-color:#000000"
         d="m -22849.188,3538.9666 h 3754.414 v 3754.4131 h -3754.414 z" /></mask><radialGradient
       xlink:href="#linearGradient2926"
       id="radialGradient3271-1"
       gradientUnits="userSpaceOnUse"
       gradientTransform="matrix(0.75092322,0,0,0.75092322,-20312.94,8031.9731)"
       cx="-877.64062"
       cy="-3483.4453"
       fx="-877.64062"
       fy="-3483.4453"
       r="2500" /><mask
       maskUnits="userSpaceOnUse"
       id="mask-powermask-path-effect2409-8"><path
         id="mask-powermask-path-effect2409_box-9"
         style="fill:#ffffff;fill-opacity:1"
         d="m -4311.9901,-958.85541 h 215.6867 v 215.6867 h -215.6867 z" /><path
         id="path2407-6"
         mask="url(#mask-powermask-path-effect3273-8-4)"
         style="display:inline;fill:#aa0000;fill-opacity:1;fill-rule:evenodd;stroke:none;stroke-width:0.439805;paint-order:markers fill stroke;stop-color:#000000"
         class="UnoptimicedTransforms"
         d="m -23547.429,4312.5611 v 192.6893 l 2573.663,1008.9234 -2511.364,-1201.6127 z m 982.239,0 1590.4,1200.9906 -1370.832,-1200.9906 z m 675.683,0 913.9,1200.1223 -783.121,-1200.1223 z m 437.711,0 475.645,1199.0596 -377.46,-1199.0596 z m 349.803,0 125.596,1197.8932 -38.103,-1197.8932 z m 329.521,0 -203.848,1196.7009 294.62,-1196.7009 z m 362.194,0 -565.64,1195.5733 675.942,-1195.5733 z m 472.444,0 -1037.397,1194.6013 1200.239,-1194.6013 z m 775.721,0 -1812.185,1193.8497 2135.018,-1193.8497 z m 881.215,332.8777 -2692.311,860.4924 2692.311,-649.3869 z m -5266.531,418.8673 v 190.7454 l 2574.803,259.4463 z m 5266.531,344.1011 -2691.132,97.3685 2691.132,98.2757 z m -2689.952,97.524 2689.952,860.7257 V 6155.707 Z m 1.101,0.4796 1654.967,1091.0768 h 294.71 z m 0.92,0.7516 946.21,1090.3252 h 148.522 z m 0.687,0.972 514.927,1089.3532 h 100.479 z m 0.402,1.1276 184.991,1088.2256 h 82.529 z m 0.08,1.1923 -114.333,1087.0333 h 79.393 z m -0.234,1.1664 -431.166,1085.8669 h 88.945 z m -0.557,1.0627 -826.667,1084.8042 h 118.273 z m -0.816,0.8683 -1436.396,1083.9359 h 198.34 z m -1.011,0.6221 -2577.149,1009.2862 v 74.0276 h 311.066 z m -1.154,0.324 -2575.995,258.6946 v 190.8102 z"
         transform="matrix(0.10684334,0,0,0.10684334,-1963.4303,-1435.358)"
         clip-path="none" /></mask><mask
       maskUnits="userSpaceOnUse"
       id="mask-powermask-path-effect3273-8-4"><path
         id="mask-powermask-path-effect3273_box-4-3"
         style="fill:#ffffff;fill-opacity:1"
         d="M -47350.493,-20984.125 H 5522.0724 V 32008.207 H -47350.493 Z" /><path
         id="path3269-8-3"
         style="display:inline;fill:url(#radialGradient3271-1-3);fill-opacity:1;fill-rule:evenodd;stroke:#ffffff;stroke-width:0.203014;paint-order:markers fill stroke;stop-color:#000000"
         d="m -22849.188,3538.9666 h 3754.414 v 3754.4131 h -3754.414 z" /></mask><radialGradient
       xlink:href="#linearGradient2926"
       id="radialGradient3271-1-3"
       gradientUnits="userSpaceOnUse"
       gradientTransform="matrix(0.75092322,0,0,0.75092322,-20312.94,8031.9731)"
       cx="-877.64062"
       cy="-3483.4453"
       fx="-877.64062"
       fy="-3483.4453"
       r="2500" /><filter
       id="mask-powermask-path-effect2409_inverse-4"
       style="color-interpolation-filters:sRGB"
       height="100"
       width="100"
       x="-50"
       y="-50"><feColorMatrix
         id="mask-powermask-path-effect2409_primitive1-8"
         values="1"
         type="saturate"
         result="fbSourceGraphic" /><feColorMatrix
         id="mask-powermask-path-effect2409_primitive2-8"
         values="-1 0 0 0 1 0 -1 0 0 1 0 0 -1 0 1 0 0 0 1 0 "
         in="fbSourceGraphic" /></filter><mask
       maskUnits="userSpaceOnUse"
       id="mask-powermask-path-effect2409-0"><path
         id="path3850"
         style="fill:#ffffff;fill-opacity:1"
         d="m -4311.9901,-958.85541 h 215.6867 v 215.6867 h -215.6867 z" /><path
         id="path3852"
         mask="url(#mask-powermask-path-effect3273-8-4)"
         style="display:inline;fill:#aa0000;fill-opacity:1;fill-rule:evenodd;stroke:none;stroke-width:0.439805;paint-order:markers fill stroke;stop-color:#000000"
         class="UnoptimicedTransforms"
         d="m -23547.429,4312.5611 v 192.6893 l 2573.663,1008.9234 -2511.364,-1201.6127 z m 982.239,0 1590.4,1200.9906 -1370.832,-1200.9906 z m 675.683,0 913.9,1200.1223 -783.121,-1200.1223 z m 437.711,0 475.645,1199.0596 -377.46,-1199.0596 z m 349.803,0 125.596,1197.8932 -38.103,-1197.8932 z m 329.521,0 -203.848,1196.7009 294.62,-1196.7009 z m 362.194,0 -565.64,1195.5733 675.942,-1195.5733 z m 472.444,0 -1037.397,1194.6013 1200.239,-1194.6013 z m 775.721,0 -1812.185,1193.8497 2135.018,-1193.8497 z m 881.215,332.8777 -2692.311,860.4924 2692.311,-649.3869 z m -5266.531,418.8673 v 190.7454 l 2574.803,259.4463 z m 5266.531,344.1011 -2691.132,97.3685 2691.132,98.2757 z m -2689.952,97.524 2689.952,860.7257 V 6155.707 Z m 1.101,0.4796 1654.967,1091.0768 h 294.71 z m 0.92,0.7516 946.21,1090.3252 h 148.522 z m 0.687,0.972 514.927,1089.3532 h 100.479 z m 0.402,1.1276 184.991,1088.2256 h 82.529 z m 0.08,1.1923 -114.333,1087.0333 h 79.393 z m -0.234,1.1664 -431.166,1085.8669 h 88.945 z m -0.557,1.0627 -826.667,1084.8042 h 118.273 z m -0.816,0.8683 -1436.396,1083.9359 h 198.34 z m -1.011,0.6221 -2577.149,1009.2862 v 74.0276 h 311.066 z m -1.154,0.324 -2575.995,258.6946 v 190.8102 z"
         transform="matrix(0.10684334,0,0,0.10684334,-1963.4303,-1435.358)"
         clip-path="none" /></mask></defs><g
     id="layer3"
     style="display:inline"
     transform="matrix(0.03738957,0,0,0.03738957,-452.84948,21.314844)"><text
       xml:space="preserve"
       transform="matrix(7.0763941,0,0,7.0763941,-1809.4771,-718.37047)"
       id="text1854"
       style="font-weight:bold;font-size:26.6667px;line-height:1.25;font-family:sans-serif;-inkscape-font-specification:'sans-serif Bold';letter-spacing:-0.5px;white-space:pre;shape-inside:url(#rect1856);display:inline" /><text
       xml:space="preserve"
       style="font-size:188.704px;line-height:1.25;font-family:Arial;-inkscape-font-specification:Arial;letter-spacing:-3.5382px;stroke-width:7.07639"
       x="628.71295"
       y="7856.3379"
       id="text2673"><tspan
         id="tspan2671"
         style="stroke-width:7.07639"
         x="628.71295"
         y="7856.3379" /></text><path
       style="display:inline;fill:#ffffff;stroke-width:0.424407"
       d="m 12186.93,-475.31034 c 0.497,-0.089 1.366,-0.4957 1.931,-0.9044 0.95,-0.6871 1.184,-1.4241 3.102,-9.7795 2.838,-12.3695 2.873,-12.2691 -5.071,-14.5626 -2.633,-0.7601 -6.258,-2.1276 -8.056,-3.0391 -6.585,-3.3382 -5.792,-3.4268 -13.513,1.509 -7.792,4.9812 -6.598,5.0095 -11.847,-0.2815 -6.766,-6.8191 -11.853,-14.5462 -15.242,-23.1504 -3.272,-8.3092 -3.705,-7.0209 4.057,-12.091 7.631,-4.9843 7.269,-4.4089 7.008,-11.1527 -0.1,-2.5505 0.121,-6.2013 0.527,-8.7758 1.327,-8.4056 1.214,-8.5158 -11.243,-11.0129 -9.124,-1.8291 -9.124,-1.8291 -10.477,-0.9542 -1.037,0.6706 -1.506,1.3806 -2.009,3.0411 -1.487,4.912 -2.13,16.465 -1.338,24.0496 0.599,5.7314 3.563,17.0165 5.891,22.4287 2.51,5.8332 9.482,16.6217 13.769,21.3061 3.978,4.3463 13.049,11.6851 18.028,14.5856 7.842,4.5679 21.219,9.3672 24.483,8.784 z"
       id="path5509-9" /></g><g
     id="layer1"
     transform="matrix(0.03738957,0,0,0.03738957,-409.1121,15.78539)"
     style="display:inline"><g
       id="layer6"
       transform="matrix(1.2574382,0,0,1.2574382,-1465.0389,125.57297)"
       style="display:inline"><g
         id="layer8"
         transform="matrix(1.1025017,0,0,1.1025017,-112.86563,-59.092176)" /><g
         id="layer7"
         transform="matrix(1.0658866,0,0,1.0658866,-67.868602,-50.49066)" /></g><text
       xml:space="preserve"
       transform="matrix(7.0763941,0,0,7.0763941,-2979.252,-570.48286)"
       id="text4509"
       style="font-size:26.6667px;line-height:1.25;font-family:Arial;-inkscape-font-specification:Arial;letter-spacing:-0.5px;white-space:pre;shape-inside:url(#rect4511);display:inline" /></g></svg>
